<?xml version="1.0" encoding="UTF-8" standalone="no"?>
<!-- Created with Inkscape (http://www.inkscape.org/) -->

<svg
   version="1.1"
   id="svg2"
   width="484.008"
   height="108.96507"
   viewBox="0 0 484.008 108.96507"
   sodipodi:docname="DeadEye-BarFullLockUp_Black.ai"
   xmlns:inkscape="http://www.inkscape.org/namespaces/inkscape"
   xmlns:sodipodi="http://sodipodi.sourceforge.net/DTD/sodipodi-0.dtd"
   xmlns="http://www.w3.org/2000/svg"
   xmlns:svg="http://www.w3.org/2000/svg">
  <defs
     id="defs6">
    <clipPath
       clipPathUnits="userSpaceOnUse"
       id="clipPath116">
      <path
         d="M 0,81.724 H 363.006 V 0 H 0 Z"
         id="path114" />
    </clipPath>
  </defs>
  <sodipodi:namedview
     id="namedview4"
     pagecolor="#ffffff"
     bordercolor="#000000"
     borderopacity="0.25"
     inkscape:showpageshadow="2"
     inkscape:pageopacity="0.0"
     inkscape:pagecheckerboard="0"
     inkscape:deskcolor="#d1d1d1" />
  <g
     id="g8"
     inkscape:groupmode="layer"
     inkscape:label="DeadEye-BarFullLockUp_Black"
     transform="matrix(1.3333333,0,0,-1.3333333,0,108.96507)">
    <g
       id="g10"
       transform="translate(151.3766,57.4707)">
      <path
         d="m 0,0 v -6.66 h -16.12 v -8.04 h -1.64 V -3.56 H -1.64 V 0 Z"
         style="fill:#000000;fill-opacity:1;fill-rule:nonzero;stroke:none"
         id="path12" />
    </g>
    <g
       id="g14"
       transform="translate(156.1666,37.0107)">
      <path
         d="M 0,0 -0.92,-2.46 H 0 v -3.03 h -27.57 v 3.09 h 25.93 v 3.57 l 1.64,0 z"
         style="fill:#000000;fill-opacity:1;fill-rule:nonzero;stroke:none"
         id="path16" />
    </g>
    <g
       id="g18"
       transform="translate(155.2464,34.551)">
      <path
         d="M 0,0 H 0.92 V 2.46 Z"
         style="fill:#000000;fill-opacity:1;fill-rule:nonzero;stroke:none"
         id="path20" />
    </g>
    <g
       id="g22"
       transform="translate(156.1666,77.0707)">
      <path
         d="m 0,0 v -6.66 h -20.91 v -8.35 h -1.64 V -3.56 H -1.64 V 0 Z"
         style="fill:#000000;fill-opacity:1;fill-rule:nonzero;stroke:none"
         id="path24" />
    </g>
    <g
       id="g26"
       transform="translate(199.6966,31.4607)">
      <path
         d="m 0,0 h -6.75 l -1.16,3.09 h 6.75 z"
         style="fill:#000000;fill-opacity:1;fill-rule:nonzero;stroke:none"
         id="path28" />
    </g>
    <g
       id="g30"
       transform="translate(186.9066,42.8407)">
      <path
         d="m 0,0 h -16.92 l -4.3,-11.38 h -6.97 l 1.16,3.09 h 3.94 L -18.8,3.1 h 17.63 z"
         style="fill:#000000;fill-opacity:1;fill-rule:nonzero;stroke:none"
         id="path32" />
    </g>
    <g
       id="g34"
       transform="translate(238.2466,69.4807)">
      <path
         d="m 0,0 v -30.37 l -8.54,-7.59 h -23.82 v 3.09 h 21.71 l 9.01,8.01 V 1.46 Z"
         style="fill:#000000;fill-opacity:1;fill-rule:nonzero;stroke:none"
         id="path36" />
    </g>
    <g
       id="g38"
       transform="translate(285.8566,38.1807)">
      <path
         d="m 0,0 v -6.66 h -27.57 v 3.09 H -1.65 V 0 Z"
         style="fill:#000000;fill-opacity:1;fill-rule:nonzero;stroke:none"
         id="path40" />
    </g>
    <g
       id="g42"
       transform="translate(281.0666,57.4707)">
      <path
         d="m 0,0 v -6.66 h -16.12 v -8.04 h -1.65 V -3.56 H -1.65 V 0 Z"
         style="fill:#000000;fill-opacity:1;fill-rule:nonzero;stroke:none"
         id="path44" />
    </g>
    <g
       id="g46"
       transform="translate(285.8566,77.0707)">
      <path
         d="m 0,0 v -6.66 h -20.91 v -8.35 h -1.65 V -3.56 H -1.65 V 0 Z"
         style="fill:#000000;fill-opacity:1;fill-rule:nonzero;stroke:none"
         id="path48" />
    </g>
    <g
       id="g50"
       transform="translate(327.7366,77.0707)">
      <path
         d="m 0,0 -17.11,-25.7 v -19.91 h -6.66 v 3.09 h 5.01 v 20.44 L -4.05,0 Z"
         style="fill:#000000;fill-opacity:1;fill-rule:nonzero;stroke:none"
         id="path52" />
    </g>
    <g
       id="g54"
       transform="translate(360.1566,77.0707)">
      <path
         d="m 0,0 v -6.66 h -20.91 v -8.35 h -1.64 V -3.56 H -1.64 V 0 Z"
         style="fill:#000000;fill-opacity:1;fill-rule:nonzero;stroke:none"
         id="path56" />
    </g>
    <g
       id="g58"
       transform="translate(360.1566,38.1807)">
      <path
         d="m 0,0 v -6.66 h -27.57 v 3.09 H -1.64 V 0 Z"
         style="fill:#000000;fill-opacity:1;fill-rule:nonzero;stroke:none"
         id="path60" />
    </g>
    <g
       id="g62"
       transform="translate(355.3666,57.4707)">
      <path
         d="m 0,0 v -6.66 h -16.12 v -8.04 h -1.64 V -3.56 H -1.64 V 0 Z"
         style="fill:#000000;fill-opacity:1;fill-rule:nonzero;stroke:none"
         id="path64" />
    </g>
    <g
       id="g66"
       transform="translate(178.4266,65.7407)">
      <path
         d="M 0,0 -4.26,-11.64 H -7.27 L -1.5,4.1 Z"
         style="fill:#000000;fill-opacity:1;fill-rule:nonzero;stroke:none"
         id="path68" />
    </g>
    <g
       id="g70"
       transform="translate(228.4466,69.8107)">
      <path
         d="M 0,0 V -0.81 L -1.66,0.6 H -15.9 v -27.64 h -1.64 V 3.7 h 13.21 z"
         style="fill:#000000;fill-opacity:1;fill-rule:nonzero;stroke:none"
         id="path72" />
    </g>
    <g
       id="g74"
       transform="translate(209.4066,75.0107)">
      <path
         d="m 0,0 h 15.26 l 5.28,-4.51 v -2.78 -22 l -5.28,-4.45 H 3.14 0 Z M 17.62,5.16 H -5.16 v -19.2 l -3.41,-2.96 3.41,-3.02 v -0.03 -0.65 -18.2 h 1.64 21.14 l 8.08,7.18 v 28.98 0.72 z"
         style="fill:#000000;fill-opacity:1;fill-rule:nonzero;stroke:none"
         id="path76" />
    </g>
    <g
       id="g78"
       transform="translate(121.1266,69.4807)">
      <path
         d="m 0,0 v -30.37 l -8.54,-7.59 h -23.82 v 3.09 h 21.71 l 9.01,8.01 V 1.46 Z"
         style="fill:#000000;fill-opacity:1;fill-rule:nonzero;stroke:none"
         id="path80" />
    </g>
    <g
       id="g82"
       transform="translate(92.2866,75.0107)">
      <path
         d="m 0,0 h 15.26 l 5.28,-4.51 v -2.78 -22 l -5.28,-4.45 H 3.14 0 Z M 17.62,5.16 H -5.16 v -19.2 L -8.57,-17 -5.16,-20.02 V -38.9 h 1.64 21.14 l 8.08,7.18 v 28.98 0.72 z"
         style="fill:#000000;fill-opacity:1;fill-rule:nonzero;stroke:none"
         id="path84" />
    </g>
    <g
       id="g86"
       transform="translate(111.3266,69.8107)">
      <path
         d="M 0,0 V -0.81 L -1.66,0.6 H -15.9 v -27.64 h -1.64 V 3.7 h 13.21 z"
         style="fill:#000000;fill-opacity:1;fill-rule:nonzero;stroke:none"
         id="path88" />
    </g>
    <g
       id="g90"
       transform="translate(126.9566,80.1707)">
      <path
         d="M 0,0 V -19.2 L -3.41,-22.16 0,-25.18 v -0.7 -18.18 h 1.64 24.43 v 2.07 3.09 H 8.3 5.16 v 14.14 h 16.12 v 2.06 3.09 H 8.3 5.16 V -5.16 H 26.07 V -3.1 0 Z"
         style="fill:#000000;fill-opacity:1;fill-rule:nonzero;stroke:none"
         id="path92" />
    </g>
    <g
       id="g94"
       transform="translate(176.9266,74.2007)">
      <path
         d="M 0,0 2.3,-6.27 7.92,-21.6 H -3.31 -7.92 Z m 4.12,2.87 -1.16,3.1 h -5.93 l -7.45,-19.89 -4.91,-2.53 2.81,-2.98 -7,-18.72 h 3.03 2.34 l 4.29,11.39 H 9.85 l 1.74,-4.6 h 0.14 l 2.56,-6.79 h 5.22 z"
         style="fill:#000000;fill-opacity:1;fill-rule:nonzero;stroke:none"
         id="path96" />
    </g>
    <g
       id="g98"
       transform="translate(256.6466,80.1707)">
      <path
         d="M 0,0 V -19.2 L -3.41,-22.16 0,-25.18 v -0.73 -18.15 h 1.64 24.42 v 2.07 3.09 H 8.3 5.15 v 14.14 h 16.12 v 2.06 3.09 H 8.3 5.15 V -5.16 H 26.06 V -3.1 0 Z"
         style="fill:#000000;fill-opacity:1;fill-rule:nonzero;stroke:none"
         id="path100" />
    </g>
    <g
       id="g102"
       transform="translate(318.1466,80.1707)">
      <path
         d="m 0,0 -12.81,-18.94 -0.34,-0.5 -11.16,16.34 -2.12,3.1 h -5.8 l 2.06,-3.1 14.34,-21.63 v -1.58 -17.81 h 1.65 3.51 v 19.39 L 3.74,-3.1 5.8,0 Z"
         style="fill:#000000;fill-opacity:1;fill-rule:nonzero;stroke:none"
         id="path104" />
    </g>
    <g
       id="g106"
       transform="translate(330.9466,80.1707)">
      <path
         d="M 0,0 V -19.2 L -3.41,-22.16 0,-25.18 v -0.7 -18.18 h 1.64 24.43 v 2.07 3.09 H 8.3 5.16 v 14.14 h 16.12 v 2.06 3.09 H 8.3 5.16 V -5.16 H 26.07 V -3.1 0 Z"
         style="fill:#000000;fill-opacity:1;fill-rule:nonzero;stroke:none"
         id="path108" />
    </g>
    <g
       id="g110">
      <g
         id="g112"
         clip-path="url(#clipPath116)">
        <g
           id="g118"
           transform="translate(152.2734,14.8933)">
          <path
             d="M 0,0 C -0.232,0.244 -0.51,0.434 -0.834,0.57 -1.158,0.706 -1.52,0.774 -1.92,0.774 -2.32,0.774 -2.682,0.706 -3.006,0.57 -3.33,0.434 -3.608,0.244 -3.84,0 -4.072,-0.244 -4.25,-0.534 -4.374,-0.87 -4.498,-1.206 -4.56,-1.57 -4.56,-1.962 c 0,-0.4 0.062,-0.767 0.186,-1.098 0.124,-0.332 0.302,-0.62 0.534,-0.864 0.232,-0.244 0.51,-0.434 0.834,-0.57 0.324,-0.136 0.686,-0.204 1.086,-0.204 0.4,0 0.762,0.068 1.086,0.204 0.324,0.136 0.602,0.326 0.834,0.57 0.232,0.244 0.41,0.532 0.534,0.864 0.124,0.331 0.186,0.698 0.186,1.098 0,0.392 -0.062,0.756 -0.186,1.092 C 0.41,-0.534 0.232,-0.244 0,0"
             style="fill:#000000;fill-opacity:1;fill-rule:nonzero;stroke:none"
             id="path120" />
        </g>
        <g
           id="g122"
           transform="translate(338.4821,8.6833)">
          <path
             d="m 0,0 h -5.988 v 8.496 h 5.772 V 6.768 h -3.9 V 5.184 h 3.684 V 3.456 H -4.116 V 1.728 l 4.116,0 z m -44.576,0 h -5.988 v 8.496 h 5.772 V 6.768 h -3.9 V 5.184 h 3.684 V 3.456 h -3.684 V 1.728 h 4.116 z m -48.097,6.768 h -3.828 V 5.04 h 3.54 V 3.312 h -3.54 V 0 h -1.873 v 8.496 h 5.701 z m -46.682,0 h -3.828 V 5.04 h 3.54 V 3.312 h -3.54 V 0 h -1.873 v 8.496 h 5.701 z M -183.887,2.4 c -0.228,-0.552 -0.546,-1.022 -0.954,-1.41 -0.408,-0.388 -0.892,-0.686 -1.452,-0.894 -0.56,-0.208 -1.172,-0.312 -1.836,-0.312 -0.664,0 -1.276,0.104 -1.836,0.312 -0.56,0.208 -1.044,0.506 -1.452,0.894 -0.408,0.388 -0.726,0.858 -0.954,1.41 -0.228,0.552 -0.342,1.168 -0.342,1.848 0,0.68 0.114,1.296 0.342,1.848 0.228,0.552 0.546,1.022 0.954,1.41 0.408,0.388 0.892,0.685 1.452,0.894 0.56,0.208 1.172,0.312 1.836,0.312 0.664,0 1.276,-0.104 1.836,-0.312 0.56,-0.209 1.044,-0.506 1.452,-0.894 0.408,-0.388 0.726,-0.858 0.954,-1.41 0.228,-0.552 0.342,-1.168 0.342,-1.848 0,-0.68 -0.114,-1.296 -0.342,-1.848 m -44.309,-2.256 c -0.551,-0.24 -1.12,-0.36 -1.703,-0.36 -0.665,0 -1.277,0.104 -1.837,0.312 -0.56,0.208 -1.044,0.506 -1.451,0.894 -0.409,0.388 -0.727,0.858 -0.955,1.41 -0.228,0.552 -0.341,1.168 -0.341,1.848 0,0.68 0.113,1.296 0.341,1.848 0.228,0.552 0.546,1.022 0.955,1.41 0.407,0.388 0.891,0.685 1.451,0.894 0.56,0.208 1.172,0.312 1.837,0.312 0.239,0 0.489,-0.023 0.75,-0.066 0.259,-0.044 0.515,-0.114 0.767,-0.21 0.253,-0.096 0.494,-0.224 0.726,-0.384 0.232,-0.16 0.44,-0.356 0.624,-0.588 l -1.44,-1.176 c -0.184,0.224 -0.41,0.396 -0.677,0.516 -0.269,0.12 -0.578,0.18 -0.931,0.18 -0.352,0 -0.678,-0.068 -0.978,-0.204 -0.299,-0.136 -0.56,-0.326 -0.779,-0.57 -0.221,-0.244 -0.392,-0.534 -0.516,-0.87 -0.124,-0.336 -0.186,-0.7 -0.186,-1.092 0,-0.4 0.062,-0.767 0.186,-1.098 0.124,-0.332 0.293,-0.62 0.509,-0.864 0.217,-0.244 0.471,-0.434 0.763,-0.57 0.292,-0.136 0.605,-0.204 0.941,-0.204 0.385,0 0.725,0.08 1.02,0.24 0.296,0.16 0.54,0.384 0.732,0.672 l 1.56,-1.164 c -0.359,-0.504 -0.815,-0.876 -1.368,-1.116 m -24.911,-7.646 H 23.251 v 23.501 h -276.358 z"
             style="fill:#000000;fill-opacity:1;fill-rule:nonzero;stroke:none"
             id="path124" />
        </g>
        <g
           id="g126"
           transform="translate(40.3813,76.6492)">
          <path
             d="m 0,0 c -19.733,0 -35.787,-16.054 -35.787,-35.787 0,-19.733 16.054,-35.788 35.787,-35.788 19.733,0 35.787,16.055 35.787,35.788 C 35.787,-16.054 19.733,0 0,0 m 0,-74.414 c -21.299,0 -38.627,17.328 -38.627,38.627 0,21.299 17.328,38.627 38.627,38.627 21.299,0 38.627,-17.328 38.627,-38.627 0,-21.299 -17.328,-38.627 -38.627,-38.627"
             style="fill:#000000;fill-opacity:1;fill-rule:nonzero;stroke:none"
             id="path128" />
        </g>
        <g
           id="g130"
           transform="translate(54.3999,17.1194)">
          <path
             d="m 0,0 h -12.959 l -6.588,11.403 6.48,11.224 13.067,0 6.536,-11.313 z m -34.556,12.485 -6.587,11.402 6.48,11.225 h 13.066 l 6.536,-11.313 -6.536,-11.314 z m 21.461,35.11 H -0.028 L 6.508,36.282 -0.028,24.968 h -12.959 l -6.588,11.403 z m -0.868,9.368 c -18.317,0 -33.165,-14.849 -33.165,-33.165 0,-18.316 14.848,-33.165 33.165,-33.165 18.316,0 33.165,14.849 33.165,33.165 0,18.316 -14.849,33.165 -33.165,33.165"
             style="fill:#000000;fill-opacity:1;fill-rule:nonzero;stroke:none"
             id="path132" />
        </g>
      </g>
    </g>
  </g>
</svg>
