<svg width="810" height="725" viewBox="0 0 810 725" fill="none" xmlns="http://www.w3.org/2000/svg">
<path d="M341.214 106.066C399.793 47.4874 494.767 47.4874 553.346 106.066L703.253 255.973C761.831 314.551 761.831 409.526 703.253 468.105L553.346 618.011C494.767 676.59 399.793 676.59 341.214 618.011L191.307 468.105C132.729 409.526 132.729 314.551 191.307 255.973L341.214 106.066Z" fill="#7429E8"/>
<path d="M255.973 106.066C314.551 47.4874 409.526 47.4874 468.105 106.066L618.011 255.973C676.59 314.551 676.59 409.526 618.011 468.105L468.105 618.011C409.526 676.59 314.551 676.59 255.973 618.011L106.066 468.105C47.4874 409.526 47.4874 314.551 106.066 255.973L255.973 106.066Z" fill="#4A74FF"/>
<path d="M219.4 320.4L176.2 422C175.267 424.533 173.8 426.533 171.8 428C169.933 429.333 167.867 430 165.6 430C162 430 159.333 429 157.6 427C155.867 425 155 422.533 155 419.6C155 418.4 155.2 417.133 155.6 415.8L205.4 296.2C206.467 293.533 208.067 291.467 210.2 290C212.467 288.533 214.867 287.933 217.4 288.2C219.8 288.2 222 288.933 224 290.4C226.133 291.733 227.667 293.667 228.6 296.2L277.8 413.4C278.467 415.133 278.8 416.733 278.8 418.2C278.8 421.8 277.6 424.667 275.2 426.8C272.933 428.933 270.4 430 267.6 430C265.2 430 263 429.267 261 427.8C259.133 426.333 257.667 424.333 256.6 421.8L213.6 321.6L219.4 320.4ZM182.4 397.6L193.4 374.6H247.4L251.2 397.6H182.4ZM392.758 295.8C396.224 297.533 398.224 300.267 398.758 304C399.424 307.733 398.491 311.133 395.958 314.2C394.224 316.6 391.958 317.933 389.158 318.2C386.491 318.467 383.758 317.933 380.958 316.6C377.758 315.133 374.358 314 370.758 313.2C367.291 312.4 363.624 312 359.758 312C352.558 312 346.091 313.133 340.358 315.4C334.758 317.667 329.958 320.933 325.958 325.2C321.958 329.333 318.891 334.267 316.758 340C314.758 345.733 313.758 352.067 313.758 359C313.758 367.133 314.891 374.2 317.158 380.2C319.558 386.2 322.824 391.2 326.958 395.2C331.091 399.2 335.958 402.2 341.558 404.2C347.158 406.067 353.224 407 359.758 407C363.358 407 366.958 406.667 370.558 406C374.158 405.333 377.624 404.133 380.958 402.4C383.758 401.067 386.491 400.6 389.158 401C391.958 401.4 394.291 402.8 396.158 405.2C398.824 408.533 399.758 412 398.958 415.6C398.291 419.067 396.291 421.6 392.958 423.2C389.491 424.933 385.891 426.4 382.158 427.6C378.558 428.667 374.891 429.467 371.158 430C367.424 430.667 363.624 431 359.758 431C350.158 431 341.024 429.467 332.358 426.4C323.824 423.333 316.158 418.8 309.358 412.8C302.691 406.8 297.424 399.333 293.558 390.4C289.691 381.333 287.758 370.867 287.758 359C287.758 348.733 289.491 339.267 292.958 330.6C296.558 321.933 301.558 314.467 307.958 308.2C314.491 301.8 322.158 296.867 330.958 293.4C339.758 289.8 349.358 288 359.758 288C365.624 288 371.358 288.667 376.958 290C382.558 291.333 387.824 293.267 392.758 295.8ZM432.748 288.8C434.615 288.8 436.548 289.333 438.548 290.4C440.682 291.333 442.282 292.6 443.348 294.2L491.948 369L481.948 368.6L531.748 294.2C534.282 290.6 537.548 288.8 541.548 288.8C544.748 288.8 547.615 289.933 550.148 292.2C552.682 294.467 553.948 297.4 553.948 301V416.8C553.948 420.267 552.815 423.2 550.548 425.6C548.282 427.867 545.282 429 541.548 429C537.815 429 534.748 427.867 532.348 425.6C530.082 423.2 528.948 420.267 528.948 416.8V322.6L536.748 324.4L495.948 386.6C494.748 388.067 493.215 389.333 491.348 390.4C489.615 391.467 487.815 391.933 485.948 391.8C484.215 391.933 482.415 391.467 480.548 390.4C478.815 389.333 477.348 388.067 476.148 386.6L437.948 326.2L443.148 315.6V416.8C443.148 420.267 442.082 423.2 439.948 425.6C437.815 427.867 435.015 429 431.548 429C428.215 429 425.482 427.867 423.348 425.6C421.215 423.2 420.148 420.267 420.148 416.8V301C420.148 297.667 421.348 294.8 423.748 292.4C426.282 290 429.282 288.8 432.748 288.8Z" fill="white"/>
</svg>
