<svg width="188" height="54" viewBox="0 0 188 54" fill="none" xmlns="http://www.w3.org/2000/svg">
<mask id="mask0_4_125" style="mask-type:luminance" maskUnits="userSpaceOnUse" x="0" y="0" width="188" height="54">
<path d="M188 0H0V54H188V0Z" fill="white"/>
</mask>
<g mask="url(#mask0_4_125)">
<path d="M69.7732 28.5164H72.2201V29.4637C72.2201 30.5769 73.1744 31.5006 74.3244 31.5006H75.9638C77.2118 31.5006 78.0927 30.7427 78.0927 29.7006C78.0927 26.4321 70.0179 25.7216 70.0179 21.2216C70.0179 18.9006 71.902 17.29 74.5691 17.29H75.7191C78.2395 17.29 80.2949 19.2558 80.2949 21.6953V22.4058H77.848V21.6953C77.848 20.5585 76.8936 19.6585 75.7191 19.6585H74.5691C73.2478 19.6585 72.4648 20.2506 72.4648 21.2216C72.4648 23.7321 80.5396 24.7032 80.5396 29.7006C80.5396 32.069 78.5575 33.869 75.9638 33.869H74.3244C71.8042 33.869 69.7732 31.9032 69.7732 29.4637V28.5164Z" fill="white"/>
<path d="M92.5199 24.1585H87.9931V29.6058C87.9931 30.6716 88.8495 31.5006 89.9507 31.5006H92.5199V33.869H89.9507C87.5038 33.869 85.5462 31.9742 85.5462 29.6058V24.1585H81.7535V21.79H85.5462V18.7111H87.9931V21.79H92.5199V24.1585Z" fill="white"/>
<path d="M102.665 21.79H105.112V33.869H102.665V32.5427L100.634 33.869H98.7504C96.3275 33.869 94.3455 31.9506 94.3455 29.6058V26.0532C94.3455 23.6848 96.3275 21.79 98.7504 21.79H100.634L102.665 23.1164V21.79ZM99.8755 31.5006L102.665 29.6769V25.9821L99.8755 24.1585H98.7504C97.6737 24.1585 96.7924 25.0111 96.7924 26.0532V29.6058C96.7924 30.6479 97.6737 31.5006 98.7504 31.5006H99.8755Z" fill="white"/>
<path d="M116.481 21.79H118.927V34.5558C118.927 36.9006 116.97 38.8427 114.523 38.8427H112.566C110.143 38.8427 108.161 36.9006 108.161 34.5558H110.608C110.608 35.5979 111.489 36.4506 112.566 36.4506H114.523C115.6 36.4506 116.481 35.5979 116.481 34.5558V32.5427L114.449 33.869H112.566C110.143 33.869 108.161 31.9506 108.161 29.6058V26.0532C108.161 23.6848 110.143 21.79 112.566 21.79H114.449L116.481 23.1164V21.79ZM113.691 31.5006L116.481 29.6769V25.9821L113.691 24.1585H112.566C111.489 24.1585 110.608 25.0111 110.608 26.0532V29.6058C110.608 30.6479 111.489 31.5006 112.566 31.5006H113.691Z" fill="white"/>
<path d="M132.743 25.8164V28.3742H124.423V29.5821C124.423 30.6242 125.304 31.4769 126.381 31.4769H128.338C129.415 31.4769 130.296 30.6242 130.296 29.5821V29.3453H132.743V29.5821C132.743 31.9269 130.785 33.869 128.338 33.869H126.381C123.959 33.869 121.976 31.9269 121.976 29.5821V26.0532C121.976 23.6848 123.959 21.79 126.381 21.79H128.338C130.712 21.79 132.62 23.5664 132.743 25.8164ZM130.296 26.4795V26.0532C130.296 24.9874 129.44 24.1585 128.338 24.1585H126.381C125.28 24.1585 124.423 25.0111 124.423 26.0532V26.4795H130.296Z" fill="white"/>
<path d="M142.154 21.79C144.576 21.79 146.559 23.6848 146.559 26.0532V33.869H144.112V26.0532C144.112 25.0111 143.231 24.1585 142.154 24.1585H141.028L138.239 25.9821V33.869H135.792V17.0532H138.239V23.1163L140.269 21.79H142.154Z" fill="white"/>
<path d="M157.927 21.79H160.374V33.869H157.927V32.5427L155.896 33.869H154.012C151.589 33.869 149.607 31.9506 149.607 29.6058V26.0532C149.607 23.6848 151.589 21.79 154.012 21.79H155.896L157.927 23.1164V21.79ZM155.138 31.5006L157.927 29.6769V25.9821L155.138 24.1585H154.012C152.935 24.1585 152.054 25.0111 152.054 26.0532V29.6058C152.054 30.6479 152.935 31.5006 154.012 31.5006H155.138Z" fill="white"/>
<path d="M169.784 21.79C172.207 21.79 174.189 23.6848 174.189 26.0532V33.869H171.742V26.0532C171.742 25.0111 170.861 24.1585 169.784 24.1585H168.659L165.869 25.9821V33.869H163.422V21.79H165.869V23.1164L167.9 21.79H169.784Z" fill="white"/>
<path d="M185.558 17.0532H188.005V33.869H185.558V32.5427L183.527 33.869H181.643C179.22 33.869 177.238 31.9506 177.238 29.6058V26.0532C177.238 23.6848 179.22 21.79 181.643 21.79H183.527L185.558 23.1163V17.0532ZM182.768 31.5006L185.558 29.6769V25.9821L182.768 24.1585H181.643C180.566 24.1585 179.685 25.0111 179.685 26.0532V29.6058C179.685 30.6479 180.566 31.5006 181.643 31.5006H182.768Z" fill="white"/>
<path d="M0.5 0.5H54.7371V53.5H0.5V0.5Z" stroke="white"/>
<path d="M39.5215 32.7254C39.534 32.9993 39.5315 33.2854 39.519 33.5764C39.534 33.2927 39.534 33.0067 39.5215 32.7254ZM20.4493 23.1767C20.4493 23.1767 20.4518 23.1767 20.4518 23.1816C20.4643 23.1083 20.4768 23.0349 20.4918 22.9591C20.4743 23.0325 20.4618 23.1034 20.4493 23.1767ZM20.4918 22.9591C20.5219 22.8124 20.5568 22.6632 20.5994 22.519C20.5568 22.6608 20.5193 22.8075 20.4918 22.9591Z" fill="white"/>
<path d="M39.519 33.5758C39.5116 33.7323 39.5016 33.8912 39.4891 34.0501C39.4591 34.395 39.419 34.7422 39.3665 35.0845C39.354 35.1701 39.339 35.2532 39.3265 35.3339C39.304 35.4684 39.279 35.6029 39.2539 35.7325C39.2539 35.7521 39.2464 35.7692 39.2439 35.7863C39.2164 35.9256 39.1864 36.0699 39.1564 36.2142C39.1389 36.2852 39.1238 36.3585 39.1064 36.4318C39.0539 36.6495 38.9988 36.8647 38.9413 37.0725C38.8938 37.2461 38.8437 37.4124 38.7912 37.5688C38.7187 37.7914 38.6412 37.9919 38.566 38.1533C38.5461 38.1949 38.526 38.2364 38.5061 38.2731C38.476 38.3318 38.4461 38.3832 38.4186 38.4271C37.1654 43.4864 33.6661 45.9512 27.7306 45.9512C27.5355 45.9512 27.3379 45.9488 27.1378 45.9439C19.7465 45.7459 17.4404 41.6622 16.9101 40.4127C15.9746 38.2193 15.4593 32.4828 15.4593 29.3552C15.4593 26.4675 14.8115 23.626 14.804 23.5967L14.7564 23.3571C14.4613 21.929 14.0186 19.7723 13.4834 17.5105C13.2032 16.3196 13.4208 15.2144 14.0836 14.4808C14.6389 13.8646 15.4669 13.5761 16.4148 13.6665C18.5409 13.8744 19.0711 16.4688 19.3864 18.019C19.5014 18.5766 19.5914 19.1635 19.6815 19.7332C19.8665 20.9069 20.0567 22.1174 20.4493 23.1761C20.4493 23.1761 20.4502 23.1777 20.4519 23.1811C20.4644 23.1076 20.4769 23.0343 20.4919 22.9585C20.5219 22.8118 20.5569 22.6627 20.5995 22.5184C20.6219 22.445 20.6445 22.3741 20.6695 22.3031C20.692 22.242 20.717 22.1809 20.742 22.1222C20.757 22.088 20.772 22.0538 20.7896 22.0195C20.7996 21.9926 20.8146 21.9657 20.8271 21.9389C20.847 21.9021 20.8671 21.8654 20.8871 21.8312C20.8921 21.819 20.8996 21.8068 20.9097 21.797C20.9296 21.7579 20.9521 21.7212 20.9771 21.687C21.0097 21.6356 21.0446 21.5892 21.0822 21.5451C21.9126 20.5303 22.778 20.5303 23.3534 20.5303C23.656 20.5303 25.1192 20.5915 25.8771 21.6992C25.9271 21.775 25.9747 21.8532 26.0172 21.9364C26.0522 21.7505 26.0897 21.5843 26.1348 21.4424C26.2123 21.1882 26.3224 20.9656 26.4525 20.77C26.4749 20.7382 26.4974 20.7064 26.52 20.6746C26.5675 20.6135 26.6175 20.5549 26.6675 20.4986C27.2528 19.8555 28.1208 19.6085 28.8261 19.6085C28.9637 19.6085 29.1388 19.6158 29.3389 19.6427C29.379 19.6477 29.419 19.6525 29.459 19.6622C29.4965 19.6672 29.534 19.6721 29.5715 19.6819C29.6316 19.6916 29.6916 19.7063 29.7516 19.721C29.8142 19.7357 29.8767 19.7527 29.9392 19.7723C30.0342 19.8017 30.1318 19.8334 30.2293 19.875C30.2594 19.8872 30.2919 19.9019 30.3244 19.9166C30.3569 19.9313 30.3894 19.946 30.422 19.963C30.8097 20.1514 31.1948 20.4423 31.505 20.88C31.5325 20.9168 31.5575 20.9534 31.5825 20.9925C31.565 20.4301 31.535 19.7821 31.505 19.0803C31.4175 17.0018 31.3149 14.6471 31.4074 12.8278C31.5751 9.56339 32.6056 8.04245 34.6491 8.04245C37.1154 8.04245 37.4005 10.6931 37.4005 12.6884C37.4005 15.6766 37.4005 19.7699 37.6507 23.1859C37.6757 23.5356 37.7032 23.9684 37.7331 24.4477C37.8282 25.9417 37.9582 27.9859 38.1484 29.2819C38.1784 29.4726 38.2159 29.7171 38.261 30.0008C38.271 30.0082 38.2809 30.0179 38.2884 30.0277C38.501 30.2185 38.6937 30.419 38.8563 30.6268C38.8862 30.6635 38.9112 30.6978 38.9362 30.7344C39.0389 30.8738 39.1264 31.0156 39.1989 31.1624C39.2164 31.199 39.2339 31.2357 39.249 31.2699C39.2814 31.3408 39.3089 31.4142 39.3339 31.4876C39.3464 31.5242 39.359 31.5609 39.369 31.5976C39.379 31.6342 39.389 31.6709 39.3965 31.7077C39.434 31.869 39.4616 32.0402 39.4815 32.2137C39.494 32.3214 39.5041 32.4314 39.5116 32.5439C39.5166 32.6025 39.5216 32.6637 39.5216 32.7248C39.5341 32.9987 39.5315 33.2848 39.519 33.5758Z" fill="#FFC83C"/>
<path d="M20.4918 22.9591C20.5219 22.8124 20.5568 22.6632 20.5994 22.519C20.5568 22.6608 20.5193 22.8075 20.4918 22.9591ZM20.4493 23.1767C20.4493 23.1767 20.4518 23.1767 20.4518 23.1816C20.4643 23.1083 20.4768 23.0349 20.4918 22.9591C20.4743 23.0325 20.4618 23.1034 20.4493 23.1767ZM38.2934 37.4937C38.5035 36.8848 38.7336 35.9654 38.8787 34.9897C38.7286 35.9704 38.4935 36.8921 38.2934 37.4937ZM39.5215 32.7254C39.534 32.9993 39.5315 33.2854 39.519 33.5764C39.534 33.2927 39.534 33.0067 39.5215 32.7254Z" fill="black"/>
<path d="M39.5216 32.7248C39.5216 32.6637 39.5166 32.6025 39.5116 32.5439C39.5041 32.4314 39.494 32.3214 39.4815 32.2137C39.4616 32.0402 39.434 31.869 39.3965 31.7077C39.389 31.6709 39.379 31.6342 39.369 31.5976C39.359 31.5609 39.3464 31.5242 39.3339 31.4876C39.3089 31.4142 39.2814 31.3408 39.249 31.2699C39.2339 31.2357 39.2164 31.199 39.199 31.1624C39.1264 31.0156 39.0389 30.8738 38.9362 30.7344C38.9112 30.6978 38.8862 30.6635 38.8563 30.6268C38.6937 30.419 38.501 30.2185 38.2884 30.0277C38.2809 30.0179 38.271 30.0082 38.261 30.0008C38.2159 29.7171 38.1784 29.4726 38.1484 29.2819C37.9582 27.9859 37.8282 25.9417 37.7331 24.4477C37.7032 23.9684 37.6757 23.5356 37.6507 23.1859C37.4005 19.7699 37.4005 15.6766 37.4005 12.6884C37.4005 10.6931 37.1153 8.04245 34.6491 8.04245C32.6056 8.04245 31.5751 9.56339 31.4074 12.8278C31.3149 14.6471 31.4175 17.0018 31.505 19.0803C31.535 19.7821 31.565 20.4301 31.5825 20.9925C31.5575 20.9534 31.5325 20.9168 31.505 20.88C31.1948 20.4423 30.8097 20.1514 30.422 19.963C30.3894 19.946 30.3569 19.9313 30.3244 19.9166C30.2919 19.9019 30.2594 19.8872 30.2293 19.875C30.1318 19.8334 30.0342 19.8017 29.9392 19.7723C29.8767 19.7527 29.8142 19.7357 29.7516 19.721C29.6916 19.7063 29.6316 19.6916 29.5715 19.6819C29.534 19.6721 29.4965 19.6672 29.459 19.6622C29.419 19.6525 29.379 19.6477 29.3389 19.6427C29.1388 19.6158 28.9637 19.6085 28.8261 19.6085C28.1208 19.6085 27.2528 19.8555 26.6675 20.4986C26.6175 20.5549 26.5675 20.6135 26.52 20.6746C26.4974 20.7064 26.4749 20.7382 26.4525 20.77C26.3224 20.9656 26.2123 21.1882 26.1348 21.4424C26.0897 21.5843 26.0522 21.7505 26.0172 21.9364C25.9747 21.8532 25.9271 21.775 25.8771 21.6992C25.1192 20.5915 23.656 20.5303 23.3534 20.5303C22.778 20.5303 21.9126 20.5303 21.0822 21.5451C21.0446 21.5892 21.0097 21.6356 20.9771 21.687C20.9521 21.7212 20.9296 21.7579 20.9097 21.797C20.8996 21.8068 20.8921 21.819 20.8871 21.8312C20.8671 21.8654 20.8471 21.9021 20.8271 21.9389C20.8146 21.9657 20.7996 21.9926 20.7896 22.0195C20.772 22.0538 20.757 22.088 20.742 22.1222C20.717 22.1809 20.692 22.242 20.6695 22.3031C20.6445 22.3741 20.6219 22.445 20.5995 22.5184C20.5569 22.6627 20.5219 22.8118 20.4919 22.9585C20.4769 23.0343 20.4644 23.1076 20.4519 23.1811C20.4519 23.1811 20.4511 23.1794 20.4493 23.1761C20.0567 22.1174 19.8665 20.9069 19.6815 19.7332C19.5914 19.1635 19.5014 18.5766 19.3864 18.019C19.0711 16.4688 18.5409 13.8744 16.4148 13.6665C15.4669 13.5761 14.6389 13.8646 14.0836 14.4808C13.4208 15.2144 13.2032 16.3196 13.4834 17.5105C14.0186 19.7723 14.4613 21.929 14.7564 23.3571L14.804 23.5967C14.8115 23.626 15.4593 26.4675 15.4593 29.3552C15.4593 32.4828 15.9746 38.2193 16.9101 40.4127C17.4404 41.6622 19.7465 45.7459 27.1378 45.9439C27.3379 45.9488 27.5355 45.9512 27.7306 45.9512C33.6661 45.9512 37.1654 43.4864 38.4186 38.4271C38.4461 38.3832 38.476 38.3318 38.5061 38.2731C38.526 38.2364 38.5461 38.1949 38.5661 38.1533C38.6412 37.9919 38.7187 37.7914 38.7912 37.5688C38.8437 37.4124 38.8938 37.2461 38.9413 37.0725C38.9988 36.8647 39.0539 36.6495 39.1064 36.4318C39.1238 36.3585 39.1389 36.2852 39.1564 36.2142C39.1864 36.0699 39.2164 35.9256 39.2439 35.7863C39.2464 35.7692 39.2515 35.7521 39.2539 35.7325C39.279 35.6029 39.304 35.4684 39.3265 35.3339C39.339 35.2532 39.354 35.1701 39.3665 35.0845C39.419 34.7422 39.459 34.395 39.4891 34.0501C39.5016 33.8912 39.5116 33.7323 39.519 33.5758C39.5315 33.2848 39.5341 32.9987 39.5216 32.7248ZM31.9077 12.8523C32.1053 9.023 33.476 8.5315 34.6491 8.5315C36.2049 8.5315 36.9002 9.81284 36.9002 12.6884C36.9002 15.564 36.9002 19.7895 37.1503 23.2202C37.1754 23.5698 37.2029 24.0001 37.2354 24.4794C37.3305 25.9808 37.4605 28.0373 37.6531 29.3529C37.6632 29.414 37.6731 29.48 37.6831 29.5509C36.1374 28.4579 33.9938 27.7732 33.0658 27.6093C32.8857 27.5776 32.5855 27.5555 32.2003 27.5385C32.3805 26.1373 32.448 23.8559 32.0953 22.2983C32.0978 22.2836 32.0978 22.2689 32.0978 22.2567C32.1103 21.5182 32.0628 20.3787 32.0052 19.0608C31.9177 16.9921 31.8176 14.6495 31.9077 12.8523ZM26.3649 23.1614V23.1565C26.3799 22.9292 26.3999 22.7115 26.4275 22.5062C26.4324 22.4523 26.44 22.401 26.4474 22.3521C26.4574 22.2762 26.4699 22.2029 26.4849 22.132C26.4974 22.0611 26.5099 21.9902 26.5275 21.9242C26.54 21.8606 26.555 21.7994 26.57 21.7383C26.5825 21.6845 26.5975 21.6332 26.6125 21.5843C26.9502 20.4864 28.0158 20.0976 28.8261 20.0976C29.3214 20.0976 30.4144 20.2149 31.0948 21.1636C31.1723 21.2688 31.2424 21.3862 31.3049 21.5133C31.3274 21.5549 31.3474 21.599 31.3674 21.6429C31.3875 21.687 31.4074 21.7358 31.425 21.7824C31.4599 21.8728 31.4925 21.9657 31.52 22.066C31.5825 22.2739 31.6351 22.5012 31.6801 22.7433C31.8026 23.4402 31.8527 24.2569 31.8527 25.0566C31.8527 25.9661 31.7901 26.8538 31.7001 27.5238C30.2894 27.4896 28.1958 27.5213 26.655 27.5532C26.5099 26.7682 26.4074 25.883 26.3624 25.0125C26.3299 24.3694 26.3273 23.7385 26.3649 23.1614ZM20.8646 24.1249C20.8671 24.049 20.8721 23.9732 20.8771 23.8975C20.8896 23.7092 20.9071 23.5258 20.9321 23.3473C20.9347 23.3351 20.9371 23.3252 20.9371 23.3155C20.9546 23.1981 20.9747 23.0832 20.9997 22.9756C21.0122 22.9169 21.0272 22.8582 21.0397 22.802C21.0672 22.6919 21.0972 22.5868 21.1348 22.489C21.1522 22.4377 21.1697 22.3888 21.1897 22.3423C21.2098 22.2934 21.2297 22.247 21.2523 22.2029C21.2748 22.1589 21.2973 22.1174 21.3199 22.0758C21.3673 21.9926 21.4173 21.9193 21.4724 21.8508C21.5149 21.7994 21.5575 21.7505 21.5999 21.7041C21.6425 21.6576 21.685 21.6136 21.7275 21.577C21.8125 21.4938 21.8951 21.4278 21.9777 21.3691C22.1952 21.2126 22.4078 21.127 22.613 21.0806H22.6155C22.6831 21.0634 22.7505 21.0512 22.818 21.0439C23.0031 21.0194 23.1808 21.0194 23.3534 21.0194C23.601 21.0194 24.7691 21.0659 25.4044 21.8924C25.4719 21.978 25.5319 22.0733 25.5845 22.176C25.6045 22.2151 25.622 22.2542 25.6395 22.2909C25.6871 22.3936 25.7246 22.4915 25.7521 22.5892C25.7646 22.6186 25.7721 22.6504 25.7796 22.6797C25.7921 22.7188 25.7996 22.7555 25.8071 22.7923C25.8171 22.8314 25.8246 22.8705 25.8322 22.9096C25.8371 22.9463 25.8447 22.9805 25.8496 23.0172C25.8546 23.0588 25.8597 23.1028 25.8621 23.1443C25.8697 23.2079 25.8746 23.2715 25.8771 23.3351C25.8771 23.3497 25.8796 23.3644 25.8796 23.3791C25.8771 23.3815 25.8771 23.3864 25.8796 23.3888C25.8746 23.4891 25.8722 23.5918 25.8697 23.697V23.7361C25.8671 23.8314 25.8646 23.9268 25.8646 24.0246V24.1909C25.8646 24.2985 25.8671 24.4061 25.8697 24.5161C25.8697 24.6262 25.8746 24.7362 25.8796 24.8487C25.8921 25.2742 25.9197 25.7094 25.9597 26.1471C25.9922 26.4919 26.0472 27.0079 26.1397 27.5654C25.3068 27.5849 24.724 27.602 24.644 27.6045C23.7736 27.6045 22.8931 28.1913 22.8931 29.3161C22.8931 29.6243 22.9582 29.9837 23.0907 30.3554C22.6005 30.1573 22.0827 29.7465 21.6975 28.8026C21.5249 28.3821 21.3824 27.9542 21.2648 27.4822C21.1447 27.0127 21.0472 26.4992 20.9597 25.9075C20.8796 25.3549 20.8421 24.7289 20.8646 24.1249ZM39.0313 33.3631C39.0288 33.4828 39.0238 33.6051 39.0163 33.7274C39.0163 33.7347 39.0139 33.7445 39.0139 33.7543C39.0063 33.879 38.9963 34.0037 38.9863 34.1284C38.9838 34.1431 38.9838 34.1577 38.9813 34.1724C38.9563 34.4414 38.9213 34.7128 38.8813 34.9794C38.8813 34.9842 38.8813 34.9867 38.8788 34.9891C38.7337 35.9647 38.5035 36.8842 38.2934 37.493C38.2559 37.6031 38.2184 37.7058 38.1834 37.7938C38.1659 37.8404 38.1459 37.8843 38.1284 37.9234C38.1033 37.9822 38.0808 38.0311 38.0558 38.0726C38.0334 38.1191 38.0108 38.1533 37.9883 38.1753C37.9883 38.1777 37.9832 38.1826 37.9808 38.1851L37.9358 38.2437V38.2976C37.4781 40.1633 36.0899 45.692 27.1528 45.4548C20.0617 45.2666 17.8731 41.4055 17.3703 40.2269C16.4624 38.0897 15.9596 32.4437 15.9596 29.3552C15.9596 26.2669 15.2992 23.5184 15.2943 23.494L15.2467 23.2592C14.9516 21.8312 14.5063 19.6696 13.9686 17.4004C13.731 16.3808 13.9135 15.41 14.4588 14.8036C14.854 14.3659 15.4044 14.1384 16.0647 14.1384C16.1622 14.1384 16.2623 14.1434 16.3648 14.1556C17.9856 14.3121 18.5209 16.283 18.8961 18.1169C19.0086 18.6622 19.0986 19.2442 19.1863 19.8065C19.4014 21.171 19.6215 22.5795 20.1617 23.7898C20.2092 23.8975 20.2768 23.9977 20.3618 24.0931C20.3343 24.7436 20.3794 25.4062 20.4644 25.9759C20.642 27.2035 20.8721 28.1033 21.2348 28.9861C21.685 30.0864 22.3629 30.7173 23.3608 30.9496C23.7861 31.7174 24.5139 32.4338 25.577 32.7298C26.4849 32.984 27.5655 32.984 28.5209 32.984C29.3814 32.984 30.1969 32.984 30.5095 33.187C31.1774 33.6223 31.1649 34.0795 31.1498 34.5196C31.1498 34.5784 31.1473 34.6395 31.1473 34.6957H31.6476C31.6476 34.6444 31.6501 34.5881 31.6501 34.5319C31.6651 34.0404 31.6851 33.3655 30.7846 32.7811C30.3469 32.495 29.5415 32.495 28.5209 32.495C27.6005 32.495 26.555 32.495 25.7121 32.2603C24.9491 32.0475 24.3814 31.5682 24.0012 31.0278C23.8836 30.8616 23.7835 30.6879 23.7011 30.5168C23.4934 30.0889 23.3934 29.6585 23.3934 29.3161C23.3934 28.4749 24.0412 28.0935 24.6515 28.0935C24.6715 28.0935 25.3093 28.0739 26.2248 28.0544C26.3924 28.0495 26.5675 28.0447 26.7501 28.0422C28.2634 28.0104 30.2669 27.9811 31.6226 28.0079C31.8026 28.0128 31.9703 28.0177 32.1253 28.0226C32.508 28.0373 32.8057 28.0592 32.9758 28.0886C34.0888 28.2867 36.3975 29.0888 37.7957 30.2478C37.8257 30.2747 37.8557 30.3016 37.8858 30.3285C37.9332 30.3676 37.9783 30.4067 38.0233 30.4532H38.0258C38.0633 30.4874 38.1009 30.5216 38.1334 30.5583C38.1409 30.5632 38.1459 30.5682 38.1484 30.573C38.1809 30.6048 38.2109 30.6341 38.2384 30.6659C38.2735 30.7026 38.3059 30.7393 38.3385 30.776C38.3685 30.8078 38.3935 30.8396 38.4186 30.8713C38.4461 30.9031 38.4686 30.9324 38.491 30.9643C38.516 30.9961 38.5386 31.0278 38.5586 31.0597C38.5836 31.0914 38.6036 31.1232 38.6211 31.155C38.6636 31.2161 38.6986 31.2797 38.7312 31.3433C38.7612 31.4019 38.7887 31.4607 38.8137 31.5193C38.8137 31.5267 38.8187 31.534 38.8212 31.5389C38.8337 31.5707 38.8437 31.6 38.8538 31.6318C38.8737 31.693 38.8913 31.7541 38.9063 31.8152C39.0113 32.2749 39.0463 32.8056 39.0313 33.3631Z" fill="black"/>
</g>
</svg>
