<svg width="614" height="205" viewBox="0 0 614 205" fill="none" xmlns="http://www.w3.org/2000/svg">
<path d="M6.98239 73.3899C6.90106 110.551 36.2357 138.951 71.5104 139.555C110.586 140.226 139.461 110.247 139.501 73.4339C139.54 35.9992 111.046 8.40057 75.9837 6.95391C36.2424 5.31391 6.37706 37.5392 6.98239 73.3899ZM145.336 145.338H0.650391V0.591236H145.336V145.338Z" fill="white"/>
<path d="M102.871 167.3C102.437 168.645 102.431 169.823 102.899 171.153C104.905 171.272 106.006 167.608 108.673 169.896C108.09 175.045 109.701 180.501 107.421 185.963C109.866 185.927 112.222 186.216 115.275 185.697C113.695 184.42 112.71 183.521 112.706 182.101C112.697 177.871 112.702 173.64 112.702 169.807C115.597 167.639 116.693 171.489 119.329 171.016C118.322 169.807 119.115 168.384 118.407 167.3H102.871ZM86.1952 171.001C86.3459 167.287 86.2525 167.167 82.9899 167.136C80.8645 167.117 78.7379 167.069 76.6152 167.149C74.3219 167.237 71.9792 166.749 69.6939 167.521C69.6952 168.825 69.3432 170.032 70.1019 171.299C71.9685 170.735 73.0819 167.88 75.7232 169.843C75.1152 174.984 76.7952 180.44 74.4139 185.949C76.8859 185.96 79.2325 186.171 82.0152 185.792C80.5085 184.095 79.7259 182.615 79.7352 180.811C79.7499 177.789 79.7405 174.768 79.7365 171.747C79.7352 170.843 79.6699 169.867 80.6645 169.423C81.7885 168.92 82.8139 169.132 83.6659 170.105C84.2592 170.783 84.9059 171.444 86.1952 171.001ZM105.117 185.833C103.337 184.156 102.654 182.604 101.851 181.104C99.5139 176.735 97.5845 172.177 95.4592 167.711C95.1885 167.144 95.0539 166.423 94.1272 166.484C93.1605 166.549 93.3672 167.339 93.0752 167.883C89.9619 173.685 88.5859 180.307 84.3179 186.001C86.5579 185.876 88.4685 186.281 91.0112 185.572C87.7139 183.799 90.0019 182.284 90.1659 180.624C91.4325 180.624 92.4352 180.621 93.4365 180.625C97.3232 180.637 98.2099 181.768 97.3765 185.799C99.6992 186.18 102.01 186.019 105.117 185.833ZM127.154 175.084C126.346 169.388 126.982 168.587 131.543 169.176C132.253 169.268 132.797 169.5 133.313 169.975C134.161 170.755 135.097 170.692 136.046 170.165C136.346 168.812 136.381 167.309 134.766 167.245C130.151 167.063 125.525 167.181 120.902 167.181C120.763 167.371 120.623 167.56 120.485 167.749C123.467 169.393 122.678 172.049 122.731 174.467C122.769 176.144 122.727 177.824 122.742 179.501C122.759 181.739 123.169 184.083 120.729 185.752C124.954 186.007 128.947 186.011 132.942 186.004C136.399 185.999 136.399 185.993 137.411 182.257C136.317 181.831 135.595 181.869 134.569 182.883C132.725 184.703 130.065 184.319 127.923 183.677C125.842 183.053 127.095 180.751 126.839 179.204C126.737 178.587 126.663 177.843 126.793 177.756C129.927 176.36 131.847 178.129 134.073 179.356C134.189 177.053 134.421 175.147 133.718 172.444C131.883 175.921 129.47 175.253 127.154 175.084ZM44.3659 161.759C38.8859 161.759 33.5219 161.752 28.1579 161.768C27.5325 161.771 26.7419 161.643 26.6419 162.612C26.5792 163.227 26.8125 163.608 27.4845 163.805C29.0539 164.265 29.2565 165.58 29.2592 166.956C29.2672 171.772 29.2539 176.589 29.2685 181.405C29.2725 182.596 29.1699 183.713 27.7019 183.924C26.8512 184.047 26.5379 184.461 26.6645 185.267C26.7845 186.036 27.4205 185.98 27.9472 185.985C30.4112 186.007 32.8739 186.005 35.3365 185.985C35.8672 185.981 36.4952 186.023 36.6112 185.256C36.7352 184.441 36.3992 184.033 35.5579 183.923C34.5179 183.787 34.0072 183.099 34.0272 182.065C34.0765 179.637 33.8099 177.189 34.1832 174.865C37.1712 173.859 39.4299 175.071 41.6792 177.012C42.2325 174.512 42.1979 172.583 41.7152 170.12C39.2592 171.687 36.8179 172.508 34.1965 171.484V164.567C37.8165 164.608 41.3952 163.48 44.1405 166.467C44.7832 165.983 44.7659 165.523 44.7512 165.096C44.7165 164.108 44.9445 163.095 44.3659 161.759ZM53.2059 186.963C54.2992 186.028 55.4725 185.66 56.4712 186.16C58.3205 187.088 60.2285 186.709 62.0725 186.617C65.0445 186.469 67.1712 184.851 68.5165 182.133C69.8179 179.505 68.5659 177.321 67.2685 175.316C66.1832 173.639 64.2019 172.805 62.4339 171.915C60.5459 170.965 58.7552 169.927 57.1872 168.496C56.2459 167.637 55.8659 166.608 56.3939 165.504C56.8805 164.488 57.7339 163.9 59.0312 163.767C62.0952 163.451 63.7192 165.119 65.0539 167.519C65.4192 168.176 65.5405 169.483 66.8232 169.105C68.2712 168.679 67.8125 167.201 67.5005 166.591C66.7352 165.093 67.2285 163.485 66.7219 161.857C64.7872 161.963 62.9392 161.841 61.0459 161.248C57.9699 160.283 53.7725 162.337 52.6019 164.969C51.2445 168.02 52.1725 170.735 55.1392 173.259C56.9205 174.773 58.9432 175.896 60.8445 177.208C61.8819 177.923 62.7392 178.744 63.4899 179.711C64.4792 180.985 64.2285 182.477 63.1219 183.209C61.8819 184.029 60.5285 185.147 58.6032 184.164C56.5672 183.123 54.6992 182.049 53.8032 179.852C53.4072 178.881 52.9165 178.329 51.5859 178.821C51.2112 181.539 52.1339 184.067 53.2059 186.963ZM9.3992 186.868C11.4125 186.108 13.0272 185.987 14.8312 186.56C16.2565 187.013 17.9779 186.879 19.4979 186.609C22.5619 186.067 25.5339 183.379 25.3419 179.724C25.1712 176.508 23.4805 174.659 21.0125 173.141C18.8565 171.816 16.6645 170.544 14.5552 169.148C12.3712 167.701 12.2912 166.023 14.2112 164.452C15.9379 163.04 18.9192 163.815 20.5765 165.853C21.4712 166.955 21.6285 168.845 23.5379 169.105C24.2059 167.827 23.9045 166.584 23.8992 165.396C23.8872 162.508 23.6245 162.267 20.7899 161.849C19.8125 161.705 18.8405 161.368 17.9085 161.215C13.7085 160.523 10.4779 162.135 8.85653 165.699C7.58453 168.495 8.88186 171.535 12.2632 173.84C13.0765 174.393 14.0019 174.785 14.7899 175.368C16.3912 176.553 18.0939 177.608 19.4192 179.152C21.0272 181.024 20.9179 182.583 18.8325 183.785C17.6032 184.495 16.4219 184.809 14.7912 184.143C12.7379 183.304 11.5792 181.832 10.6019 180.148C9.88052 178.903 9.24453 178.261 7.7152 178.979C8.26453 181.553 8.7872 184 9.3992 186.868ZM0.644531 149.084H145.343V204.609H0.644531V149.084Z" fill="white"/>
<path d="M466.252 139.653V147.634V155.637C471.012 156.142 474.983 155.93 477.717 151.741C479.641 148.793 479.421 145.767 477.675 143.159C475.073 139.271 470.925 139.095 466.252 139.653ZM454.416 175.253C455.095 174.659 455.668 174.739 456.217 174.689C459.047 174.43 459.779 173.754 459.789 171.011C459.827 161.719 459.824 152.427 459.791 143.137C459.781 140.506 459.22 139.855 456.581 139.457C455.331 139.269 454.384 139.046 454.553 137.483C455.289 136.721 456.229 137.039 457.064 137.033C461.988 136.999 466.912 136.997 471.835 137.023C475.205 137.041 478.399 137.75 481.335 139.511C486.703 142.733 486.927 150.083 482.491 154.186C481.225 155.357 479.761 156.35 477.757 156.934C479.968 160.863 482.511 164.238 485.085 167.613C487.653 170.979 490.141 174.361 494.653 175.634C491.165 176.767 487.877 176.365 484.617 176.339C483.789 176.333 483.344 175.506 482.871 174.898C479.481 170.543 476.288 166.05 473.281 161.419C471.068 158.013 471.007 158.051 466.301 158.534C466.301 162.906 466.191 167.345 466.356 171.773C466.42 173.473 467.756 174.419 469.485 174.687C470.248 174.806 471.395 174.249 471.552 175.677C468.737 176.959 456.015 176.729 454.416 175.253Z" fill="white"/>
<path d="M557.981 166.496C557.981 158.897 558.067 151.733 557.945 144.572C557.881 140.912 556.938 140.052 553.223 139.434C552.099 139.248 551.095 138.993 550.585 137.822C552.599 136.856 561.81 136.613 566.253 137.372C566.651 138.509 565.898 138.616 565.067 138.832C560.805 139.942 560.439 142.286 560.417 145.753C560.363 154.378 560.399 163.005 560.399 171.63C560.399 173.39 560.399 175.15 560.399 177.664C555.669 174.634 552.539 170.86 549.305 167.338C546.059 163.808 542.778 160.321 539.41 156.91C536.005 153.464 532.449 150.165 528.793 146.598C528.793 148.684 528.793 150.769 528.793 152.853C528.793 158.23 528.778 163.608 528.798 168.985C528.814 173.172 529.794 174.229 533.962 174.705C534.393 174.754 534.829 174.861 535.226 175.025C535.355 175.078 535.371 175.404 535.435 175.606C533.018 176.905 521.466 176.782 519.761 175.438C519.803 174.841 520.271 174.756 520.707 174.729C524.073 174.522 525.459 173.888 525.618 169.45C525.915 161.17 525.751 152.873 525.674 144.584C525.65 141.934 523.961 140.124 521.386 139.409C520.286 139.105 519.059 138.988 518.221 137.902C519.057 136.494 520.295 137.197 521.279 137.02C526.411 136.096 530.077 138.001 533.631 141.912C540.462 149.426 547.306 156.968 554.749 163.91C555.622 164.725 556.314 165.772 557.981 166.496Z" fill="white"/>
<path d="M305.265 81.4272C308.594 80.9059 311.921 81.2886 315.227 81.1926C315.999 81.1699 316.574 81.5512 316.846 82.1672C317.603 83.8859 319.095 84.9446 320.375 86.1539C327.534 92.9179 333.71 100.629 340.882 107.375C341.754 108.197 342.454 109.237 343.803 109.847C344.271 108.954 344.131 108.073 344.134 107.242C344.147 100.965 344.162 94.6872 344.134 88.4099C344.117 84.4632 343.083 83.3752 339.09 82.9112C338.369 82.8272 337.391 83.0832 337.581 81.4819H352.403C352.614 82.4072 352.341 82.7299 351.662 82.8819C348.067 83.6886 347.251 84.6366 347.235 88.2486C347.203 95.8712 347.226 103.493 347.226 111.115C347.226 114.133 347.226 117.15 347.226 120.091C345.705 121.05 344.777 120.353 343.895 119.407C336.723 111.723 329.349 104.237 322.031 96.6952C319.883 94.4806 317.923 92.0699 315.511 89.8406C314.709 90.6592 314.965 91.5806 314.962 92.3832C314.935 98.6606 314.95 104.938 314.945 111.215C314.943 112.445 315.359 113.633 315.465 114.795C315.675 117.118 317.069 117.783 318.918 118.162C320.173 118.419 321.442 118.601 322.443 119.655C320.306 120.843 308.905 120.983 305.825 119.923C306.23 118.393 307.734 118.342 308.702 118.294C310.593 118.201 311.362 117.03 311.67 115.633C312.071 113.814 312.617 112.023 312.579 110.077C312.461 103.914 312.538 97.7472 312.535 91.5819C312.531 85.2752 311.886 84.4579 305.654 82.7566C305.293 82.6579 305.229 82.2912 305.265 81.4272Z" fill="white"/>
<path d="M359.753 137.242H375.245C375.739 138.868 374.311 139.279 373.613 139.282C370.495 139.288 370.487 141.63 370.138 143.642C369.931 144.839 370.09 146.099 370.09 147.331C370.089 156.627 370.09 165.923 370.079 175.219C370.078 175.766 369.973 176.312 369.921 176.814C368.766 177.255 367.759 177.251 367.182 176.176C366.039 174.047 364.153 172.604 362.471 171.006C355.021 163.912 348.529 155.896 341.035 148.85C340.167 148.034 339.475 146.987 338.081 146.398C337.639 147.814 337.826 149.13 337.821 150.408C337.798 155.896 337.894 161.387 337.763 166.871C337.722 168.6 338.205 170.179 338.595 171.762C339.071 173.69 340.791 174.398 342.646 174.68C343.535 174.816 344.647 174.362 345.243 175.542C343.297 176.59 333.743 176.879 328.879 176.099C328.621 175.307 328.794 174.755 329.725 174.728C334.677 174.583 335.073 172.16 335.265 168.476C335.67 160.658 335.49 152.802 335.341 144.964C335.277 141.608 333.882 140.26 330.653 139.431C329.026 139.014 329.026 139.014 328.031 137.234C331.325 136.806 334.535 136.918 337.706 137.123C339.315 137.227 340.329 138.86 341.159 140.08C342.627 142.238 344.513 143.951 346.309 145.763C352.065 151.568 357.829 157.364 363.661 163.092C364.895 164.306 365.829 165.796 367.299 167.274C367.831 165.855 367.667 164.759 367.671 163.7C367.687 158.548 367.579 153.394 367.727 148.246C367.786 146.191 367.214 144.275 366.851 142.346C366.549 140.739 365.27 139.388 363.261 139.435C361.953 139.466 360.969 138.972 359.753 137.242Z" fill="white"/>
<path d="M248.643 166.437C248.643 159.089 248.743 152.144 248.603 145.204C248.527 141.406 247.373 140.386 243.387 139.358C242.524 139.136 241.336 139.004 241.336 137.314H256.908C257.213 138.505 256.545 138.553 255.88 138.814C251.593 140.5 251.079 141.28 251.065 145.948C251.049 151.888 251.061 157.829 251.061 163.77C251.061 168.133 251.061 172.496 251.061 176.778C249.253 177.5 248.665 176.094 247.827 175.322C241.241 169.257 235.561 162.312 229.188 156.041C225.848 152.754 222.42 149.557 218.893 146.188C218.572 146.568 218.799 147.47 218.796 148.268C218.772 154.096 218.856 159.926 218.744 165.753C218.705 167.797 219.388 169.686 219.612 171.669C219.849 173.773 221.865 174.46 223.865 174.697C224.716 174.797 225.956 174.264 226.187 176.14H210.552C210.152 175.106 210.656 174.845 211.627 174.68C214.828 174.134 216.305 172.605 216.339 169.425C216.423 161.132 216.421 152.836 216.333 144.542C216.304 141.752 214.457 139.925 211.661 139.422C210.109 139.142 210.109 139.142 208.979 137.253C212.392 136.772 215.704 137.122 218.996 137.03C219.864 137.006 219.976 137.738 220.425 138.173C225.489 143.068 229.805 148.665 234.945 153.493C238.62 156.944 242.088 160.613 245.669 164.164C246.436 164.924 247.08 165.866 248.643 166.437Z" fill="white"/>
<path d="M597.902 159.347H613.476C613.188 161.828 610.27 160.826 609.526 162.754C608.803 164.627 608.934 166.444 608.802 168.311C608.666 170.239 608.938 172.031 610.426 173.69C607.267 175.987 603.666 176.23 600.338 177.01C595.322 178.186 590.324 177.768 585.355 176.07C577.81 173.488 573.831 168.211 572.011 160.62C569.55 150.363 576.982 139.774 586.422 137.259C593.634 135.338 600.663 136.43 607.579 138.951C608.887 139.427 609.382 140.254 609.43 141.37C609.512 143.326 609.487 145.283 610.138 147.154C608.611 147.735 608.196 147.026 607.734 145.967C605.536 140.946 601.46 138.948 596.162 138.718C592.492 138.558 589.12 139.216 586 141.16C581.52 143.95 579.423 148.39 578.692 153.239C577.494 161.188 580.739 169.192 587.707 173.279C592.063 175.834 596.646 176.21 601.311 173.907C602.54 173.3 603.204 172.555 603.072 171.075C602.934 169.519 603.06 167.942 603.039 166.374C602.991 162.788 602.367 161.936 598.93 160.974C598.226 160.776 597.587 160.735 597.902 159.347Z" fill="white"/>
<path d="M288.449 159.426H304.023C301.772 161.593 298.768 162.607 299.449 166.018C299.948 168.506 298.489 171.333 300.748 173.466C300.736 174.05 300.42 174.306 299.968 174.474C295.087 176.291 290.012 177.79 284.857 177.657C276.969 177.453 269.715 175.133 265.273 167.843C256.991 154.249 265.813 139.418 278.819 136.927C285.053 135.734 290.913 136.675 296.792 138.417C299.427 139.198 300.001 140.049 300.141 142.883C300.212 144.301 299.981 145.745 300.811 147.126C299.377 147.757 298.756 147.122 298.381 146.078C296.72 141.447 292.987 139.495 288.527 138.831C283.239 138.046 278.153 139.119 274.329 142.942C269.631 147.639 268.375 153.67 269.411 160.155C270.217 165.203 272.895 169.199 276.775 172.397C280.581 175.534 287.609 176.726 292.659 173.473C293.137 173.165 293.651 172.942 293.651 172.279C293.652 169.711 293.965 167.131 293.472 164.582C293.079 162.547 291.975 161.161 289.756 160.961C289.088 160.901 288.364 160.917 288.449 159.426Z" fill="white"/>
<path d="M408.975 137.024V145.832C407.68 146.392 407.019 145.84 406.714 144.704C405.586 140.507 402.524 139.335 398.602 139.42C396.394 139.468 394.184 139.428 391.799 139.428V154.986C394.568 155.115 397.138 154.948 399.783 154.77C403.303 154.531 402.531 151.066 404.799 149.402V162.752C403.283 163.207 403.412 162.176 403.312 161.271C403.023 158.639 402.363 157.795 399.956 157.647C397.308 157.486 394.643 157.611 391.815 157.611C391.42 162.41 391.651 166.867 391.644 171.316C391.642 172.718 392.588 173.547 393.824 173.963C397.076 175.059 400.295 174.635 403.647 174.147C407.526 173.583 409.427 171.255 410.927 168.127C411.067 167.835 411.348 167.61 411.652 167.25C414.2 168.516 412.208 170.042 411.964 171.336C411.662 172.943 410.835 174.431 411.095 176.27H380.042C379.743 175.359 379.874 174.894 380.8 174.71C384.943 173.884 385.151 173.634 385.158 169.535C385.171 161.242 385.171 152.95 385.159 144.656C385.152 140.515 384.947 140.242 380.994 139.432C380.194 139.268 379.816 138.992 379.82 138.164C379.826 137.263 380.354 137.039 381.11 137.032C381.222 137.031 381.334 137.024 381.446 137.024C390.504 137.024 399.562 137.024 408.975 137.024Z" fill="white"/>
<path d="M201.799 145.961C200.064 146.256 200.371 145.128 200.071 144.516C198.471 141.249 196 139.353 192.221 139.421C189.784 139.464 187.347 139.429 184.703 139.429V155.132C189.672 154.749 195.532 157.366 197.291 149.054C197.505 149.324 197.721 149.592 197.936 149.861C197.936 151.893 197.861 153.93 197.957 155.958C198.045 157.822 197.503 159.742 198.459 161.554C198.7 162.012 198.688 162.685 197.923 162.866C197.417 162.986 196.991 162.794 196.939 162.264C196.433 157.114 192.753 157.377 189.067 157.581C187.735 157.654 186.397 157.593 184.597 157.593C184.597 162.304 184.416 166.846 184.672 171.366C184.807 173.761 187.068 174.384 189.072 174.63C192.303 175.029 195.509 174.552 198.644 173.765C201.915 172.944 203.297 170.237 204.509 167.428C206.281 168.834 206.259 169.057 203.628 176.28H172.945C172.495 175.082 173.013 174.812 173.984 174.688C177.839 174.196 178.031 173.969 178.036 170.13C178.047 161.281 178.052 152.433 178.032 143.584C178.025 140.398 177.713 140.065 174.593 139.42C173.581 139.21 173.581 139.21 172.643 137.309H201.799V145.961Z" fill="white"/>
<path d="M268.916 120.578C268.888 118.601 270.12 118.335 270.943 118.277C273.712 118.078 274.155 116.147 274.171 114.082C274.24 105.118 274.231 96.154 274.186 87.19C274.17 84.1087 273.516 83.4767 270.306 82.918C269.663 82.806 268.892 82.9514 268.92 81.93C270.923 81.0007 290.982 80.6527 297.975 81.4634C298.318 84.046 298.063 86.6887 298.095 89.2487C296.874 89.91 296 89.41 295.842 88.486C295.083 84.0634 291.558 83.4807 288.163 82.9914C285.875 82.6607 283.499 82.9274 280.908 82.9274V98.2887C283.32 99.0407 285.886 98.61 288.406 98.622C291.378 98.6354 292.066 95.87 293.266 93.766C293.454 93.8767 293.643 93.9874 293.832 94.098V106.235C292.744 106.626 292.508 106.091 292.346 105.129C291.91 102.525 290.748 101.295 288.316 101.133C285.895 100.971 283.454 101.098 280.848 101.098C280.478 106.015 280.618 110.585 280.73 115.143C280.77 116.727 281.928 118.002 283.448 118.047C286.882 118.149 290.34 118.619 293.768 117.757C296.03 117.187 297.779 116.157 298.926 113.986C299.894 112.151 300.06 112.239 301.804 111.514C301.944 114.349 300.332 116.735 300.026 119.405C299.93 120.251 299.106 120.582 298.228 120.582C288.502 120.575 278.775 120.578 268.916 120.578Z" fill="white"/>
<path d="M434.054 111.803C433.24 114.727 432.48 117.464 431.676 120.356H400.787C400.503 118.263 402.346 118.576 403.043 118.391C405.328 117.781 406.046 116.484 406.031 114.268C405.972 105.195 406.022 96.1213 406 87.048C405.992 83.7466 405.534 83.2973 402.199 82.9026C401.767 82.852 401.331 82.752 400.931 82.5906C400.8 82.5373 400.779 82.2146 400.711 82.0146C402.566 80.988 420.519 80.5826 429.626 81.384C430.195 84.052 429.986 86.7533 429.75 89.384C428.718 89.78 428.252 89.3653 428.063 88.6213C426.992 84.4173 423.59 83.4253 419.995 82.9813C417.691 82.6973 415.323 82.928 412.722 82.928V98.4026C415.444 98.9653 418.335 98.7026 421.182 98.5653C422.576 98.4986 423.335 97.1133 424.112 96.0333C424.596 95.3613 424.626 94.3533 425.924 93.8693C425.922 98.1453 425.726 102.257 426.443 106.299C424.586 106.511 424.822 105.377 424.692 104.757C424.14 102.109 422.248 101.243 419.902 101.119C417.579 100.995 415.244 101.091 412.514 101.091C412.514 105.811 412.38 110.253 412.58 114.681C412.659 116.435 414.038 117.924 415.82 118.008C419.123 118.165 422.434 118.58 425.77 117.681C428.351 116.987 430.132 115.645 431.292 113.319C431.772 112.356 432.08 111.105 434.054 111.803Z" fill="white"/>
<path d="M416.971 176.143C416.764 175.154 417.071 174.846 417.746 174.727C422.043 173.971 422.782 173.118 422.81 168.61C422.848 162.444 422.82 156.276 422.819 150.11C422.819 148.092 422.887 146.071 422.799 144.056C422.648 140.616 422.02 139.915 418.683 139.438C417.518 139.272 416.775 138.902 416.876 137.594C419.39 136.854 437.543 136.591 445.839 137.194C446.262 140.087 446.139 143.019 445.902 145.898C444.894 146.238 444.566 145.93 444.332 145.086C443.274 141.242 441.09 139.516 437.224 139.44C434.542 139.387 431.859 139.43 428.886 139.43V155.023C431.608 155.166 434.214 155.32 436.882 154.87C439.827 154.374 440.674 151.854 441.846 149.572C442.048 149.695 442.251 149.818 442.454 149.94V162.748C441.636 163.018 441.178 162.876 440.995 161.952C440.174 157.812 439.922 157.618 435.815 157.595C433.587 157.583 431.359 157.594 428.64 157.594C428.64 162.016 428.464 166.236 428.708 170.434C428.848 172.843 431.007 174.343 433.964 174.662C437.098 175 440.242 174.644 443.206 173.771C445.726 173.027 447.484 171.01 448.314 168.436C448.562 167.67 448.791 167.162 449.614 167.379C450.452 167.602 450.424 168.21 450.196 168.958C449.586 170.954 449.102 172.99 448.48 174.983C448.21 175.855 447.692 176.455 446.552 176.46C445.138 176.466 418.504 176.348 416.971 176.143Z" fill="white"/>
<path d="M395.572 91.4512C394.259 91.6646 393.507 91.8686 393.211 90.4966C391.609 83.0872 383.616 81.4192 378.547 82.4592C364.799 85.2779 361.165 100.051 367.892 110.789C371.553 116.634 376.988 119.342 383.937 118.85C387.389 118.606 392.173 114.785 393.136 111.105C393.509 109.675 393.848 109.109 395.408 109.723C395.039 112.062 394.496 114.402 394.36 116.765C394.279 118.19 393.571 118.806 392.5 119.153C384.707 121.674 376.847 122.471 369.163 118.967C362.803 116.067 359.328 110.649 358.368 103.946C357.376 97.0206 358.965 90.6659 364.607 85.8446C368.069 82.8859 372.085 81.3872 376.512 80.4286C382.225 79.1899 387.383 81.1152 392.725 82.3419C394.575 82.7659 395.039 83.6566 394.996 85.3526C394.947 87.3259 394.704 89.3339 395.572 91.4512Z" fill="white"/>
<path d="M241.99 91.5757C240.487 91.6237 240.223 90.6277 240.106 90.0224C238.833 83.4504 230.057 81.361 225.261 82.4464C215.867 84.5717 211.985 90.3637 211.526 98.8064C211.083 106.977 215.703 115.472 224.665 118.288C230.374 120.081 236.982 118.512 239.639 112.024C240.025 111.085 240.202 109.834 241.41 109.47C242.673 109.744 242.403 110.749 242.254 111.37C241.889 112.886 241.767 114.422 241.521 115.944C241.259 117.569 240.43 118.74 238.485 119.354C230.945 121.738 223.571 122.246 216.174 118.848C210.399 116.193 207.234 111.578 205.641 105.636C203.763 98.6264 205.357 92.2597 210.21 87.1584C213.711 83.477 218.29 81.2277 223.591 80.4157C229.27 79.5464 234.494 80.761 239.777 82.4397C241.077 82.8517 241.709 83.401 241.639 84.7344C241.522 86.997 243.013 89.201 241.99 91.5757Z" fill="white"/>
<path d="M196.023 88.0537C193.639 88.5377 193.489 86.931 192.978 85.9697C191.487 83.1604 189.089 82.0257 186.113 82.299C183.298 82.5564 181.235 84.015 180.222 86.8657C179.141 89.9084 180.251 93.207 183.133 95.3004C186.378 97.659 190.187 98.9537 193.565 101.106C199.926 105.158 199.07 115.404 192.747 118.894C187.609 121.73 182.381 121.627 176.961 120.412C174.831 119.935 174.397 118.079 174.093 116.372C173.789 114.671 174.227 112.866 173.053 111.29C174.717 110.538 175.482 111.05 175.682 112.191C176.065 114.363 177.671 115.6 179.047 117.039C181.39 119.488 184.417 119.326 187.158 118.527C189.946 117.714 191.758 115.363 192.079 112.384C192.373 109.656 191.121 107.427 188.867 105.835C186.413 104.103 183.659 102.92 180.978 101.608C174.305 98.343 172.79 90.4724 176.582 84.607C177.637 82.975 179.101 81.9977 180.621 81.3057C184.687 79.4524 189.037 79.9577 193.29 80.619C194.553 80.8164 195.257 81.931 195.257 83.375C195.257 84.8977 194.949 86.463 196.023 88.0537Z" fill="white"/>
<path d="M470.212 92.5559C468.733 91.4906 469.514 89.0559 467.18 88.8346C465.896 88.7133 464.641 88.0639 463.296 88.4813C461.072 89.1719 458.677 92.1386 458.918 93.8559C459.237 96.1293 461.497 97.6999 465.418 98.2813C465.642 100.429 464.652 101.324 462.558 101.068C460.822 100.857 459.224 101.411 457.72 102.052C455.482 103.004 453.769 104.625 453.513 107.207C453.236 109.999 453.953 112.371 456.482 114.092C462.016 117.859 469.482 115.813 472.87 111.365C474.553 109.153 474.176 106.6 472.085 105.213C470.06 103.869 468.388 104.236 466.99 106.349C466.481 107.121 466.393 108.261 465.196 108.479C464.074 104.991 465.332 102.196 468.529 101.451C471.314 100.801 474.177 100.483 477.004 100.005C477.545 99.9146 478.089 99.8053 478.613 99.6439C482.456 98.4626 482.796 97.3226 480.272 94.1426C482.188 93.1746 483.334 93.6546 483.712 95.5866C484.441 99.3186 483.172 101.215 479.432 102.637C478.342 103.051 477.222 102.863 475.958 103.412C477.13 105.119 478.385 106.863 477.444 109.035C476.642 110.884 475.6 112.567 474.028 113.911C468.416 118.711 458.356 120.064 452.577 116.571C447.149 113.288 448.349 104.016 453.388 101.876C454.808 101.273 456.128 100.439 457.636 99.6346C456.292 97.7359 454.264 96.0546 455.352 93.4253C456.249 91.2533 457.686 89.6133 459.657 88.1133C462.841 85.6879 466.269 85.8253 469.826 85.9093C471.081 85.9386 471.66 86.6666 471.605 87.8559C471.532 89.4599 471.165 90.9879 470.212 92.5559Z" fill="white"/>
<path d="M514.469 176.292H498.425C497.972 175.101 498.482 174.848 499.45 174.68C503.088 174.049 503.498 173.568 503.509 169.908C503.533 161.052 503.533 152.196 503.506 143.34C503.497 140.425 503.092 139.937 500.153 139.452C498.845 139.236 498.004 138.88 498.333 137.248H514.64C514.489 139.172 513.156 139.281 512.008 139.408C510.42 139.582 509.964 140.49 509.965 141.91C509.976 151.774 509.966 161.64 509.973 171.504C509.973 173.533 510.985 174.609 513.038 174.698C513.781 174.73 514.732 174.576 514.469 176.292Z" fill="white"/>
<path d="M203.022 52.1691C204.063 53.6517 204.242 54.8757 203.645 56.0251C203.043 57.1837 203.605 58.4797 203.065 59.7091C196.894 62.3291 190.601 63.0624 184.077 60.7904C179.358 59.1477 176.286 56.0291 174.595 51.3291C172.575 45.7117 172.97 40.5624 176.574 35.6277C179.447 31.6944 183.493 29.5851 187.949 28.8664C191.935 28.2237 196.145 28.3264 200.157 29.7611C203.713 31.0331 204.018 31.2584 203.973 34.9264C203.961 35.8651 204.263 36.8984 203.625 37.6597C202.506 37.9397 202.471 37.2664 202.187 36.6144C199.753 31.0264 194.002 28.9971 188.181 30.9837C177.941 34.4784 176.907 47.7651 182.07 54.2557C183.951 56.6197 186.167 58.2184 188.789 59.4064C194.079 61.8011 200.093 59.2997 201.954 54.1691C202.209 53.4664 202.661 52.8344 203.022 52.1691Z" fill="white"/>
<path d="M324.2 176.174H308.046C307.742 174.98 308.29 174.82 309.057 174.691C311.842 174.218 313.133 173.064 313.161 170.424C313.256 161.471 313.276 152.515 313.149 143.562C313.106 140.567 312.264 139.918 309.261 139.426C308.584 139.315 307.902 139.338 307.868 138.387C307.841 137.622 308.038 137.056 308.93 137.055C314.021 137.051 319.11 137.052 324.134 137.052C324.522 138.958 323.193 139.052 322.39 139.336C319.498 140.362 319.012 140.787 318.998 143.695C318.956 152.65 318.952 161.604 319.002 170.558C319.018 173.39 319.802 174.16 322.677 174.684C323.384 174.814 324.376 174.508 324.2 176.174Z" fill="white"/>
<path d="M264.014 82.4393C259.274 83.4727 258.464 84.4767 258.46 89.042C258.452 96.766 258.453 104.489 258.462 112.211C258.464 113.103 258.38 114.037 258.605 114.879C259.094 116.711 259.593 118.639 262.25 118.206C263.062 118.074 263.809 118.254 263.802 119.401C263.796 120.566 263.022 120.578 262.217 120.579C257.317 120.583 252.416 120.581 247.542 120.581C247.114 118.641 248.525 118.353 249.446 118.275C252.204 118.043 252.614 116.137 252.653 114.065C252.741 109.366 252.682 104.663 252.682 99.962C252.684 95.9327 252.7 91.9033 252.678 87.874C252.657 84.0193 252.292 83.5993 248.469 82.906C247.885 82.7993 247.369 82.7033 247.4 81.9473C250.018 80.6767 262.145 80.858 264.014 82.4393Z" fill="white"/>
<path d="M227.787 50.8031C228.037 46.6591 226.312 43.6057 223.284 41.1817C221.029 39.3791 217.6 39.3831 215.305 41.0924C208.713 46.0044 211.761 56.6044 216.833 59.5911C219.54 61.1844 224.495 60.8524 226.503 56.7017C227.429 54.7857 228.049 52.8097 227.787 50.8031ZM207.629 50.1137C207.119 42.4857 214.301 38.0164 219.58 38.1511C227.547 38.3551 232.197 43.3751 232.089 50.2324C231.981 57.1751 227.336 61.7857 219.625 62.0297C214.377 62.1951 207.136 57.7364 207.629 50.1137Z" fill="white"/>
<path d="M312.846 51.7348H321.38C317.839 53.1642 318.855 56.0762 319.218 58.5255C319.376 59.5908 319.516 60.3962 318.475 60.5868C314.62 61.2908 310.95 62.7428 306.768 61.5082C300.203 59.5695 297.1 55.2535 297.746 47.7042C298.135 43.1628 303.8 38.4202 309.078 38.1015C311.335 37.9642 313.504 38.3748 315.655 38.8722C318.847 39.6082 319.396 40.4815 319.443 44.2788C318.771 44.6255 318.422 44.1308 318.115 43.7042C314.006 37.9842 306.314 38.4415 302.855 44.6202C299.779 50.1135 302.16 57.1428 307.834 59.7468C309.595 60.5548 311.332 60.3762 313.06 60.2042C314.488 60.0615 315.395 59.1775 315.251 57.4508C315.074 55.3375 315.927 52.8348 312.846 51.7348Z" fill="white"/>
<path d="M339.661 39.0095C339.864 40.7335 339.947 42.1708 339.532 44.2082C337.112 40.7242 334.167 39.0442 330.017 40.1868C329.481 42.8655 329.748 45.6175 329.88 48.5428C332.86 49.2455 335.548 49.4375 337.608 46.4255V53.6442C335.855 49.9362 333.075 50.3642 330.116 50.8655C329.356 53.0802 329.863 55.4308 329.777 57.7335C329.724 59.1615 330.909 59.5842 331.901 60.0042C334.332 61.0348 338.509 59.6908 340.135 57.4602C340.395 57.1028 340.66 56.7375 340.983 56.4428C341.113 56.3242 341.405 56.3828 341.792 56.3442C342.256 58.1508 340.929 59.5602 340.992 61.2842H322.967C322.748 60.2895 323.436 60.3602 323.941 60.3295C325.541 60.2335 325.985 59.2548 325.981 57.8375C325.968 52.6802 325.904 47.5215 326.009 42.3668C326.055 40.0748 323.964 40.2348 322.033 39.0095H339.661Z" fill="white"/>
<path d="M276.102 60.6004C278.798 60.4257 278.962 58.7671 278.932 56.8377C278.863 52.3591 278.882 47.8777 278.923 43.3977C278.94 41.5057 278.974 39.6924 276.447 39.1017H292.575C292.822 40.6444 292.86 42.1337 292.452 44.4391C290.347 39.7604 286.85 39.6791 283.022 39.9991C282.323 42.8231 282.811 45.5817 282.691 48.4897C285.73 49.1511 288.492 49.6404 290.543 46.4684V53.9271C288.979 49.3777 285.904 50.7804 283.136 50.7084C282.266 52.9137 282.656 55.1591 282.772 57.3337C282.835 58.4991 283.495 59.3951 284.988 59.8124C287.988 60.6497 291.006 60.0551 293.146 57.8031C293.664 57.2564 293.686 55.8657 295.263 56.5684C295.19 58.1337 294.191 59.5137 293.855 61.2271H276.532C276.388 61.0177 276.246 60.8097 276.102 60.6004Z" fill="white"/>
<path d="M372.682 48.3372C372.101 47.6278 371.096 48.2625 370.589 47.5718C370.438 47.0745 370.825 46.9718 371.106 46.8518C372.785 46.1332 373.605 44.9412 373.768 43.0545C374.106 39.1318 377.138 37.3038 380.132 35.6292C381.026 35.1278 382.429 35.0305 383.174 36.1598C383.86 37.1985 383.737 38.2878 382.578 39.0558C378.801 37.6105 377.46 38.3385 376.885 42.4385C376.734 43.5092 376.332 44.5438 376.284 45.9052C377.525 45.6585 378.686 45.2438 379.822 45.7452C379.192 47.7798 379.192 47.7798 375.817 48.1972C374.598 53.3905 373.86 58.7412 372.098 63.8412C371.441 65.7438 370.492 67.4332 369.076 68.9385C367.638 70.4665 366.165 71.2945 363.712 70.4905C363.792 69.1292 363.07 67.4652 365.926 68.2318C368.11 68.8185 368.96 66.8945 369.402 65.4025C370.369 62.1398 371.03 58.7785 371.677 55.4318C372.133 53.0758 372.36 50.6758 372.682 48.3372Z" fill="white"/>
<path d="M252.964 61.228H234.829C238.14 60.1574 238.041 57.6387 237.929 54.9174C237.773 51.1187 237.904 47.308 237.885 43.5027C237.87 40.384 237.853 40.384 234.764 39.1827C238.05 38.692 241.365 38.8054 244.658 38.8374C244.862 39.9107 244.168 39.8187 243.673 39.8507C242.073 39.956 241.645 40.944 241.649 42.3534C241.662 47.2774 241.598 52.2027 241.678 57.1254C241.714 59.3774 244.632 60.9654 247.51 60.0747C248.626 59.7294 249.906 59.9374 250.946 59.0014C251.824 58.212 251.878 56.6627 253.42 56.3947C254.341 58.1654 252.726 59.52 252.964 61.228Z" fill="white"/>
<path d="M255.501 39.22C258.768 38.7573 261.832 38.6867 265.181 38.948C264.595 40.2107 263.107 39.72 262.739 40.7813C262.395 41.7707 262.505 42.7693 262.501 43.7653C262.481 47.9013 262.539 52.04 262.473 56.1747C262.443 58.1693 262.709 59.404 265.207 59.8053C269.061 60.424 270.843 60.0667 273.113 57.044C273.357 56.7187 273.677 56.3253 274.217 56.472C274.259 60.9867 273.928 61.38 270.001 61.3853C265.228 61.3933 260.455 61.388 255.42 61.1107C258.799 60 258.877 57.4947 258.768 54.7547C258.635 51.4053 258.633 48.0427 258.769 44.6947C258.875 42.1333 258.428 40.0853 255.501 39.22Z" fill="white"/>
<path d="M356.574 54.4965C356.648 55.6059 356.591 56.7445 356.834 57.8152C357.083 58.9192 357.847 59.7899 358.992 60.0925C360.208 60.4139 361.286 59.7512 361.866 58.8805C363.959 55.7392 364.956 52.2192 364.126 48.4765C363.554 45.9019 360.647 45.1192 359.102 47.1499C357.408 49.3752 356.534 51.7339 356.574 54.4965ZM353.562 55.4805C353.555 49.4179 356.011 45.8072 361.083 44.4125C364.543 43.4605 367.248 45.5032 367.411 49.0899C367.596 53.1845 366.416 56.7139 363.504 59.6645C362.091 61.0965 360.222 61.8472 358.46 61.9152C355.848 62.0165 353.71 61.1365 353.567 57.8299C353.534 57.0485 353.562 56.2632 353.562 55.4805Z" fill="white"/>
<path d="M132.115 92.0507C149.953 32.24 81.062 -13.7373 32.9927 26.3773C11.1834 44.776 5.16471 78.0467 19.0674 102.919C45.2394 150.487 115.339 143.839 132.074 92.1787L132.115 92.0507ZM72.0794 8.86666C129.493 8.30266 158.974 77.2013 118.847 118.329C89.6607 148.279 39.0154 141.577 17.7847 105.82C-7.54196 63.6667 23.0367 9.77332 71.9447 8.86932L72.0794 8.86666Z" fill="white"/>
<path d="M93.4182 173.885C94.2262 175.523 95.1476 176.773 95.4862 178.422C94.0769 178.627 92.7102 178.714 91.2129 178.302C91.6249 176.731 92.3409 175.433 93.4182 173.885Z" fill="white"/>
<path d="M72.9866 14.0481C42.4986 13.6827 15.3666 39.2814 13.988 69.7294C11.836 97.6361 31.8946 124.763 59.0773 131.172C90.0186 139.329 122.931 119.289 130.747 88.4187C140.88 51.0614 111.717 13.7654 73.1213 14.0481H72.9866ZM96.312 17.0601C132.452 31.5227 145.631 78.2801 122.129 109.385C112.341 122.775 96.872 131.792 80.388 133.665C44.5986 138.115 12.1133 109.284 12.436 73.1801C12.3866 30.3814 56.5893 0.573418 96.188 17.0094L96.312 17.0601Z" fill="white"/>
<path d="M113.115 53.7297C103.688 33.1003 77.4151 23.3017 56.5964 32.099C35.1498 40.2617 23.6818 65.735 31.1018 87.319C39.5631 113.87 71.2604 125.444 95.2258 111.804C115.392 100.764 123.224 74.3563 113.174 53.851L113.115 53.7297ZM118.808 72.7217C119.366 95.9857 99.3938 117.37 76.2364 118.611C55.7764 120.239 35.5631 105.944 29.5271 86.407C21.6244 63.0723 36.4484 36.1803 59.8151 29.2963C88.4138 20.1563 118.648 42.7657 118.807 72.5883L118.808 72.7217Z" fill="white"/>
<path d="M24.7334 70.9983C22.3761 67.713 18.1907 68.2276 15.7454 65.337C18.9507 63.6223 22.6147 63.333 25.7974 61.765C24.4041 59.9636 21.9507 59.0463 17.6134 58.677C18.1454 55.2796 18.1454 55.2796 24.0467 53.7943C22.8241 52.1823 20.8867 53.189 19.3001 52.545C19.3347 51.3783 19.8841 50.485 20.8081 49.4716C23.0574 52.5863 26.9147 52.1903 30.0787 53.965C28.2307 56.9876 24.2374 55.4743 22.0627 57.7716C23.8427 58.9143 25.6347 59.641 27.9561 58.797C27.7254 61.3383 26.9294 63.3596 26.3561 65.3823C25.5694 65.749 25.0841 64.9783 24.6027 64.937C23.7907 65.3543 23.8961 65.977 23.9614 66.4823C24.0227 66.957 23.5347 67.9943 24.6067 67.7583C25.8374 67.4863 25.9347 68.0836 25.9401 68.9676C25.9441 69.6396 25.8667 70.3223 25.9601 70.9823C26.2974 73.3836 25.6267 75.105 23.0641 75.7596C22.5654 75.8863 22.1494 76.3343 21.6454 76.6676C23.2214 77.4956 24.3201 76.8263 25.3347 75.4596C26.3654 76.7156 25.5121 78.301 26.7441 79.357C22.9494 78.3063 19.6601 79.8836 16.0721 80.2236C15.5441 78.433 15.7454 76.5356 15.8721 74.6983C16.0001 72.869 18.1627 71.4663 19.4787 72.4943C22.1041 74.545 23.1067 72.497 24.7334 70.9983Z" fill="white"/>
<path d="M40.2221 110.156C39.8768 111.946 41.2994 112.877 41.3514 114.182C41.4061 115.55 41.8888 117.045 40.2288 118.062C38.7381 118.976 37.4061 118.39 36.2301 117.789C34.1781 116.738 33.8794 114.93 35.3208 113.296C36.6488 114.005 35.7928 117.057 38.7301 116.472C37.8074 114.305 36.9234 112.296 37.3461 110.048C37.5114 109.165 38.2741 108.858 39.0888 108.042C35.2394 107.756 32.3221 110.098 28.7674 110.53C28.5288 108.206 30.2874 106.777 31.2154 105.066C31.7888 104.01 32.3021 102.904 32.9554 101.89C33.3328 101.305 33.2434 100.88 32.7941 100.429C32.4648 100.097 31.9701 99.7302 31.6488 100.069C29.8288 101.985 26.6088 101.884 25.3341 104.789C23.4421 103.385 22.8234 101.982 24.1074 99.9742C24.8088 98.8782 25.3034 97.6489 26.0141 96.2369C23.8208 96.3262 22.9928 97.8715 21.9088 99.4969C21.0994 98.4235 20.4714 97.6169 20.5808 96.1382C24.1141 95.8995 26.5421 93.0222 30.3061 91.8329C30.0354 95.0902 28.2074 97.4502 27.1768 100.553C29.3874 99.8355 30.9581 98.9715 31.7981 96.9955C34.4008 98.5062 34.8821 101.301 36.6368 102.95C36.6154 104.338 35.3554 103.662 34.8434 104.274C34.6514 105.492 35.7754 105.826 36.3954 106.468C36.7888 106.489 37.1274 106.46 37.2541 106.082C37.6034 105.042 38.7981 104.932 39.0234 105.502C40.2181 108.525 43.8608 108.924 45.2768 111.616C45.3261 111.709 45.3408 111.822 45.3994 112.013C45.0581 113.108 44.2768 113.496 42.9968 113.221C42.4048 112.068 43.0848 109.613 40.2221 110.156Z" fill="white"/>
<path d="M120.288 80.3643C119.974 78.863 119.872 77.6683 120.399 76.3056C123.716 77.6763 127.232 77.739 130.708 77.675C130.93 79.4936 130.132 80.787 130.107 82.255C130.066 84.6723 127.43 86.0096 125.655 84.367C123.686 82.5443 122.23 83.5296 120.53 84.339C120.175 84.507 119.964 85.0803 119.191 84.5603C119.059 83.3136 119.094 82.1416 120.658 81.3536C121.823 80.7656 123.462 81.4723 124.244 79.9656C122.951 79.2443 121.751 80.023 120.288 80.3643Z" fill="white"/>
<path d="M66.0691 125.03C64.9931 124.029 64.4264 122.865 65.2184 121.473C66.1571 119.821 67.7997 119.849 69.3531 120.091C70.5144 120.273 71.3971 120.742 71.8557 122.219C72.3504 123.817 70.5011 124.651 70.8891 125.374C71.5197 126.546 71.8997 127.646 71.5864 128.819C71.1851 130.314 69.7277 130.667 68.4317 130.797C66.7451 130.965 65.4104 129.993 64.5304 128.671C63.4584 127.065 65.2624 126.383 66.0691 125.03Z" fill="white"/>
<path d="M114.779 51.1372C115.337 48.4999 117.084 46.2719 117.344 42.8892C115.463 44.3786 113.68 44.8492 112.927 46.7092C111.7 46.4759 111.059 45.6866 110.609 44.4772C114.171 43.4786 117.277 41.9586 119.283 38.6466C123.275 41.2866 119.771 44.1852 119.603 46.9252C121.603 47.2066 121.844 45.2679 122.956 44.1586C123.427 44.7679 123.873 45.2999 124.268 45.8679C125.284 47.3279 124.631 47.5066 123.157 47.6532C121.304 47.8372 119.948 49.3199 118.336 50.1652C117.229 50.7452 116.284 51.9719 114.779 51.1372Z" fill="white"/>
<path d="M55.2059 19.7753C53.8592 20.1553 53.4379 20.9273 53.5272 22.034C53.6592 23.6713 53.9272 25.2607 55.1632 26.502C55.7592 27.1007 56.5205 27.542 57.1712 26.926C57.5952 26.5233 58.0379 25.9207 57.7339 24.9713C57.1645 23.1967 56.4685 21.5407 55.2059 19.7753ZM55.7925 28.5873C52.9605 28.574 50.7712 26.2007 50.7872 23.1593C50.8019 20.2913 52.5485 18.43 55.2072 18.4473C57.9205 18.4647 60.3472 21.3127 60.2379 24.354C60.1445 27.006 58.4699 28.6007 55.7925 28.5873Z" fill="white"/>
<path d="M75.3566 130.537C76.5299 128.916 78.5419 129.072 78.6153 127.06C77.8926 126.249 76.4286 127.421 75.6299 126.128C74.5139 124.323 74.8886 121.993 76.8033 120.608C78.2966 119.528 80.5219 120.083 81.6739 121.816C83.2193 124.143 82.3473 126.368 80.9899 128.24C79.8179 129.857 78.0233 130.908 75.3566 130.537Z" fill="white"/>
<path d="M111.507 29.9272C112.561 30.7739 113.537 31.4672 114.025 32.5885C112.1 34.7499 109.153 35.7285 108.04 38.5299C110.16 41.3485 110.239 41.3965 112.475 39.1139C113.757 37.8045 115.56 36.8379 115.553 34.6712C116.949 34.7099 117.397 35.6645 117.975 36.3765C118.029 36.8005 117.904 37.1165 117.581 37.2579C115.876 38.0019 114.983 39.6605 113.597 40.7632C110.923 42.8952 107.803 42.3045 106.381 39.5605C105.347 37.5645 106.264 36.1379 107.449 34.7965C108.836 33.2299 110.499 31.9072 111.507 29.9272Z" fill="white"/>
<path d="M106.306 27.6162C103.306 25.9042 103.306 25.9042 102.016 27.2828C102.384 28.3015 103.797 27.4935 104.296 28.9162C104.172 29.4615 104.041 30.3762 103.136 30.9668C101.893 31.1482 102.153 29.7148 101.377 29.3402C99.7344 29.4642 100.121 31.1855 99.137 31.8188C100.158 32.9708 101.33 33.2308 102.681 33.4788C102.181 34.7055 101.89 35.9548 100.402 34.7762C98.9464 33.6228 97.145 32.9495 95.7344 31.4028C97.729 28.6655 99.9597 26.0642 100.9 22.3202C102.848 24.1842 106.349 24.0602 106.306 27.6162Z" fill="white"/>
<path d="M87.1287 129.076C87.3313 127.362 89.614 126.987 89.2207 124.803C88.7353 124.232 87.914 126.098 86.926 125.09C86.2753 124.427 85.2273 124.266 85.0607 123.03C84.7527 120.73 85.5687 119.196 87.7767 118.344C89.2993 117.756 90.9367 118.463 91.8607 120.104C93.154 122.402 92.7287 124.78 90.63 127.003C89.3913 128.312 89.3927 128.312 87.1287 129.076Z" fill="white"/>
<path d="M121.277 86.6836C120.692 88.1049 117.077 88.2822 119.656 90.9636C121.789 89.4716 123.569 86.1182 126.645 88.4969C128.868 90.2169 127.056 92.7009 126.66 94.8276C124.657 95.0409 124.657 95.0409 123.381 93.5556C124.617 92.9476 126.671 92.8942 125.88 90.6569C124.672 90.3876 124.295 91.3996 123.679 91.9462C121.377 93.9889 120.172 94.2796 118.447 93.1062C117.065 92.1676 117.032 89.7782 117.993 87.3729C118.855 85.2196 119.805 85.1169 121.277 86.6836Z" fill="white"/>
<path d="M38.4815 31.2844C36.9655 30.6444 35.5148 30.3764 34.9095 32.5697C36.1655 33.1191 37.1668 32.4844 38.2468 32.1151C40.0068 31.5124 41.5095 31.8884 42.6175 33.5351C43.7855 35.2711 43.1122 36.6177 41.8468 37.8884C41.2935 38.4444 40.7815 39.0551 40.1642 39.5284C38.8108 40.5684 37.9895 39.8977 37.1522 38.4097C38.7908 37.7324 41.0535 38.0964 41.2055 35.6031C40.0295 35.1324 38.9548 35.3791 37.7428 35.7551C35.3548 36.4977 33.6748 35.5777 33.3108 33.6324C32.9815 31.8737 35.1482 28.7617 36.8348 28.5711C37.9655 28.4417 38.3068 28.9577 38.4815 31.2844Z" fill="white"/>
<path d="M28.624 42.5272C28.3226 43.4006 27.844 43.3392 27.424 43.3806C26.2 43.5019 24.976 43.7126 24.6386 45.1299C24.2866 46.6086 25.4933 47.3606 26.3986 48.1152C27.5053 49.0379 28.7866 49.8339 30.3293 49.1806C31.3306 48.7579 31.316 47.8059 31.2493 46.8806C31.1933 46.0979 29.9693 45.2272 31.1853 44.5619C32.3466 43.9272 33.1573 44.8819 33.924 45.6246C34.0813 45.7766 34.1933 45.9752 34.4053 46.2579C32.5493 47.6606 33.2773 51.2646 29.9466 51.4446C28.0706 51.5446 26.164 51.6619 24.532 50.3992C21.9813 48.4259 22.2773 45.4512 25.5133 40.9406C26.6346 41.2326 27.6453 41.7659 28.624 42.5272Z" fill="white"/>
<path d="M126.957 70.4688C126.831 71.5594 127.853 72.2594 127.317 73.2741C126.592 73.9901 125.755 73.5941 124.984 73.4634C124.527 72.3954 125.993 71.7621 124.927 70.4968C123.949 70.1954 122.612 69.8274 121.527 71.3301C121.511 72.5634 122.785 73.3874 122.639 74.6768C120.02 74.6301 119.539 73.1581 120.387 67.5688C123.808 69.1914 127.027 67.4194 130.667 67.0741C131.031 69.0501 130.849 71.1354 130.812 73.1981C130.787 74.6408 129.887 74.4208 128.965 74.0154C129.776 70.5688 129.776 70.5688 126.957 70.4688Z" fill="white"/>
<path d="M69.965 15.3588C70.4676 16.2908 71.4996 17.0521 70.5876 18.4441C69.229 18.2481 68.181 16.3014 66.4756 17.4521C66.2516 18.4321 66.865 18.9268 67.6623 19.0494C68.689 19.2081 69.5276 19.7041 70.3623 20.2161C72.0036 21.2228 71.8156 22.8801 71.5996 24.4081C71.3596 26.0948 69.9316 25.9148 68.7116 25.8894C67.5996 25.8654 66.509 25.8961 65.5716 26.5161C64.4983 26.0321 65.157 24.7854 64.3836 24.2148C66.0263 22.7841 67.9916 26.5121 69.5156 23.8481C69.3143 22.9801 68.733 22.6588 67.8756 22.5014C66.905 22.3228 66.041 21.8388 65.245 21.2068C63.8516 20.0988 64.041 18.5668 64.3463 17.2161C64.6116 16.0374 65.901 15.8374 67.017 15.7641C67.993 15.6988 68.9956 15.8881 69.965 15.3588Z" fill="white"/>
<path d="M47.0779 21.8277C47.4286 22.9157 48.5592 23.5757 48.7752 24.7864C47.9339 25.4264 47.2806 25.1357 46.5246 24.7904C45.5752 24.3571 44.4832 24.2771 43.7979 25.2611C43.1792 26.1504 43.4072 27.0784 43.8806 28.0811C44.6792 29.7731 46.0419 30.8117 47.3792 31.9717C49.0752 31.0451 49.1672 29.3771 49.7739 27.9877C51.0192 27.8877 51.4992 28.8651 52.0192 29.6624C52.2072 29.9504 52.1579 30.6011 51.9512 30.9064C50.7086 32.7397 46.6072 33.7384 44.5272 32.7797C41.9406 31.5891 40.7419 29.0877 41.3899 26.1464C41.7032 24.7237 42.7872 23.5584 43.9552 23.3317C45.1619 23.0971 45.7432 22.0051 47.0779 21.8277Z" fill="white"/>
<path d="M78.3984 25.865C80.8158 24.3023 81.5358 21.4623 83.2838 19.417C84.0144 18.561 84.1251 16.609 86.2078 17.2943C86.9451 20.8836 86.8011 24.7316 88.7171 28.689C86.7611 28.1103 85.3264 27.8356 84.0864 26.953C85.4371 25.093 85.4371 25.093 82.7704 24.0623C80.7331 26.977 80.7331 26.977 78.4744 25.7836L78.3984 25.865Z" fill="white"/>
<path d="M19.0773 87.1285C19.8653 86.7032 20.4386 86.3938 20.9813 86.1005C21.4866 84.9645 19.3639 85.1112 19.9946 84.0258C20.6733 82.8578 21.7693 82.8618 22.8746 83.2072C23.3693 83.6285 23.0999 84.0152 22.9359 84.4152C22.8146 84.7072 22.7399 85.0178 22.6413 85.3298C24.5546 86.3338 25.5866 85.3698 26.3866 83.6018C28.0666 84.8018 28.1079 86.3378 27.8413 88.0045C24.3413 87.6365 21.2759 88.7672 18.0746 90.6592C17.9413 87.7378 15.0573 85.1925 18.0599 81.8405C18.7359 83.8898 17.8359 85.6165 19.0773 87.1285Z" fill="white"/>
<path d="M115.312 111.912C114.056 113.053 113.029 113.986 111.677 115.213C111.212 115.07 110.824 113.55 109.509 113.693C110.189 117.374 110.189 117.374 108.942 118.569C108.289 118.096 108.113 117.64 108.14 116.676C108.242 112.901 106.784 110.944 103.424 109.692C104.225 108.452 105.277 107.484 106.726 106.401C107.876 110.792 111.377 111.641 115.312 111.912Z" fill="white"/>
<path d="M111.957 99.8719C113.23 102.308 113.23 102.308 118.445 105.619C118.978 104.944 118.354 103.867 119.139 103.324C121.058 104.647 121.155 105.167 119.857 107.124C117.142 111.215 116.965 111.283 114.038 109.284C114.491 108.164 115.623 108.859 116.514 108.315C114.569 106.037 112.425 104.192 109.283 103.591C109.653 101.936 111.345 101.328 111.957 99.8719Z" fill="white"/>
<path d="M93.2599 20.9531C92.1785 20.9118 91.4785 21.4825 90.6639 20.8931C90.2305 19.9745 91.1839 19.4211 91.3959 18.6985C91.7585 18.4905 92.0292 18.5411 92.3639 18.6785C93.8759 19.3025 95.3839 19.9531 96.9412 20.4411C97.9105 20.7451 98.5265 21.1718 98.5452 22.2371C98.5572 22.8651 98.1932 23.2691 97.7345 23.6091C96.4905 24.5291 96.6692 22.3825 95.4812 22.7171C94.8505 25.0998 92.5732 27.0785 93.6559 30.1771C91.7172 30.4625 90.6839 28.9171 88.3945 29.1265C91.6372 26.8651 91.8265 23.7891 93.2599 20.9531Z" fill="white"/>
<path d="M129.621 62.1853C130.137 62.6413 130.169 63.0786 130.162 63.528C130.156 63.972 130.165 64.4226 129.76 64.752C127.1 64.3853 124.508 63.3533 121.733 63.5706C120.78 63.6453 119.801 63.4586 119.536 62.504C119.236 61.4253 120.324 61.196 121.03 60.6693C123.225 59.0346 125.769 57.864 127.632 55.6013C128.925 56.7573 128.721 58.4213 129.858 60.0906C127.353 59.448 125.898 60.5653 124.621 61.8666C126.217 63.12 127.992 62.7533 129.621 62.1853Z" fill="white"/>
<path d="M78.4746 25.7833C76.9266 25.9033 75.3759 26.0886 73.6079 25.5766C75.9532 23.1046 74.6959 20.2179 74.9266 17.5926C74.3732 17.1579 73.9839 17.2539 73.7559 17.7153C73.5372 18.1553 73.3012 18.4553 72.6879 18.3113C71.9772 17.4793 72.3732 16.4913 72.4159 15.2286C75.0386 15.0353 77.5412 16.1739 80.0346 15.8286C80.5612 16.7459 80.4412 17.4899 80.2146 18.2219C79.2332 18.8046 78.8652 17.7073 78.1732 17.5126C76.5092 20.3046 76.5879 23.2246 78.3986 25.8646L78.4746 25.7833Z" fill="white"/>
<path d="M54.0566 126.778C56.6633 125.853 57.8553 121.561 56.2713 118.925C57.8366 118.598 59.3166 118.491 60.7846 118.987C61.118 122.426 57.658 125.495 60.3566 129.19C58.0126 128.602 55.6433 128.911 54.0566 126.778Z" fill="white"/>
<path d="M29.7804 35.1951C32.4097 37.6951 34.4217 40.3017 38.0777 41.0044C37.311 42.4124 36.7497 43.8671 35.3124 44.8164C33.835 41.7524 30.3977 38.9897 27.3457 38.4004C27.4044 36.7257 28.875 36.2231 29.7804 35.1951Z" fill="white"/>
<path d="M113.346 97.9663C113.858 96.8837 114.158 96.2957 114.418 95.6903C115.107 94.0863 115.611 94.149 116.924 95.4103C118.984 97.3863 121.494 98.8703 124.754 98.7997C124.516 100.46 123.622 101.606 122.112 102.694C121.231 101.172 119.787 100.217 118.332 99.4063C116.93 98.625 115.563 97.501 113.346 97.9663Z" fill="white"/>
<path d="M125.632 50.1027C127.103 50.9187 126.754 52.5027 127.595 53.7507C123.904 54.0187 120.679 55.104 117.882 57.5547C117.078 56.32 116.331 55.188 116.047 53.7467C119.808 53.8867 122.742 52.372 125.632 50.1027Z" fill="white"/>
<path d="M49.4986 84.1249C46.3719 85.8142 43.7053 87.4902 40.6239 85.4289C40.0586 85.0502 39.5999 85.7395 39.4959 86.2369C39.3359 87.0062 39.9133 87.4422 40.5573 87.6755C43.2773 88.6635 47.0306 87.3129 49.4986 84.1249ZM82.9626 56.0769C84.5866 54.4075 86.1879 52.6822 87.8759 51.0489C89.5853 49.3969 90.2413 47.5195 89.5613 45.0409C86.7986 48.2595 84.5679 51.7209 81.0866 53.9209C81.3159 55.0249 82.0346 55.5022 82.9626 56.0769ZM89.5173 52.0995C87.5759 54.1289 85.5559 55.5035 84.3066 57.7769C86.2466 59.0982 86.6399 61.6969 89.1559 62.6342C88.8226 59.1275 90.5066 55.9409 89.5173 52.0995ZM59.3666 110.67C61.7693 106.826 64.0039 103.25 66.2399 99.6729C62.9639 101.48 61.6106 105.166 58.4386 107.081C56.7066 105.414 54.9639 103.736 53.2213 102.058C53.0653 102.222 52.9106 102.386 52.7546 102.55C54.7133 105.309 56.4373 108.252 59.3666 110.67ZM96.8079 45.4702C96.2346 47.5315 96.4013 49.1835 97.4279 50.5595C99.2826 53.0435 101.216 55.4849 103.603 57.4942C106.283 59.7502 108.711 60.1049 111.755 58.3969C103.752 57.3782 100.481 51.3369 96.8079 45.4702ZM70.0386 98.3155C67.3293 102.852 65.0519 107.541 63.0773 112.664C64.9506 112.234 66.3599 114.026 68.2826 112.897C68.0159 107.988 69.4706 103.226 70.0386 98.3155ZM109.748 56.4555C107.136 49.6595 102.771 44.3582 96.6266 40.5342C99.0439 47.4355 102.787 53.2649 109.748 56.4555ZM94.5399 82.1889C92.2479 84.2182 91.1466 86.2169 91.1199 88.8249C91.0679 93.6995 91.2066 93.6835 96.0973 93.9142C98.5653 94.0302 99.5386 92.8075 100.648 91.0209C103.063 87.1289 101.184 82.3822 97.0693 78.4315C98.3719 82.3075 101.563 85.6195 98.7813 89.6969C97.4799 89.2622 97.5346 87.4022 95.9933 87.5129C95.5693 88.8489 96.1959 90.3529 95.3866 91.9395C91.5893 89.0435 93.7679 85.7342 94.5399 82.1889ZM112.548 64.1209C112.749 61.6342 111.784 60.5902 109.483 60.8329C106.221 61.1769 103.737 59.7355 101.541 57.4702C100.269 56.1569 99.1226 54.6435 97.3466 53.6595V62.7289C102.488 63.2342 107.404 64.6289 112.548 64.1209ZM80.8826 112.788C85.6439 112.14 89.3679 110.429 92.5679 108.78C89.8226 105.822 87.2213 103.02 84.6239 100.221C82.3493 103.912 82.0106 108.112 80.8826 112.788ZM72.0946 113.954C73.3666 113.954 74.6213 114.148 75.7799 113.897C76.7813 113.678 77.6759 113.205 77.7719 111.694C78.0839 106.769 79.1933 101.964 80.7399 97.2849C81.3026 95.5822 81.1333 94.7209 79.2493 94.2009C76.5786 93.4635 75.6319 93.5742 75.0213 95.5769C74.4213 97.5515 74.0826 99.6075 73.6493 101.632C72.7973 105.602 72.3093 109.626 72.0946 113.954ZM43.3146 66.1769C42.6679 66.7942 42.6559 67.3435 42.8466 67.8822C43.8973 70.8435 46.2679 71.8422 49.9666 70.7209C54.0159 69.4915 57.4933 67.1702 60.8173 64.6289C63.4413 62.6222 66.2946 61.3995 69.6586 61.5355C70.8853 61.5849 72.1173 61.5515 73.3466 61.5075C74.2266 61.4755 74.8039 60.9875 74.9586 60.1102C75.1559 58.9902 74.3079 59.0235 73.5613 58.7262C70.0559 57.3289 66.7426 58.2502 63.7106 59.8329C60.6106 61.4502 57.7693 63.5742 54.8626 65.5489C51.0879 68.1155 47.2959 69.7982 43.3146 66.1769ZM48.2199 91.6955C52.5986 93.3862 55.3533 96.8102 58.5706 99.8862C58.8559 98.4329 60.2386 97.9409 60.6159 96.8515C59.1066 95.8435 58.8293 94.4062 58.8866 92.7969C59.0213 89.0209 58.2453 85.3515 57.5613 81.6702C57.4213 80.9129 57.4186 80.1675 56.3746 80.0089C54.9866 84.7169 53.3146 89.2595 48.2199 91.6955ZM47.4133 61.1075C50.8973 62.8302 54.3946 62.6729 57.5399 60.5435C61.1719 58.0849 64.9079 55.9062 69.4453 55.2795C63.0506 48.8502 51.1253 52.9182 47.4133 61.1075ZM35.7653 88.0102C35.6293 85.8115 36.5506 84.1022 38.3919 83.2902C40.9999 82.1382 41.3026 79.7169 41.2679 77.6729C41.2146 74.5582 40.3159 71.4582 39.7866 68.4182H32.7919C32.2213 75.2649 32.7013 81.7635 35.7653 88.0102ZM68.3919 81.0329C72.1079 80.0342 72.1079 80.0342 72.6479 76.5462C73.4439 76.0929 74.7133 76.7289 75.4186 75.3382C74.4773 71.9555 74.2293 68.2502 74.2799 64.3715C71.0399 64.0342 68.1666 64.0089 65.3746 65.5595C62.4733 67.1715 59.7733 69.0729 56.9906 70.8595C53.8573 72.8715 53.7973 72.7782 55.4213 76.2195C56.6919 76.2755 55.7213 74.4449 57.0679 74.4275C58.2453 75.0955 58.4719 76.3969 58.9159 77.6435C60.2679 81.4355 62.3333 84.5675 66.8133 85.0169C68.5786 85.1929 70.4506 85.4955 71.3693 83.5395C70.9919 81.9182 69.4999 81.7929 68.3919 81.0329ZM33.3399 64.5022C33.7173 64.6915 34.0013 64.8609 34.3053 64.9849C38.6533 66.7702 42.1559 65.4862 43.9226 61.2675C46.3679 55.4262 50.2293 51.3409 56.6346 49.8942C62.0399 48.6729 69.6773 49.5862 72.8346 54.5515C73.4546 55.5262 74.3079 55.7929 75.1866 56.1302C78.7346 57.4929 79.1839 58.5115 77.6999 62.1075C77.2426 63.2102 76.4733 64.2875 77.6679 65.6729C80.0053 64.1089 83.0733 65.8289 85.4653 63.9742C84.0493 61.5702 82.3959 59.2822 80.1559 57.6622C77.5106 55.7475 75.3706 53.3529 73.0533 51.1209C71.2813 49.4142 69.6173 47.5929 67.8146 45.9222C65.3773 43.6635 62.6199 42.6889 59.4559 44.4222C56.3733 46.1102 53.3506 47.9062 50.2559 49.5715C46.4826 51.6009 42.6986 53.6982 38.2839 52.5035C35.8999 56.2009 34.7053 60.2062 33.3399 64.5022ZM41.0986 49.2515C41.6466 49.4475 42.1226 49.3795 42.6893 49.1582C47.6333 47.2275 52.0586 44.3089 56.7266 41.8555C60.7466 39.7422 64.7293 38.7195 68.7613 41.9689C72.6746 45.1222 76.1359 48.6969 79.2946 52.5769C83.4759 49.9222 86.7546 46.4035 89.3333 42.1889C89.7519 41.5049 89.9653 40.4262 91.2199 40.6902C92.8586 41.0342 93.7079 39.6969 94.8719 38.9662C73.2359 24.9062 48.3919 36.1569 41.0986 49.2515ZM103.625 99.9542C110.931 91.3769 114.025 81.6542 113.995 70.8342C113.989 69.0369 113.019 68.1809 111.012 68.1982C100.38 68.2835 89.7466 68.2355 79.1146 68.2462C78.4626 68.2462 77.7599 68.1102 77.1959 68.6835C76.5399 70.9422 77.4786 73.0355 78.1333 75.0969C78.7359 76.9955 77.9079 77.7595 76.3586 78.2769C75.7586 78.4769 74.9946 78.0835 74.3199 79.0342C74.3199 80.6675 74.3399 82.5582 74.3159 84.4502C74.2786 87.2329 73.8853 87.5969 70.9986 87.7502C69.5946 87.8249 68.1679 87.5289 66.3453 88.0795C69.4693 89.2382 72.3346 89.8595 75.1933 90.4662C80.2306 91.5355 85.0733 92.8782 88.3359 97.3662C88.9826 98.2555 89.7946 99.1609 91.1506 99.7382C91.2826 96.9982 88.5053 96.1622 88.1453 94.2049C88.7479 93.4995 89.7266 94.2115 90.3039 93.3049C87.9693 91.3689 86.6813 88.9115 87.1786 85.9769C88.4306 78.5742 92.0399 72.7049 99.3439 68.5942C96.8879 74.1529 101.527 76.5035 103.305 80.0222C106.808 80.3009 106.817 83.5969 107.712 85.7302C108.455 87.5009 108.315 89.8529 107.289 91.8915C106.851 92.7609 105.387 92.9622 105.929 94.6809C106.167 95.4289 104.409 96.8062 103.561 97.9009C103.183 98.3915 103.188 98.9209 103.625 99.9542ZM89.7653 32.5036C95.3586 35.3662 100.593 38.6662 104.976 43.3075C108.088 46.6049 110.755 50.1182 112.696 54.1982C113.207 57.8902 115.431 61.0982 115.679 64.8702C115.943 68.8875 117.036 72.7395 116.284 76.9702C115.697 80.2702 114.704 83.5955 114.713 87.0209C110.049 100.809 100.827 110.036 87.0439 114.701C86.1693 114.72 85.3319 114.702 84.4346 114.945C77.7759 116.75 71.1106 116.977 64.2826 115.522C62.0573 115.049 59.9733 113.805 57.5986 114.028C49.3026 111.268 42.8626 106.09 37.8679 98.9795C35.8133 96.0542 34.1466 92.9262 32.6199 89.7115C32.0239 86.0462 30.5866 82.5635 30.2333 78.8489C29.8533 74.8622 29.8986 70.8875 30.2493 66.8795C30.5093 63.9075 32.2039 61.2502 31.8786 58.2049C33.8933 54.7555 35.4693 51.0862 37.7293 47.7462C41.6453 41.9582 46.8319 37.7769 52.9199 34.5702C54.6839 33.6409 56.4666 32.7435 58.2413 31.8315C61.2879 32.1529 63.9413 30.4209 66.9239 30.2089C71.2546 29.9022 75.5413 29.7609 79.8733 30.2955C83.2586 30.7129 86.3586 32.2702 89.7653 32.5036Z" fill="white"/>
<path d="M63.7988 71.4575C64.5908 68.7935 66.7562 67.7469 68.6268 66.4722C69.7802 65.6855 70.9962 66.5442 72.0388 67.1389C73.0935 67.7402 73.2348 68.6602 72.5748 69.7055C71.6428 71.1815 73.9082 72.6335 72.5215 74.2202C70.8428 73.9175 72.0548 69.7775 68.6842 71.2909C67.3962 71.8695 65.5388 70.1215 63.7988 71.4575Z" fill="white"/>
<path d="M78.8054 98.9103C78.1254 99.7423 78.5707 100.737 78.104 101.59C77.0667 102.248 76.4347 100.557 75.5094 101.23C74.868 100.226 74.816 99.3303 75.3934 98.5863C76.4587 97.2183 77.5254 98.117 78.8054 98.9103Z" fill="white"/>
<path d="M74.6529 104.854C75.5929 104.493 76.5423 104.48 77.7649 105.017C76.7649 105.896 77.7143 108.08 75.4023 107.888C74.3689 107.801 74.3756 107.726 74.6529 104.854Z" fill="white"/>
</svg>
