<svg width="168" height="45" viewBox="0 0 168 45" fill="none" xmlns="http://www.w3.org/2000/svg">
<path fill-rule="evenodd" clip-rule="evenodd" d="M63.356 21.294V29.1017C62.0747 29.5275 60.7933 29.6695 59.512 29.6695C54.2442 29.6695 50.9696 26.6884 50.9696 21.8618C50.9696 17.0352 54.2442 14.0541 59.6544 14.0541C61.3628 14.0541 63.2137 14.1961 64.7798 14.9058L65.3493 15.1898L66.4882 12.2086L65.9187 11.9247C64.0679 11.2149 61.9323 10.7891 59.9391 10.7891C50.9696 10.7891 46.8408 16.4674 46.8408 21.8618C46.6985 24.8429 47.9798 27.6821 50.1154 29.6695C52.251 31.7989 55.2408 32.9345 59.0849 32.9345C61.6476 32.9345 64.3527 32.5087 66.773 31.515H67.0577V21.294H63.356Z" fill="#54565B"/>
<path d="M77.7347 11.2188H73.8906V32.7964H77.7347V11.2188Z" fill="#54565B"/>
<path fill-rule="evenodd" clip-rule="evenodd" d="M88.8402 29.3894V11.2188H84.9961V32.7964H98.8062V29.3894H88.8402Z" fill="#54565B"/>
<path fill-rule="evenodd" clip-rule="evenodd" d="M107.348 29.3894V22.8593H116.887V19.7362H107.348V14.3418H117.599V11.2188H103.646V32.7964H118.026V29.3894H107.348Z" fill="#54565B"/>
<path fill-rule="evenodd" clip-rule="evenodd" d="M132.263 15.4775C132.547 16.0453 134.398 21.4397 134.968 23.0013H129.131C129.131 23.0013 131.978 16.0453 132.263 15.4775ZM134.256 11.2188H130.412L122.154 32.7964H125.998L128.419 26.4083H136.107L138.527 32.7964H142.656L134.256 11.2188Z" fill="#54565B"/>
<path fill-rule="evenodd" clip-rule="evenodd" d="M164.582 13.7702C162.304 11.9247 158.745 10.7891 154.332 10.7891H147.213V14.0541H154.332C157.606 14.0541 160.169 14.9058 161.735 16.1835C163.016 17.6031 163.728 19.4485 163.728 21.294C163.87 23.4233 163.016 25.6947 161.45 27.2562C159.742 28.8177 157.037 29.6695 153.762 29.6695H151.057V19.7324H147.213V32.6506H147.498C149.491 32.9345 151.342 32.9345 153.335 32.9345C158.033 32.9345 161.877 31.515 164.44 29.3856C166.718 27.2562 167.857 24.2751 167.715 21.294C167.715 18.4548 166.576 15.7576 164.582 13.7702Z" fill="#54565B"/>
<path fill-rule="evenodd" clip-rule="evenodd" d="M34.5972 0H34.3124C5.55317 2.6972 1.99386 21.7196 11.3904 27.9657C9.68197 34.9217 11.3904 34.9217 11.3904 34.9217C11.5328 32.7923 11.9599 30.8049 12.5294 28.6755C16.0887 14.9056 25.2006 3.12308 34.3124 0.141958C34.5022 0.236597 34.5972 0.189277 34.5972 0Z" fill="#C5203F"/>
<path fill-rule="evenodd" clip-rule="evenodd" d="M32.7457 4.82298V4.53906L32.4609 4.82298C30.3254 9.36564 29.3287 15.8957 27.7626 20.7223C25.6271 26.4006 21.9254 30.3754 16.2305 29.8076V43.7195C16.2305 43.7195 0.996608 37.0475 0.996608 26.2587V6.1006L13.383 4.96494C13.5728 4.96494 13.6678 4.8703 13.6678 4.68102H0V26.1167C0 38.3251 16.2305 44.9971 16.2305 44.9971C16.2305 44.9971 32.7457 38.0412 32.7457 26.2587V4.82298Z" fill="#C5203F"/>
</svg>
