<svg width="4000" height="745" viewBox="0 0 4000 745" fill="none" xmlns="http://www.w3.org/2000/svg">
<path d="M861.639 370.671C861.639 305.324 872.187 252.069 893.283 210.906C914.379 169.743 941.907 139.643 975.867 120.605C1010.34 101.052 1047.65 91.276 1087.78 91.276C1127.91 91.276 1164.96 101.052 1198.92 120.605C1233.39 139.643 1261.18 169.743 1282.27 210.906C1303.37 252.069 1313.92 305.324 1313.92 370.671C1313.92 436.017 1303.37 489.272 1282.27 530.435C1261.18 571.598 1233.39 601.956 1198.92 621.509C1164.96 640.547 1127.91 650.066 1087.78 650.066C1047.65 650.066 1010.34 640.547 975.867 621.509C941.907 601.956 914.379 571.598 893.283 530.435C872.187 489.272 861.639 436.017 861.639 370.671ZM959.659 370.671C959.659 412.863 965.319 447.852 976.639 475.637C987.959 503.422 1003.14 524.518 1022.18 538.925C1041.73 552.818 1063.34 559.764 1087.01 559.764C1110.68 559.764 1132.29 552.818 1151.84 538.925C1171.91 524.518 1187.6 503.422 1198.92 475.637C1210.75 447.852 1216.67 412.863 1216.67 370.671C1216.67 327.964 1210.75 292.718 1198.92 264.933C1187.09 237.148 1171.39 216.309 1151.84 202.416C1132.29 188.524 1110.93 181.578 1087.78 181.578C1063.6 181.578 1041.73 188.781 1022.18 203.188C1003.14 217.081 987.959 237.92 976.639 265.705C965.319 293.49 959.659 328.479 959.659 370.671Z" fill="white"/>
<path d="M1359.2 640.804V100.538H1542.12C1575.05 100.538 1603.87 106.712 1628.56 119.061C1653.78 131.41 1673.33 150.448 1687.22 176.175C1701.63 201.902 1708.83 235.604 1708.83 277.282C1708.83 317.931 1701.11 351.89 1685.68 379.161C1670.76 406.431 1650.69 426.756 1625.48 440.134C1600.26 453.512 1572.48 460.201 1542.12 460.201H1454.14V640.804H1359.2ZM1454.14 378.389H1529.77C1545.72 378.389 1559.87 374.53 1572.22 366.812C1584.57 359.094 1594.09 348.031 1600.78 333.624C1607.98 319.217 1611.58 301.98 1611.58 281.913C1611.58 261.846 1607.98 244.866 1600.78 230.973C1594.09 216.566 1584.57 205.761 1572.22 198.557C1559.87 190.839 1545.72 186.98 1529.77 186.98H1454.14V378.389Z" fill="white"/>
<path d="M2018.02 100.538V186.98H1837.42V335.939C1853.88 329.765 1871.38 324.877 1889.9 321.275C1908.94 317.159 1927.98 314.843 1947.01 314.329C1966.05 313.3 1983.8 313.814 2000.27 315.872V398.456L1993.32 403.087C1980.97 399.485 1966.05 397.684 1948.56 397.684C1931.06 397.17 1912.54 398.456 1892.99 401.543C1873.43 404.116 1854.91 408.747 1837.42 415.436V554.361H2018.02V640.804H1742.48V100.538H2018.02Z" fill="white"/>
<path d="M2331.74 100.538H2424.36V640.804H2313.99L2164.26 273.423H2155L2158.86 640.804H2065.47V100.538H2175.84L2326.34 471.778H2335.6L2331.74 100.538Z" fill="white"/>
<path d="M2491.71 640.804V100.538H2640.67L2728.66 474.865H2735.6L2822.05 100.538H2971V640.804H2878.39L2881.47 225.571H2872.98L2771.88 640.804H2690.84L2590.5 225.571H2581.24L2585.1 640.804H2491.71Z" fill="white"/>
<path d="M3038.55 100.538H3133.48V640.804H3038.55V100.538Z" fill="white"/>
<path d="M3468.02 100.538H3560.64V640.804H3450.27L3300.54 273.423H3291.27L3295.13 640.804H3201.75V100.538H3312.11L3462.62 471.778H3471.88L3468.02 100.538Z" fill="white"/>
<path d="M3773.09 100.538C3816.31 100.538 3854.9 110.314 3888.86 129.866C3922.82 148.904 3949.83 178.233 3969.9 217.853C3989.97 257.472 4000 308.412 4000 370.671C4000 432.415 3989.97 483.355 3969.9 523.489C3949.83 563.108 3922.82 592.694 3888.86 612.247C3854.9 631.285 3816.31 640.804 3773.09 640.804H3627.99V100.538H3773.09ZM3771.55 551.274C3811.16 551.274 3842.81 535.581 3866.48 504.194C3890.66 472.292 3902.75 427.785 3902.75 370.671C3902.75 312.528 3890.66 268.02 3866.48 237.148C3842.29 205.761 3810.65 190.067 3771.55 190.067H3722.92V551.274H3771.55Z" fill="white"/>
<path d="M480.876 109.514C464.565 81.6918 446.251 59.2167 426.705 42.0346C407.308 59.1092 389.048 81.4769 372.656 109.057C372.819 109.339 372.995 109.608 373.157 109.89C415.755 182.353 437.128 277.264 437.263 372.122C437.114 466.979 415.755 561.89 373.157 634.353C343.784 684.073 308.375 716.959 271.097 732.664C255.273 739.394 239.017 743.505 222.828 744.257H324.577C381.076 744.257 437.94 707.999 480.876 634.743C523.528 562.199 544.901 467.154 544.995 372.135C544.901 277.13 523.528 182.071 480.876 109.527V109.514Z" fill="#246BEE"/>
<path d="M264.437 634.73C280.748 662.552 299.062 685.027 318.608 702.209C338.004 685.134 356.264 662.767 372.656 635.187C372.494 634.904 372.318 634.636 372.156 634.354C329.558 561.891 308.185 466.979 308.05 372.122C308.198 277.264 329.558 182.353 372.156 109.89C401.528 60.1707 436.938 27.2843 474.216 11.5799C490.04 4.8629 506.296 0.752091 522.485 -0.000213623H426.759H420.736C364.237 -0.000213623 307.373 36.2582 264.437 109.514C221.785 182.057 200.412 277.103 200.317 372.122C200.412 467.127 221.785 562.186 264.437 634.73Z" fill="#FFA600"/>
<path d="M272.491 732.046C235.714 716.113 200.832 683.442 171.825 634.354C129.227 561.891 107.854 466.98 107.719 372.122C107.868 277.265 129.227 182.353 171.825 109.89C201.198 60.1709 236.607 27.2845 273.885 11.5801C289.709 4.86311 305.965 0.752305 322.168 0H220.418C163.92 0 107.055 36.2584 64.1195 109.514C21.4679 182.058 0.0947513 277.117 0 372.122C0.0947513 467.127 21.4679 562.186 64.1195 634.73C107.055 707.986 163.92 744.244 220.418 744.244H222.828C239.017 743.492 255.287 739.381 271.097 732.651C271.557 732.449 272.031 732.248 272.491 732.046Z" fill="#FD015F"/>
<path d="M680.125 109.514C637.202 36.2582 580.325 -0.000213623 523.839 -0.000213623H522.499C506.31 0.752091 490.04 4.8629 474.23 11.5933C473.58 11.862 472.944 12.1576 472.295 12.4397C508.869 28.453 543.561 61.0439 572.42 109.903C615.017 182.366 636.39 277.278 636.526 372.135C636.377 466.993 615.017 561.904 572.42 634.367C543.047 684.086 507.637 716.973 470.359 732.677C454.535 739.408 438.279 743.519 422.09 744.271H523.839C580.338 744.271 637.202 708.012 680.138 634.757C722.79 562.213 744.163 467.167 744.258 372.149C744.163 277.143 722.79 182.084 680.138 109.541L680.125 109.514Z" fill="#3DD695"/>
</svg>
