<svg width="586" height="520" viewBox="0 0 586 520" fill="none" xmlns="http://www.w3.org/2000/svg">
<path fill-rule="evenodd" clip-rule="evenodd" d="M328.684 49.7829C346.273 54.7063 362.877 64.0857 376.712 77.9211L481.079 182.288C524.037 225.246 524.037 294.894 481.079 337.851L376.712 442.218C363.006 455.924 346.583 465.257 329.177 470.217C366.201 480.58 407.59 471.201 436.712 442.079L541.079 337.712C584.037 294.754 584.037 225.106 541.079 182.148L436.712 77.7817C407.46 48.5299 365.833 39.197 328.684 49.7829Z" fill="white"/>
<path fill-rule="evenodd" clip-rule="evenodd" d="M274.478 244.758C275.852 243.456 276.539 241.865 276.539 239.985L275.109 45.8755C301.167 47.3326 326.805 58.0145 346.712 77.9211L451.079 182.288C494.036 225.245 494.036 294.894 451.079 337.851L346.712 442.218C317.226 471.705 275.164 480.951 237.79 469.958L235.218 362.497C240.183 362.36 244.769 361.336 248.977 359.424C253.541 357.384 257.456 354.586 260.723 351.031C264.062 347.403 266.644 343.235 268.468 338.528C270.292 333.82 271.213 328.754 271.232 323.329C271.25 317.905 270.363 312.845 268.571 308.15C266.779 303.454 264.225 299.34 260.91 295.808C257.668 292.202 253.771 289.395 249.222 287.385C247.093 286.429 244.865 285.703 242.538 285.206L273.592 245.446C273.896 245.244 274.192 245.014 274.478 244.758ZM219.033 359.326C214.737 357.334 210.985 354.628 207.778 351.21C204.535 347.605 202.018 343.455 200.226 338.759C198.433 334.064 197.547 329.004 197.565 323.579C197.583 318.155 198.505 313.089 200.329 308.381C202.153 303.674 204.699 299.542 207.965 295.987C211.305 292.359 215.22 289.525 219.711 287.485C220.783 286.998 221.88 286.569 223.001 286.197L262.927 233.028L261.548 45.9493C235.906 47.6635 210.749 58.3208 191.148 77.9211L86.7817 182.288C43.824 225.246 43.8241 294.894 86.7818 337.851L191.148 442.218C200.447 451.517 210.996 458.802 222.254 464.075L219.033 359.326ZM222.595 300.928C225.416 299.002 228.607 297.868 232.167 297.527L232.639 297.88L232.964 297.464C233.447 297.434 233.936 297.418 234.433 297.416C238.917 297.401 242.855 298.545 246.247 300.848C249.638 303.151 252.304 306.288 254.243 310.26C256.183 314.159 257.144 318.531 257.128 323.377C257.111 328.223 256.12 332.639 254.154 336.623C252.187 340.536 249.501 343.655 246.093 345.981C242.686 348.307 238.74 349.478 234.256 349.493C229.771 349.508 225.833 348.364 222.442 346.061C219.05 343.758 216.385 340.657 214.445 336.758C212.578 332.787 211.653 328.378 211.669 323.532C211.686 318.613 212.641 314.198 214.535 310.286C216.501 306.373 219.188 303.254 222.595 300.928ZM241.358 175.54C237.959 172.285 232.787 170.658 225.844 170.658H198.503C196.623 170.658 195.032 171.309 193.73 172.611C192.5 173.84 191.885 175.395 191.885 177.276V239.985C191.885 241.865 192.5 243.456 193.73 244.758C195.032 245.988 196.623 246.603 198.503 246.603H225.518C228.194 246.603 230.979 246.313 233.872 245.735C236.765 245.084 239.478 243.926 242.009 242.263C244.541 240.599 246.566 238.249 248.085 235.211C249.676 232.173 250.471 228.267 250.471 223.494C250.471 219.154 249.567 215.61 247.759 212.861C246.023 210.041 243.781 207.871 241.033 206.352C239.854 205.651 238.653 205.048 237.432 204.544C240.269 203.138 242.446 201.281 243.962 198.974C245.625 196.371 246.457 193.369 246.457 189.97C246.457 183.605 244.757 178.795 241.358 175.54ZM205.989 183.46H223.891C226.422 183.46 228.447 184.183 229.966 185.63C231.558 187.004 232.353 189.246 232.353 192.356C232.353 194.96 231.521 196.949 229.858 198.323C228.194 199.698 226.314 200.385 224.216 200.385H205.989V183.46ZM205.989 213.187H224.759C226.278 213.187 227.941 213.368 229.749 213.729C231.558 214.091 233.113 214.995 234.415 216.442C235.716 217.888 236.367 220.239 236.367 223.494C236.367 227.038 235.391 229.714 233.438 231.522C231.485 233.258 228.845 234.126 225.518 234.126H205.989V213.187ZM318.568 246.603C316.543 246.603 314.88 245.988 313.578 244.758C312.276 243.456 311.625 241.865 311.625 239.985V183.134H294.591C292.711 183.134 291.12 182.556 289.818 181.399C288.588 180.241 287.973 178.722 287.973 176.842C287.973 174.961 288.588 173.479 289.818 172.394C291.12 171.236 292.711 170.658 294.591 170.658H342.762C344.643 170.658 346.198 171.236 347.427 172.394C348.729 173.551 349.38 175.07 349.38 176.95C349.38 178.831 348.729 180.35 347.427 181.507C346.198 182.592 344.643 183.134 342.762 183.134H325.729V239.985C325.729 241.865 325.042 243.456 323.668 244.758C322.366 245.988 320.666 246.603 318.568 246.603ZM362.817 357.411C366.864 358.626 371.418 359.226 376.481 359.209C381.4 359.192 385.959 358.272 390.161 356.45C394.434 354.627 397.879 352.012 400.494 348.603C403.109 345.195 404.425 341.14 404.441 336.439C404.453 332.75 403.922 329.642 402.845 327.114C401.769 324.514 400.149 322.386 397.985 320.729C395.821 319.001 393.077 317.6 389.754 316.526C386.503 315.452 382.708 314.525 378.371 313.744C375.047 313.104 372.192 312.391 369.808 311.603C367.424 310.743 365.583 309.629 364.286 308.259C363.061 306.816 362.453 305.01 362.46 302.84C362.466 301.032 363.014 299.439 364.104 298.061C365.193 296.683 366.788 295.593 368.888 294.79C371.061 293.987 373.702 293.58 376.813 293.57C378.693 293.563 380.717 293.882 382.885 294.526C385.053 295.097 387.112 295.849 389.061 296.783C391.011 297.644 392.563 298.579 393.717 299.588C394.583 300.236 395.558 300.558 396.643 300.554C398.306 300.549 399.755 299.893 400.989 298.587C402.223 297.281 402.843 295.832 402.848 294.241C402.856 292.071 401.813 290.158 399.722 288.501C397.197 286.34 393.912 284.579 389.867 283.219C385.894 281.786 381.556 281.077 376.855 281.093C371.864 281.11 367.305 281.993 363.176 283.743C359.047 285.493 355.748 288.036 353.277 291.371C350.879 294.707 349.672 298.725 349.656 303.426C349.646 306.536 350.142 309.355 351.146 311.884C352.151 314.339 353.626 316.504 355.572 318.378C357.591 320.179 360.082 321.69 363.043 322.909C366.004 324.057 369.437 324.913 373.341 325.478C377.462 326.043 380.858 326.863 383.531 327.939C386.204 328.942 388.188 330.201 389.485 331.716C390.782 333.23 391.427 335.073 391.419 337.242C391.413 339.051 390.72 340.68 389.341 342.132C387.962 343.511 386.15 344.638 383.905 345.513C381.66 346.317 379.2 346.723 376.524 346.732C372.546 346.745 369.184 346.178 366.44 345.03C363.767 343.882 361.061 342.191 358.32 339.959C357.238 339.094 356.01 338.665 354.636 338.669C352.827 338.675 351.306 339.331 350.072 340.638C348.911 341.871 348.327 343.32 348.322 344.983C348.318 345.996 348.568 347.008 349.071 348.018C349.574 349.029 350.294 349.931 351.231 350.723C354.909 353.893 358.771 356.122 362.817 357.411ZM309.873 358.35C307.847 358.357 306.186 357.747 304.888 356.522C303.591 355.225 302.945 353.636 302.952 351.755L303.144 294.905L286.111 294.963C284.23 294.969 282.641 294.396 281.343 293.243C280.118 292.09 279.508 290.573 279.514 288.692C279.521 286.812 280.141 285.327 281.374 284.238C282.68 283.076 284.273 282.492 286.153 282.486L334.324 282.322C336.205 282.316 337.758 282.889 338.984 284.042C340.282 285.195 340.927 286.712 340.921 288.592C340.915 290.473 340.259 291.994 338.953 293.156C337.72 294.245 336.163 294.793 334.282 294.799L317.249 294.857L317.056 351.707C317.049 353.588 316.357 355.182 314.978 356.488C313.672 357.722 311.97 358.343 309.873 358.35ZM182.577 287.72C179.188 284.476 174.022 282.866 167.079 282.89L139.738 282.983C137.858 282.989 136.264 283.646 134.958 284.952C133.724 286.186 133.104 287.743 133.098 289.623L132.885 352.333C132.879 354.213 133.488 355.802 134.713 357.1C136.011 358.325 137.6 358.935 139.481 358.928L166.495 358.836C169.172 358.827 171.957 358.529 174.852 357.94C177.748 357.279 180.464 356.113 183.001 354.441C185.538 352.769 187.571 350.411 189.101 347.368C190.702 344.325 191.511 340.416 191.527 335.643C191.542 331.303 190.65 327.762 188.851 325.019C187.125 322.205 184.89 320.042 182.147 318.533C180.97 317.836 179.772 317.237 178.552 316.737C181.394 315.321 183.577 313.457 185.101 311.145C186.773 308.536 187.615 305.531 187.627 302.132C187.648 295.767 185.965 290.963 182.577 287.72ZM147.181 295.76L165.082 295.699C167.614 295.69 169.637 296.407 171.151 297.848C172.737 299.217 173.525 301.456 173.515 304.567C173.506 307.17 172.667 309.162 170.999 310.542C169.331 311.922 167.448 312.616 165.35 312.623L147.124 312.685L147.181 295.76ZM147.08 325.487L165.849 325.423C167.368 325.418 169.031 325.593 170.838 325.949C172.645 326.304 174.197 327.203 175.494 328.645C176.791 330.087 177.434 332.436 177.423 335.69C177.411 339.235 176.426 341.914 174.467 343.729C172.508 345.471 169.865 346.348 166.538 346.36L147.009 346.426L147.08 325.487Z" fill="white"/>
</svg>
