<svg width="586" height="520" viewBox="0 0 586 520" fill="none" xmlns="http://www.w3.org/2000/svg">
<path fill-rule="evenodd" clip-rule="evenodd" d="M328.684 49.7829C346.273 54.7063 362.877 64.0857 376.712 77.9211L481.079 182.288C524.036 225.246 524.036 294.894 481.079 337.851L376.712 442.218C363.006 455.924 346.583 465.257 329.177 470.217C366.201 480.58 407.59 471.201 436.712 442.079L541.079 337.712C584.036 294.754 584.036 225.106 541.079 182.148L436.712 77.7817C407.46 48.5299 365.833 39.197 328.684 49.7829Z" fill="#EBEDF0"/>
<path fill-rule="evenodd" clip-rule="evenodd" d="M346.712 77.9213C303.754 34.9637 234.106 34.9637 191.148 77.9214L86.7817 182.288C43.8241 225.246 43.8241 294.894 86.7818 337.852L191.149 442.218C234.106 485.176 303.754 485.176 346.712 442.218L451.079 337.852C494.036 294.894 494.036 225.246 451.079 182.288L346.712 77.9213ZM269.25 249.617L397.299 175.765C400.027 180.542 401.474 185.939 401.5 191.436V307.799C401.494 313.241 400.054 318.585 397.323 323.296C394.592 328.007 390.667 331.92 385.941 334.64L283.409 393.753C278.994 395.885 274.155 396.999 269.25 397.011C264.52 396.98 259.837 395.925 255.558 393.908L152.559 334.64C147.833 331.92 143.908 328.007 141.177 323.296C138.446 318.585 137.006 313.241 137 307.799V191.436C137.031 185.943 138.478 180.544 141.201 175.765L269.25 249.617ZM213.94 159.03C213.525 158.579 213.058 158.205 212.541 157.906C211.105 157.077 209.341 156.798 207.25 157.07C205.27 157.335 203.669 157.925 202.449 158.84C201.759 159.357 201.217 160.03 200.824 160.859C200.54 161.681 200.712 162.695 201.34 163.902C202.037 165.361 203.182 166.867 204.772 168.419C206.363 169.971 208.221 171.36 210.347 172.587C214.943 175.24 219.735 176.985 224.721 177.821C229.707 178.657 234.58 178.549 239.341 177.495C244.103 176.441 248.447 174.443 252.373 171.499C255.345 169.271 257.415 166.805 258.583 164.099C259.861 161.388 260.033 158.705 259.096 156.053C258.325 153.568 256.434 151.389 253.423 149.518L276.307 147.61C277.412 147.544 278.484 147.389 279.523 147.143C280.615 146.858 281.506 146.457 282.195 145.94C283.575 144.906 284.256 143.785 284.239 142.579C284.279 141.405 283.409 140.304 281.628 139.276L255.257 124.054C253.878 123.258 252.305 122.913 250.536 123.019C248.821 123.085 247.353 123.575 246.133 124.49C244.859 125.445 244.258 126.506 244.328 127.673C244.398 128.84 245.123 129.821 246.502 130.617L263.51 140.435L237.154 142.542C235.832 142.694 234.707 142.89 233.779 143.128C232.908 143.4 232.101 143.814 231.358 144.371C230.191 145.247 229.527 146.201 229.368 147.236C229.266 148.303 229.875 149.218 231.197 149.981C232.231 150.578 233.228 151.013 234.187 151.285C235.256 151.55 236.3 151.835 237.316 152.141C238.39 152.479 239.559 153.013 240.823 153.742C242.489 154.704 243.696 155.858 244.442 157.204C245.246 158.584 245.416 160.019 244.951 161.511C244.544 163.036 243.332 164.555 241.315 166.066C239.193 167.658 236.845 168.732 234.272 169.288C231.752 169.805 229.264 169.917 226.806 169.625C224.459 169.327 222.395 168.663 220.614 167.635C218.833 166.607 217.518 165.496 216.67 164.302C215.879 163.142 215.34 162.021 215.053 160.94C214.784 160.151 214.413 159.514 213.94 159.03ZM334.869 172.332C333.084 169.4 330.123 166.741 325.987 164.353L305.39 152.464C303.896 151.602 302.155 151.23 300.165 151.349C298.287 151.462 296.657 152.035 295.278 153.069L249.273 187.558C247.893 188.592 247.214 189.749 247.236 191.029C247.368 192.302 248.181 193.37 249.675 194.232L270.272 206.121C275.845 209.338 281.774 211.106 288.06 211.425C294.403 211.778 300.676 210.963 306.879 208.981C313.135 206.96 318.836 204.02 323.983 200.161C327.804 197.297 330.811 194.28 333.005 191.111C335.309 187.935 336.614 184.745 336.921 181.543C337.337 178.333 336.653 175.263 334.869 172.332ZM289.987 201.976C285.99 201.923 282.183 200.851 278.563 198.762L264.343 190.554L301.752 162.51L315.972 170.718C318.672 172.276 320.495 173.997 321.44 175.881C322.385 177.764 322.614 179.727 322.127 181.769C321.693 183.772 320.623 185.794 318.916 187.836C317.319 189.872 315.274 191.824 312.78 193.694C309.437 196.2 305.787 198.212 301.83 199.73C297.984 201.241 294.036 201.99 289.987 201.976Z" fill="#EBEDF0"/>
</svg>
