<svg width="586" height="520" viewBox="0 0 586 520" fill="none" xmlns="http://www.w3.org/2000/svg">
<path fill-rule="evenodd" clip-rule="evenodd" d="M328.684 49.7829C346.273 54.7064 362.877 64.0858 376.712 77.9212L481.079 182.288C524.036 225.246 524.036 294.894 481.079 337.851L376.712 442.218C363.006 455.924 346.583 465.257 329.177 470.217C366.201 480.581 407.59 471.201 436.712 442.079L541.079 337.712C584.036 294.754 584.036 225.106 541.079 182.148L436.712 77.7818C407.46 48.53 365.833 39.1971 328.684 49.7829Z" fill="#EBEDF0"/>
<path fill-rule="evenodd" clip-rule="evenodd" d="M346.712 77.9212C303.754 34.9635 234.106 34.9636 191.148 77.9212L86.7817 182.288C43.8241 225.246 43.8241 294.894 86.7818 337.852L191.149 442.218C234.106 485.176 303.754 485.176 346.712 442.218L451.079 337.851C494.036 294.894 494.036 225.246 451.079 182.288L346.712 77.9212ZM270.187 207.292C270.163 207.278 270.14 207.265 270.117 207.252V195.02C287.326 191.191 300.193 175.833 300.193 157.469C300.193 136.223 282.97 119 261.724 119C240.478 119 223.254 136.223 223.254 157.469C223.254 176.08 236.47 191.605 254.03 195.169V206.727C253.536 206.963 253.051 207.223 252.576 207.508L146.601 271.042C141.76 273.944 139.026 278.533 138.301 283.369L135.262 319.819C134.053 326.782 137.031 334.36 144.11 338.223L253.989 398.18C259.431 401.15 266.038 401.016 271.355 397.828L377.795 334.017C384.364 330.079 387.113 322.921 386.077 316.279L383.077 281.271L383.016 281.271C382.737 275.696 379.846 270.224 374.255 267.015L270.271 207.339C270.243 207.323 270.215 207.307 270.187 207.292ZM254.03 264.134V244.823C234.874 247.707 220.456 260.267 220.456 275.325C220.456 292.515 239.246 306.451 262.423 306.451C285.6 306.451 304.39 292.515 304.39 275.325C304.39 260.085 289.62 247.402 270.117 244.722V264.134C270.117 268.577 266.516 272.178 262.073 272.178C257.631 272.178 254.03 268.577 254.03 264.134ZM181.987 286.167C189.713 286.167 195.976 281.313 195.976 275.325C195.976 269.338 189.713 264.484 181.987 264.484C174.261 264.484 167.998 269.338 167.998 275.325C167.998 281.313 174.261 286.167 181.987 286.167ZM266.62 142.082C266.62 149.421 260.67 155.371 253.33 155.371C245.991 155.371 240.041 149.421 240.041 142.082C240.041 134.742 245.991 128.792 253.33 128.792C260.67 128.792 266.62 134.742 266.62 142.082Z" fill="#EBEDF0"/>
</svg>
