<svg width="586" height="520" viewBox="0 0 586 520" fill="none" xmlns="http://www.w3.org/2000/svg">
<path fill-rule="evenodd" clip-rule="evenodd" d="M328.684 49.783C346.273 54.7064 362.877 64.0859 376.712 77.9212L481.079 182.288C524.036 225.246 524.036 294.894 481.079 337.852L376.712 442.218C363.006 455.924 346.583 465.257 329.177 470.217C366.201 480.581 407.59 471.201 436.712 442.079L541.079 337.712C584.036 294.754 584.036 225.106 541.079 182.149L436.712 77.7818C407.46 48.5301 365.833 39.1971 328.684 49.783Z" fill="#EBEDF0"/>
<path fill-rule="evenodd" clip-rule="evenodd" d="M346.712 77.9211C303.754 34.9634 234.106 34.9635 191.148 77.9212L86.7817 182.288C43.8241 225.246 43.8241 294.894 86.7818 337.851L191.149 442.218C234.106 485.176 303.754 485.176 346.712 442.218L451.079 337.851C494.036 294.894 494.036 225.246 451.079 182.288L346.712 77.9211ZM146.329 157.735C146 163.958 146 169.979 146 176C146.316 175.981 146.632 175.957 146.949 175.933C147.626 175.881 148.303 175.829 148.981 175.829L154.241 175.829C233.519 175.83 312.806 175.831 392.537 175.455C393 169.042 393 163.021 393 157C392.787 156.843 392.536 156.7 392.286 156.557C391.748 156.251 391.211 155.945 391.04 155.498C383.235 135.096 368.823 122.117 347.667 116.622C347.33 116.535 347.052 116.216 346.658 115.765C346.546 115.637 346.425 115.498 346.29 115.351C294.375 115 242.688 115 191 115C190.929 115.207 190.871 115.464 190.813 115.72C190.688 116.269 190.564 116.819 190.311 116.885C169.052 122.511 155.016 135.867 147.662 156.463C147.549 156.78 147.234 157.024 146.8 157.361L146.8 157.361C146.655 157.474 146.497 157.596 146.329 157.735ZM146 334C146 327.979 146 321.958 146.469 315.47C228.958 315.002 310.979 315.001 393 315C393 320.688 393 326.376 392.67 332.27C392.529 332.408 392.395 332.536 392.268 332.658C391.733 333.167 391.328 333.552 391.16 334.022C383.37 355.781 368.305 369.227 345.628 374.083C345.185 374.178 344.839 374.728 344.493 375.277C344.332 375.534 344.171 375.79 344 376C294.646 376 245.292 376 195.742 375.65C193.258 374.561 190.984 373.772 188.679 373.091C169.207 367.341 155.985 354.775 148.22 336.178C147.969 335.577 147.379 335.117 146.789 334.657C146.515 334.443 146.24 334.228 146 334ZM392.571 274.738C393 268.376 393 262.688 393 257C392.778 256.777 392.523 256.566 392.269 256.356C391.722 255.904 391.176 255.453 390.947 254.875C382.058 232.505 365.602 219.487 342.055 215.266C340.27 214.946 338.417 214.971 336.573 214.996C336.077 215.002 335.581 215.009 335.087 215.009C272.37 214.997 209.654 215 146.469 215.468C146 221.958 146 227.979 146 234C146.215 234.132 146.47 234.249 146.725 234.366C147.271 234.617 147.818 234.867 147.972 235.269C156.222 256.75 171.769 269.667 194.108 274.477C197.803 275.272 201.693 275.424 205.492 275.426C267.709 275.464 329.926 275.43 392.571 274.738Z" fill="#EBEDF0"/>
</svg>
