<svg width="586" height="520" viewBox="0 0 586 520" fill="none" xmlns="http://www.w3.org/2000/svg">
<path fill-rule="evenodd" clip-rule="evenodd" d="M328.684 49.7829C346.273 54.7063 362.877 64.0857 376.712 77.9211L481.079 182.288C524.036 225.246 524.036 294.894 481.079 337.851L376.712 442.218C363.006 455.924 346.583 465.257 329.177 470.217C366.201 480.58 407.59 471.201 436.712 442.079L541.079 337.712C584.036 294.754 584.036 225.106 541.079 182.148L436.712 77.7817C407.46 48.5299 365.833 39.197 328.684 49.7829Z" fill="#EBEDF0"/>
<path fill-rule="evenodd" clip-rule="evenodd" d="M346.712 77.9211C303.754 34.9634 234.106 34.9635 191.148 77.9212L86.7817 182.288C43.8241 225.246 43.8241 294.894 86.7818 337.851L191.149 442.218C234.106 485.176 303.754 485.176 346.712 442.218L451.079 337.851C494.036 294.894 494.036 225.246 451.079 182.288L346.712 77.9211ZM137.1 314.95C142.7 316.65 149 317.5 156 317.5C162.8 317.5 169.1 316.25 174.9 313.75C180.8 311.25 185.55 307.65 189.15 302.95C192.75 298.25 194.55 292.65 194.55 286.15C194.55 281.05 193.8 276.75 192.3 273.25C190.8 269.65 188.55 266.7 185.55 264.4C182.55 262 178.75 260.05 174.15 258.55C169.65 257.05 164.4 255.75 158.4 254.65C153.8 253.75 149.85 252.75 146.55 251.65C143.25 250.45 140.7 248.9 138.9 247C137.2 245 136.35 242.5 136.35 239.5C136.35 237 137.1 234.8 138.6 232.9C140.1 231 142.3 229.5 145.2 228.4C148.2 227.3 151.85 226.75 156.15 226.75C158.75 226.75 161.55 227.2 164.55 228.1C167.55 228.9 170.4 229.95 173.1 231.25C175.8 232.45 177.95 233.75 179.55 235.15C180.75 236.05 182.1 236.5 183.6 236.5C185.9 236.5 187.9 235.6 189.6 233.8C191.3 232 192.15 230 192.15 227.8C192.15 224.8 190.7 222.15 187.8 219.85C184.3 216.85 179.75 214.4 174.15 212.5C168.65 210.5 162.65 209.5 156.15 209.5C149.25 209.5 142.95 210.7 137.25 213.1C131.55 215.5 127 219 123.6 223.6C120.3 228.2 118.65 233.75 118.65 240.25C118.65 244.55 119.35 248.45 120.75 251.95C122.15 255.35 124.2 258.35 126.9 260.95C129.7 263.45 133.15 265.55 137.25 267.25C141.35 268.85 146.1 270.05 151.5 270.85C157.2 271.65 161.9 272.8 165.6 274.3C169.3 275.7 172.05 277.45 173.85 279.55C175.65 281.65 176.55 284.2 176.55 287.2C176.55 289.7 175.6 291.95 173.7 293.95C171.8 295.85 169.3 297.4 166.2 298.6C163.1 299.7 159.7 300.25 156 300.25C150.5 300.25 145.85 299.45 142.05 297.85C138.35 296.25 134.6 293.9 130.8 290.8C129.3 289.6 127.6 289 125.7 289C123.2 289 121.1 289.9 119.4 291.7C117.8 293.4 117 295.4 117 297.7C117 299.1 117.35 300.5 118.05 301.9C118.75 303.3 119.75 304.55 121.05 305.65C126.15 310.05 131.5 313.15 137.1 314.95ZM336.402 213.25C334.302 211.45 332.102 210.55 329.802 210.55C327.902 210.55 326.102 211.05 324.402 212.05C322.702 213.05 321.552 214.5 320.952 216.4L298.759 283.685L280.302 237.4C279.602 235.6 278.502 234.2 277.002 233.2C275.502 232.1 273.802 231.6 271.902 231.7C270.002 231.6 268.302 232.1 266.802 233.2C265.302 234.2 264.152 235.6 263.352 237.4L243.866 284.194L221.502 216.4C220.902 214.5 219.752 213.05 218.052 212.05C216.452 211.05 214.702 210.55 212.802 210.55C210.502 210.55 208.252 211.45 206.052 213.25C203.952 214.95 202.902 217.3 202.902 220.3C202.902 221.2 203.052 222.2 203.352 223.3L232.902 310.3C233.502 312.1 234.602 313.5 236.202 314.5C237.802 315.4 239.402 315.9 241.002 316C242.702 316 244.352 315.5 245.952 314.5C247.652 313.5 248.952 312.05 249.852 310.15L271.274 261.73L292.602 310.15C293.502 312.05 294.752 313.5 296.352 314.5C298.052 315.5 299.752 316 301.452 316C303.152 315.9 304.752 315.4 306.252 314.5C307.852 313.5 308.952 312.1 309.552 310.3L339.102 223.3C339.402 222.2 339.552 221.2 339.552 220.3C339.552 217.3 338.502 214.95 336.402 213.25ZM412.656 211H362.406C359.806 211 357.606 211.9 355.806 213.7C354.106 215.4 353.256 217.55 353.256 220.15V306.85C353.256 309.45 354.106 311.65 355.806 313.45C357.606 315.15 359.806 316 362.406 316H412.656C415.256 316 417.406 315.2 419.106 313.6C420.906 312 421.806 309.95 421.806 307.45C421.806 305.15 420.906 303.15 419.106 301.45C417.406 299.65 415.256 298.75 412.656 298.75H372.006V271H405.906C408.506 271 410.656 270.25 412.356 268.75C414.156 267.15 415.056 265.1 415.056 262.6C415.056 260 414.156 257.9 412.356 256.3C410.656 254.6 408.506 253.75 405.906 253.75H372.006V228.25H412.656C415.256 228.25 417.406 227.5 419.106 226C420.906 224.4 421.806 222.35 421.806 219.85C421.806 217.25 420.906 215.15 419.106 213.55C417.406 211.85 415.256 211 412.656 211Z" fill="#EBEDF0"/>
</svg>
