<svg width="586" height="520" viewBox="0 0 586 520" fill="none" xmlns="http://www.w3.org/2000/svg">
<path fill-rule="evenodd" clip-rule="evenodd" d="M328.684 49.783C346.273 54.7064 362.877 64.0859 376.712 77.9212L481.079 182.288C524.036 225.246 524.036 294.894 481.079 337.852L376.712 442.218C363.006 455.924 346.583 465.257 329.177 470.217C366.201 480.581 407.59 471.201 436.712 442.079L541.079 337.712C584.036 294.754 584.036 225.106 541.079 182.149L436.712 77.7818C407.46 48.5301 365.833 39.1971 328.684 49.783Z" fill="#EBEDF0"/>
<path fill-rule="evenodd" clip-rule="evenodd" d="M191.148 77.9212C234.106 34.9635 303.754 34.9634 346.712 77.9211L451.079 182.288C494.036 225.246 494.036 294.894 451.079 337.851L346.712 442.218C303.754 485.176 234.106 485.176 191.149 442.218L86.7818 337.851C43.8241 294.894 43.8241 225.246 86.7817 182.288L191.148 77.9212ZM199.81 170.967C195.139 173.846 189.718 175.626 183.908 175.947L168.335 265.647C171.562 267.28 174.493 269.413 177.026 271.943L234.26 243.621C234.089 242.439 234 241.23 234 240C234 233.774 236.276 228.079 240.041 223.703L199.81 170.967ZM187 296C187 290.261 185.578 284.853 183.067 280.111L237.691 253.081C241.184 258.758 246.881 262.933 253.591 264.413L250.995 344.233C244.969 344.94 239.425 347.223 234.786 350.659L183.356 311.33C185.687 306.724 187 301.515 187 296ZM260.991 344.526L263.591 264.579C269.57 263.47 274.801 260.232 278.471 255.682L351.11 284.241C351.037 285.151 351 286.071 351 287C351 293.534 352.843 299.638 356.038 304.82L280.655 355.688C275.666 349.956 268.788 345.912 260.991 344.526ZM353.411 274.401C356.21 267.39 361.274 261.529 367.7 257.724L351.185 196.853C350.136 196.95 349.074 197 348 197C341.436 197 335.306 195.14 330.109 191.917L281.719 229.553C283.183 232.732 284 236.271 284 240C284 242.338 283.679 244.602 283.078 246.749L353.411 274.401ZM322.332 185.297C317.638 179.899 314.619 173.004 314.085 165.424L213.38 155.111C211.93 158.577 209.923 161.751 207.471 164.522L247.942 217.572C251.276 215.925 255.03 215 259 215C265.468 215 271.363 217.456 275.802 221.488L322.332 185.297ZM385 253C383.988 253 382.986 253.044 381.996 253.131L365.46 192.181C375.368 186.239 382 175.394 382 163C382 144.222 366.778 129 348 129C333.607 129 321.302 137.944 316.341 150.577L215.958 140.297C215.071 122.31 200.207 108 182 108C163.222 108 148 123.222 148 142C148 155.852 156.284 167.77 168.169 173.069L152.729 262.001C134.076 262.147 119 277.313 119 296C119 314.778 134.222 330 153 330C160.832 330 168.046 327.352 173.794 322.902L224.972 362.038C222.437 366.797 221 372.231 221 378C221 396.778 236.222 412 255 412C273.778 412 289 396.778 289 378C289 374.874 288.578 371.846 287.788 368.97L366.746 315.69C372.02 319.052 378.282 321 385 321C403.778 321 419 305.778 419 287C419 268.222 403.778 253 385 253Z" fill="#EBEDF0"/>
</svg>
