<svg width="586" height="520" viewBox="0 0 586 520" fill="none" xmlns="http://www.w3.org/2000/svg">
<path fill-rule="evenodd" clip-rule="evenodd" d="M328.683 49.7829C346.273 54.7063 362.877 64.0857 376.712 77.9211L481.079 182.288C524.036 225.246 524.036 294.894 481.079 337.851L376.712 442.218C363.006 455.924 346.583 465.257 329.177 470.217C366.201 480.58 407.59 471.201 436.712 442.079L541.079 337.712C584.036 294.754 584.036 225.106 541.079 182.148L436.712 77.7817C407.46 48.5299 365.832 39.197 328.683 49.7829Z" fill="#EBEDF0"/>
<path fill-rule="evenodd" clip-rule="evenodd" d="M346.712 77.9213C303.754 34.9637 234.106 34.9637 191.148 77.9214L86.7817 182.288C43.824 225.246 43.8241 294.894 86.7818 337.852L191.148 442.218C234.106 485.176 303.754 485.176 346.712 442.218L451.079 337.852C494.036 294.894 494.036 225.246 451.079 182.288L346.712 77.9213ZM166.744 301.16V305H180.952C188.717 305 195.843 303.763 202.328 301.288C208.813 298.728 214.445 295.144 219.224 290.536C224.003 285.928 227.715 280.509 230.36 274.28C233.005 267.965 234.328 261.053 234.328 253.544C234.328 246.035 233.005 239.165 230.36 232.936C227.715 226.707 224.003 221.288 219.224 216.68C214.445 212.072 208.813 208.488 202.328 205.928C195.843 203.368 188.717 202.088 180.952 202.088H166.744V205.928H180.824C188.077 205.928 194.691 207.123 200.664 209.512C206.723 211.816 211.971 215.101 216.408 219.368C220.845 223.635 224.259 228.669 226.648 234.472C229.123 240.275 230.36 246.632 230.36 253.544C230.36 260.456 229.123 266.813 226.648 272.616C224.259 278.419 220.845 283.453 216.408 287.72C211.971 291.987 206.723 295.315 200.664 297.704C194.691 300.008 188.077 301.16 180.824 301.16H166.744ZM158.296 202.088V305H162.136V202.088H158.296ZM141.4 202.088V305H145.24V202.088H141.4ZM149.848 202.088V305H153.688V202.088H149.848ZM166.744 292.712V296.552H180.952C189.741 296.552 197.507 294.717 204.248 291.048C210.989 287.379 216.28 282.301 220.12 275.816C223.96 269.331 225.88 261.907 225.88 253.544C225.88 245.181 223.96 237.8 220.12 231.4C216.28 224.915 210.989 219.837 204.248 216.168C197.507 212.413 189.741 210.536 180.952 210.536H166.744V214.376H180.824C188.931 214.376 196.056 216.04 202.2 219.368C208.344 222.696 213.165 227.304 216.664 233.192C220.163 239.08 221.912 245.864 221.912 253.544C221.912 261.139 220.163 267.923 216.664 273.896C213.165 279.784 208.344 284.392 202.2 287.72C196.056 291.048 188.931 292.712 180.824 292.712H166.744ZM166.744 284.264V288.104H180.952C188.12 288.104 194.435 286.653 199.896 283.752C205.357 280.851 209.624 276.797 212.696 271.592C215.768 266.387 217.304 260.371 217.304 253.544C217.304 246.717 215.768 240.744 212.696 235.624C209.624 230.419 205.357 226.365 199.896 223.464C194.435 220.477 188.12 218.984 180.952 218.984H166.744V222.824H180.824C187.309 222.824 192.984 224.104 197.848 226.664C202.712 229.224 206.509 232.808 209.24 237.416C211.971 242.024 213.336 247.4 213.336 253.544C213.336 259.603 211.971 264.979 209.24 269.672C206.509 274.28 202.712 277.864 197.848 280.424C192.984 282.984 187.309 284.264 180.824 284.264H166.744ZM263.755 286.568C267.68 288.872 272.672 290.024 278.731 290.024C285.387 290.024 290.72 288.701 294.731 286.056C298.742 283.325 300.747 279.784 300.747 275.432C300.747 271.507 299.126 268.392 295.883 266.088C292.64 263.784 288.075 261.821 282.187 260.2L274.251 258.024C264.608 255.379 257.312 251.965 252.363 247.784C247.499 243.517 245.067 237.885 245.067 230.888C245.067 225.683 246.518 221.075 249.419 217.064C252.406 213.053 256.416 209.896 261.451 207.592C266.571 205.203 272.374 204.008 278.859 204.008C284.747 204.008 290.08 204.947 294.859 206.824C299.638 208.701 303.563 211.347 306.635 214.76C309.707 218.173 311.627 222.141 312.395 226.664L316.107 225.64C315.168 220.52 312.95 216.04 309.451 212.2C306.038 208.36 301.686 205.416 296.395 203.368C291.19 201.235 285.344 200.168 278.859 200.168C271.691 200.168 265.248 201.491 259.531 204.136C253.899 206.781 249.419 210.408 246.091 215.016C242.848 219.539 241.227 224.744 241.227 230.632C241.227 238.824 243.915 245.267 249.291 249.96C254.667 254.653 262.646 258.536 273.227 261.608L281.163 263.912C286.027 265.277 289.867 266.856 292.683 268.648C295.499 270.44 296.907 272.787 296.907 275.688C296.907 278.76 295.2 281.277 291.787 283.24C288.459 285.203 284.107 286.184 278.731 286.184C273.526 286.184 269.259 285.245 265.931 283.368C262.688 281.405 261.067 278.973 261.067 276.072L257.355 277.096C257.696 281.021 259.83 284.179 263.755 286.568ZM258.507 293.224C263.968 296.723 270.71 298.472 278.731 298.472C284.79 298.472 290.08 297.491 294.603 295.528C299.211 293.565 302.795 290.877 305.355 287.464C307.915 283.965 309.195 279.955 309.195 275.432C309.195 269.288 306.976 264.424 302.539 260.84C298.102 257.171 291.915 254.227 283.979 252.008L276.299 249.832C268.875 247.699 263.2 245.224 259.275 242.408C255.435 239.592 253.515 235.752 253.515 230.888C253.515 227.304 254.582 224.147 256.715 221.416C258.934 218.6 261.963 216.424 265.803 214.888C269.643 213.267 273.995 212.456 278.859 212.456C285.771 212.456 291.531 213.949 296.139 216.936C300.832 219.923 303.478 223.891 304.075 228.84L307.915 227.816C307.318 223.976 305.696 220.605 303.051 217.704C300.406 214.803 296.992 212.584 292.811 211.048C288.715 209.427 284.064 208.616 278.859 208.616C273.312 208.616 268.32 209.597 263.883 211.56C259.446 213.437 255.947 216.04 253.387 219.368C250.912 222.696 249.675 226.536 249.675 230.888C249.675 236.691 251.894 241.341 256.331 244.84C260.768 248.339 267.126 251.24 275.403 253.544L283.211 255.72C290.123 257.597 295.542 260.072 299.467 263.144C303.392 266.131 305.355 270.227 305.355 275.432C305.355 279.187 304.246 282.515 302.027 285.416C299.808 288.317 296.694 290.579 292.683 292.2C288.672 293.821 284.022 294.632 278.731 294.632C271.478 294.632 265.504 293.139 260.811 290.152C256.203 287.165 253.558 283.197 252.875 278.248L249.035 279.272C249.974 284.989 253.131 289.64 258.507 293.224ZM260.683 303.848C266.059 305.896 272.075 306.92 278.731 306.92C286.411 306.92 293.152 305.597 298.955 302.952C304.843 300.307 309.408 296.637 312.651 291.944C315.979 287.165 317.643 281.747 317.643 275.688C317.643 267.325 314.912 260.712 309.451 255.848C303.99 250.899 296.096 246.888 285.771 243.816L278.475 241.64C273.526 240.189 269.515 238.653 266.443 237.032C263.456 235.411 261.963 233.277 261.963 230.632C261.963 227.731 263.584 225.384 266.827 223.592C270.155 221.8 274.166 220.904 278.859 220.904C283.808 220.904 287.819 221.843 290.891 223.72C294.048 225.597 295.712 228.029 295.883 231.016L299.595 229.992C299.083 226.152 296.95 223.037 293.195 220.648C289.44 218.259 284.662 217.064 278.859 217.064C272.886 217.064 267.936 218.344 264.011 220.904C260.086 223.379 258.123 226.707 258.123 230.888C258.123 234.472 259.787 237.331 263.115 239.464C266.443 241.597 271.222 243.56 277.451 245.352L285.003 247.528C294.134 250.173 301.216 253.672 306.251 258.024C311.286 262.376 313.803 268.179 313.803 275.432C313.803 280.893 312.31 285.715 309.323 289.896C306.422 293.992 302.326 297.235 297.035 299.624C291.83 301.928 285.728 303.08 278.731 303.08C272.587 303.08 267.083 302.141 262.219 300.264C257.355 298.387 253.387 295.784 250.315 292.456C247.328 289.043 245.408 285.032 244.555 280.424L240.843 281.448C241.867 286.653 244.086 291.176 247.499 295.016C250.998 298.771 255.392 301.715 260.683 303.848ZM346.38 286.568C350.305 288.872 355.297 290.024 361.356 290.024C368.012 290.024 373.345 288.701 377.356 286.056C381.367 283.325 383.372 279.784 383.372 275.432C383.372 271.507 381.751 268.392 378.508 266.088C375.265 263.784 370.7 261.821 364.812 260.2L356.876 258.024C347.233 255.379 339.937 251.965 334.988 247.784C330.124 243.517 327.692 237.885 327.692 230.888C327.692 225.683 329.143 221.075 332.044 217.064C335.031 213.053 339.041 209.896 344.076 207.592C349.196 205.203 354.999 204.008 361.484 204.008C367.372 204.008 372.705 204.947 377.484 206.824C382.263 208.701 386.188 211.347 389.26 214.76C392.332 218.173 394.252 222.141 395.02 226.664L398.732 225.64C397.793 220.52 395.575 216.04 392.076 212.2C388.663 208.36 384.311 205.416 379.02 203.368C373.815 201.235 367.969 200.168 361.484 200.168C354.316 200.168 347.873 201.491 342.156 204.136C336.524 206.781 332.044 210.408 328.716 215.016C325.473 219.539 323.852 224.744 323.852 230.632C323.852 238.824 326.54 245.267 331.916 249.96C337.292 254.653 345.271 258.536 355.852 261.608L363.788 263.912C368.652 265.277 372.492 266.856 375.308 268.648C378.124 270.44 379.532 272.787 379.532 275.688C379.532 278.76 377.825 281.277 374.412 283.24C371.084 285.203 366.732 286.184 361.356 286.184C356.151 286.184 351.884 285.245 348.556 283.368C345.313 281.405 343.692 278.973 343.692 276.072L339.98 277.096C340.321 281.021 342.455 284.179 346.38 286.568ZM341.132 293.224C346.593 296.723 353.335 298.472 361.356 298.472C367.415 298.472 372.705 297.491 377.228 295.528C381.836 293.565 385.42 290.877 387.98 287.464C390.54 283.965 391.82 279.955 391.82 275.432C391.82 269.288 389.601 264.424 385.164 260.84C380.727 257.171 374.54 254.227 366.604 252.008L358.924 249.832C351.5 247.699 345.825 245.224 341.9 242.408C338.06 239.592 336.14 235.752 336.14 230.888C336.14 227.304 337.207 224.147 339.34 221.416C341.559 218.6 344.588 216.424 348.428 214.888C352.268 213.267 356.62 212.456 361.484 212.456C368.396 212.456 374.156 213.949 378.764 216.936C383.457 219.923 386.103 223.891 386.7 228.84L390.54 227.816C389.943 223.976 388.321 220.605 385.676 217.704C383.031 214.803 379.617 212.584 375.436 211.048C371.34 209.427 366.689 208.616 361.484 208.616C355.937 208.616 350.945 209.597 346.508 211.56C342.071 213.437 338.572 216.04 336.012 219.368C333.537 222.696 332.3 226.536 332.3 230.888C332.3 236.691 334.519 241.341 338.956 244.84C343.393 248.339 349.751 251.24 358.028 253.544L365.836 255.72C372.748 257.597 378.167 260.072 382.092 263.144C386.017 266.131 387.98 270.227 387.98 275.432C387.98 279.187 386.871 282.515 384.652 285.416C382.433 288.317 379.319 290.579 375.308 292.2C371.297 293.821 366.647 294.632 361.356 294.632C354.103 294.632 348.129 293.139 343.436 290.152C338.828 287.165 336.183 283.197 335.5 278.248L331.66 279.272C332.599 284.989 335.756 289.64 341.132 293.224ZM343.308 303.848C348.684 305.896 354.7 306.92 361.356 306.92C369.036 306.92 375.777 305.597 381.58 302.952C387.468 300.307 392.033 296.637 395.276 291.944C398.604 287.165 400.268 281.747 400.268 275.688C400.268 267.325 397.537 260.712 392.076 255.848C386.615 250.899 378.721 246.888 368.396 243.816L361.1 241.64C356.151 240.189 352.14 238.653 349.068 237.032C346.081 235.411 344.588 233.277 344.588 230.632C344.588 227.731 346.209 225.384 349.452 223.592C352.78 221.8 356.791 220.904 361.484 220.904C366.433 220.904 370.444 221.843 373.516 223.72C376.673 225.597 378.337 228.029 378.508 231.016L382.22 229.992C381.708 226.152 379.575 223.037 375.82 220.648C372.065 218.259 367.287 217.064 361.484 217.064C355.511 217.064 350.561 218.344 346.636 220.904C342.711 223.379 340.748 226.707 340.748 230.888C340.748 234.472 342.412 237.331 345.74 239.464C349.068 241.597 353.847 243.56 360.076 245.352L367.628 247.528C376.759 250.173 383.841 253.672 388.876 258.024C393.911 262.376 396.428 268.179 396.428 275.432C396.428 280.893 394.935 285.715 391.948 289.896C389.047 293.992 384.951 297.235 379.66 299.624C374.455 301.928 368.353 303.08 361.356 303.08C355.212 303.08 349.708 302.141 344.844 300.264C339.98 298.387 336.012 295.784 332.94 292.456C329.953 289.043 328.033 285.032 327.18 280.424L323.468 281.448C324.492 286.653 326.711 291.176 330.124 295.016C333.623 298.771 338.017 301.715 343.308 303.848Z" fill="#EBEDF0"/>
</svg>
