<svg width="586" height="520" viewBox="0 0 586 520" fill="none" xmlns="http://www.w3.org/2000/svg">
<path fill-rule="evenodd" clip-rule="evenodd" d="M328.684 49.7829C346.273 54.7063 362.877 64.0857 376.712 77.9211L481.079 182.288C524.036 225.246 524.036 294.894 481.079 337.851L376.712 442.218C363.006 455.924 346.583 465.257 329.177 470.217C366.201 480.58 407.59 471.201 436.712 442.079L541.079 337.712C584.036 294.754 584.036 225.106 541.079 182.148L436.712 77.7817C407.46 48.5299 365.833 39.197 328.684 49.7829Z" fill="#EBEDF0"/>
<path fill-rule="evenodd" clip-rule="evenodd" d="M346.712 77.9213C303.754 34.9637 234.106 34.9637 191.148 77.9214L86.7817 182.288C43.8241 225.246 43.8241 294.894 86.7818 337.852L191.149 442.218C234.106 485.176 303.754 485.176 346.712 442.218L451.079 337.852C494.036 294.894 494.036 225.246 451.079 182.288L346.712 77.9213ZM263 126.09C207.366 126.09 160.09 165.152 160.09 215.8C160.09 246.56 181.286 270.413 194.542 281.758C203.776 289.71 209.314 295.846 212.607 301.531C214.401 304.629 215.6 307.716 216.3 311.09H212V326.91H217.074V333.09H212V348.91H217.074V357.556C217.074 361.466 218.892 364.869 221.474 367.241L221.567 367.326L221.663 367.409C224.479 369.834 228.063 370.91 231.307 370.91H236.09V379.5C236.09 383.399 237.888 386.811 240.469 389.202L240.562 389.288L240.657 389.371C243.474 391.817 247.07 392.91 250.333 392.91H275.667C279.076 392.91 282.446 391.734 285.15 389.533L285.248 389.453L285.343 389.371C288.22 386.872 289.91 383.256 289.91 379.5V370.91H294.693C298.082 370.91 301.441 369.752 304.144 367.57L304.241 367.491L304.337 367.409C307.217 364.929 308.926 361.322 308.926 357.556V348.91H314V333.09H308.926V326.91H314V311.09H309.7C310.4 307.716 311.599 304.629 313.393 301.531C316.687 295.844 322.228 289.706 331.468 281.749C344.61 270.434 365.91 246.576 365.91 215.8C365.91 165.224 318.639 126.09 263 126.09ZM251.91 377.09V370.91H274.09V377.09H251.91ZM293.106 333.09V326.91H244V311.09H293.654C294.507 305.004 296.406 299.296 299.704 293.602C304.313 285.644 311.417 278.138 321.145 269.761C333.294 259.3 350.09 239.467 350.09 215.8C350.09 176.1 312.205 141.91 263 141.91C213.79 141.91 175.91 176.035 175.91 215.8C175.91 239.476 192.64 259.31 204.836 269.745L204.845 269.753L204.855 269.761C214.583 278.138 221.687 285.644 226.296 293.602C231.046 301.802 232.894 310.034 232.894 319.378V355.09H293.106V348.91H244V333.09H293.106ZM238.105 214.042L219.246 229.975L238.114 245.966L227.886 258.034L201.886 236C200.111 234.495 199.088 232.286 199.09 229.959C199.092 227.632 200.118 225.424 201.895 223.923L227.895 201.958L238.105 214.042ZM288.105 201.958L314.105 223.923C315.882 225.424 316.908 227.632 316.91 229.959C316.912 232.286 315.889 234.495 314.114 236L288.114 258.034L277.886 245.966L296.754 229.975L277.895 214.042L288.105 201.958ZM256.187 190.766L244.187 266.766L259.813 269.234L271.813 193.234L256.187 190.766Z" fill="#EBEDF0"/>
</svg>
