<svg width="586" height="520" viewBox="0 0 586 520" fill="none" xmlns="http://www.w3.org/2000/svg">
<path fill-rule="evenodd" clip-rule="evenodd" d="M328.684 49.783C346.273 54.7064 362.877 64.0858 376.712 77.9212L481.079 182.288C524.036 225.246 524.036 294.894 481.079 337.851L376.712 442.218C363.006 455.924 346.583 465.257 329.177 470.217C366.201 480.581 407.59 471.201 436.712 442.079L541.079 337.712C584.036 294.754 584.036 225.106 541.079 182.149L436.712 77.7818C407.46 48.53 365.833 39.1971 328.684 49.783Z" fill="#EBEDF0"/>
<path fill-rule="evenodd" clip-rule="evenodd" d="M346.712 77.9211C303.754 34.9634 234.106 34.9635 191.148 77.9212L86.7817 182.288C43.8241 225.246 43.8241 294.894 86.7818 337.851L191.149 442.218C234.106 485.176 303.754 485.176 346.712 442.218L451.079 337.851C494.036 294.894 494.036 225.246 451.079 182.288L346.712 77.9211ZM163.423 268.69L189.673 272.142C208.361 313.646 224.987 333.268 261.5 364.202L255.442 387.793C221.89 369.719 203.032 360.464 169.192 347.804L195.731 323.351C156.552 312.38 137.14 307.496 119 306.952L163.423 268.69ZM363.615 268.69L334.481 272.142C334.783 282.686 333.535 288.685 329.865 299.473C271.977 346.346 258.199 372.269 260.058 418C285.664 376.234 307.775 358.96 366.212 343.201L334.481 327.666C362.341 316.254 382.155 311.686 419 306.952L363.615 268.69ZM203.164 187.126C253.879 197.324 277.428 196.272 314.184 187.126L299.728 121.646C293.527 102.314 289.432 93.6024 271.973 112.992C260.851 124.789 254.377 124.293 242.484 112.992C227.658 94.3124 222.871 100.928 216.174 121.646C209.477 142.364 203.164 187.126 203.164 187.126ZM122.212 240.779C124.393 252.894 199.286 268.255 265.902 267.894C332.083 267.535 400.458 251.452 400.051 239.336C399.742 230.136 358.298 220.347 320.545 211.645C319.547 212.027 318.619 212.459 317.635 212.918L317.633 212.918L317.631 212.919L317.631 212.92C314.907 214.188 311.752 215.658 305.51 216.837C273.225 223.401 227.072 222.861 201.14 211.645C156.836 221.721 120.565 231.629 122.212 240.779ZM202.798 273.43C248.655 277.798 274.194 277.704 319.471 273.43C319.782 280.482 318.79 285.494 316.242 288.694C310.293 294.34 303.993 297.601 297.414 298.457C291.798 299.187 285.978 298.166 280 295.379C277.636 294.278 275.716 291.881 273.701 289.365C270.483 285.348 267.024 281.029 261.135 281.206C255.431 281.378 251.884 285.7 248.572 289.739C246.322 292.481 244.181 295.092 241.544 296.182C237.384 297.902 233.256 298.722 229.209 298.71C220.902 298.685 213.537 296.758 205.991 288.406C202.508 283.222 202.512 280.333 202.798 273.43Z" fill="#EBEDF0"/>
</svg>
