<svg width="586" height="520" viewBox="0 0 586 520" fill="none" xmlns="http://www.w3.org/2000/svg">
<path fill-rule="evenodd" clip-rule="evenodd" d="M328.684 49.7829C346.273 54.7063 362.877 64.0857 376.712 77.9211L481.079 182.288C524.036 225.246 524.036 294.894 481.079 337.851L376.712 442.218C363.006 455.924 346.583 465.257 329.177 470.217C366.201 480.58 407.59 471.201 436.712 442.079L541.079 337.712C584.036 294.754 584.036 225.106 541.079 182.148L436.712 77.7817C407.46 48.5299 365.833 39.197 328.684 49.7829Z" fill="#EBEDF0"/>
<path fill-rule="evenodd" clip-rule="evenodd" d="M346.712 77.9211C303.754 34.9634 234.106 34.9635 191.148 77.9212L86.7817 182.288C43.8241 225.246 43.8241 294.894 86.7818 337.851L191.149 442.218C234.106 485.176 303.754 485.176 346.712 442.218L451.079 337.851C494.036 294.894 494.036 225.246 451.079 182.288L346.712 77.9211ZM305.469 295.652C307.341 297.219 309.212 298.785 311.085 300.35C311.085 300.35 311.072 300.365 311.055 300.373L311.024 300.377C311.034 300.382 311.045 300.379 311.055 300.373C311.501 300.316 311.967 300.274 312.464 300.486C311.963 300.275 311.518 300.36 311.316 300.815C311.246 300.701 311.196 300.616 311.163 300.559C311.13 300.5 311.113 300.472 311.109 300.473C311.107 300.474 311.107 300.478 311.108 300.485C311.109 300.499 311.115 300.524 311.123 300.561L311.124 300.564C311.13 300.59 311.137 300.623 311.145 300.661C311.15 300.687 311.156 300.714 311.162 300.745C310.988 301.445 310.668 302.192 310.378 302.87C309.946 303.879 309.579 304.736 309.851 305.067C311.098 306.584 312.593 307.892 314.091 309.203L314.092 309.204C314.89 309.903 315.69 310.603 316.453 311.335C319.189 313.961 321.909 316.603 324.63 319.244L324.634 319.248C328.432 322.935 332.23 326.622 336.068 330.266C341.23 335.168 346.448 340.018 351.829 344.674C352.397 345.166 353.437 345.112 354.476 345.058C354.956 345.033 355.437 345.008 355.871 345.037C355.768 344.63 355.706 344.182 355.645 343.734C355.511 342.768 355.378 341.802 354.831 341.238C353.854 340.231 352.879 339.222 351.903 338.212L351.899 338.208L351.897 338.206C346.457 332.576 341.011 326.939 335.192 321.724C331.088 318.047 326.756 314.627 322.423 311.206L322.422 311.205L322.421 311.204L322.421 311.203L322.42 311.203L322.419 311.202L322.418 311.201L322.417 311.2L322.416 311.2L322.415 311.199L322.414 311.198C319.598 308.975 316.782 306.751 314.028 304.457C313.445 303.971 313.211 303.065 312.979 302.165C312.87 301.744 312.761 301.323 312.617 300.948L312.673 300.929C312.673 300.929 312.63 300.934 312.607 300.923L312.597 300.895C312.592 300.909 312.597 300.918 312.607 300.923L312.617 300.948C312.294 301.059 311.958 301.15 311.39 300.871C311.999 301.163 312.335 301.031 312.631 300.567C312.633 300.585 312.635 300.603 312.636 300.619C312.637 300.633 312.638 300.646 312.639 300.659C312.642 300.694 312.644 300.726 312.645 300.754C312.654 300.94 312.656 300.975 312.936 301.104C315.978 301.609 316.442 300.185 314.883 298.54C308.644 291.957 302.304 285.462 295.81 279.132C293.078 276.469 290.184 273.971 287.12 271.327L287.12 271.326L287.12 271.326C285.694 270.095 284.231 268.833 282.73 267.507C287.34 266.242 291.439 266.357 295.373 266.467C298.933 266.567 302.358 266.663 305.906 265.729C311.252 264.323 316.847 264.367 322.517 264.412C327.541 264.452 332.625 264.493 337.647 263.524C344.444 262.213 351.479 262.14 358.515 262.068C361.615 262.036 364.715 262.003 367.794 261.865L379.572 260.243C375.654 260.786 371.781 261.338 368.254 261.969C371.067 262.061 373.465 262.057 375.842 262.054L376.199 262.053C377.283 262.052 378.367 262.05 379.451 262.048C383.145 262.042 386.838 262.036 390.531 262.04C392.392 262.042 394.254 262.054 396.115 262.067C401.567 262.104 407.018 262.141 412.458 261.907C413.173 261.876 413.842 260.76 414.511 259.643C414.82 259.126 415.13 258.609 415.444 258.2L414.334 256.731C401.495 256.944 388.657 257.157 376.105 257.61C378.043 258.135 379.695 258.421 381.347 258.708L381.348 258.708V258.708L381.348 258.708C379.696 258.422 378.043 258.136 375.64 257.54C363.841 256.583 352.796 255.915 341.747 255.306C340.646 255.246 339.54 255.265 338.434 255.284C337.252 255.305 336.071 255.325 334.896 255.248C327.266 254.749 319.637 254.23 312.008 253.712L311.99 253.71C304.714 253.216 297.438 252.721 290.161 252.243C288.748 252.15 287.328 252.176 285.908 252.201H285.907L285.705 252.205C286.811 250.992 287.916 249.78 289.022 248.568L290.87 246.543C295.723 241.222 300.577 235.902 305.425 230.576C306.016 229.927 306.608 229.28 307.201 228.632C309.703 225.896 312.205 223.16 314.59 220.325C314.944 219.904 314.925 219.169 314.906 218.433C314.897 218.094 314.888 217.754 314.916 217.445C314.67 217.501 314.404 217.533 314.139 217.565C313.569 217.633 312.998 217.702 312.618 218.007C302.792 225.892 292.999 233.817 283.036 241.879L280.551 243.89C279.411 244.812 278.269 245.736 277.125 246.662V228.539L276.297 229.141C276.013 226.436 275.71 223.703 275.404 220.95L275.404 220.948C274.705 214.655 273.995 208.256 273.481 201.841C272.885 194.397 272.464 186.94 272.042 179.483C271.858 176.245 271.675 173.007 271.478 169.77L269.747 160.416C270.324 163.533 270.908 166.629 271.602 169.385C272.097 166.266 271.974 163.211 271.853 160.178V160.178C271.683 155.949 271.515 151.764 273.024 147.51C273.968 144.846 273.158 141.559 272.355 138.304C271.995 136.843 271.636 135.389 271.438 134C267.846 133.981 264.833 137.434 265.034 140.755C265.557 149.422 266.126 158.086 266.918 166.447C267.192 165.275 267.409 164.176 267.597 163.113C267.397 164.252 267.156 165.486 266.837 166.905C265.861 175.054 265.11 182.432 264.591 189.826C264.457 191.727 264.476 193.638 264.494 195.549C264.513 197.42 264.531 199.291 264.406 201.152C263.818 209.949 263.173 218.742 262.528 227.536L262.528 227.537L262.528 227.538L262.528 227.539L262.528 227.54L262.527 227.541L262.527 227.542L262.527 227.543L262.527 227.544L262.527 227.546L262.527 227.547L262.527 227.548L262.527 227.549L262.527 227.55L262.527 227.551L262.527 227.552L262.526 227.553L262.526 227.554L262.526 227.555L262.526 227.556L262.526 227.557L262.526 227.558L262.526 227.559L262.526 227.56L262.526 227.561L262.526 227.562L262.525 227.563C262.158 232.57 261.791 237.576 261.434 242.584C261.368 243.501 261.384 244.425 261.402 245.462V245.463L261.402 245.465C261.411 245.983 261.421 246.53 261.421 247.118C260.146 246.056 258.938 245.029 257.767 244.035L257.766 244.034C255.298 241.937 252.999 239.984 250.61 238.147C246.74 235.17 242.838 232.235 238.936 229.3C235.099 226.414 231.261 223.528 227.454 220.602C226.355 219.757 224.94 218.454 227.104 217.056H227.104C226.408 217.04 225.712 217.025 224.321 217.172C223.311 218.125 222.502 219.332 222.759 219.638C224.622 221.846 226.625 223.951 228.722 225.942C235.173 232.065 241.65 238.161 248.213 244.338C250.63 246.612 253.059 248.898 255.502 251.2C252.269 251.553 249.202 251.914 246.247 252.263L246.245 252.263C239.889 253.012 234.048 253.701 228.187 254.111C222.409 254.514 216.616 254.697 210.822 254.88C206.895 255.005 202.967 255.129 199.043 255.321C190.429 255.745 181.818 256.243 173.208 256.74L173.207 256.74L173.206 256.74L173.205 256.74L173.204 256.74L173.203 256.74L173.203 256.74L173.202 256.74L173.201 256.74L173.2 256.741L173.199 256.741L173.198 256.741L173.198 256.741L173.197 256.741L173.196 256.741L173.195 256.741L173.194 256.741L173.194 256.741L173.193 256.741L173.192 256.741L173.191 256.741L173.19 256.741L173.189 256.741L173.189 256.741L173.188 256.741L173.187 256.741L173.186 256.741C169.481 256.955 165.775 257.17 162.069 257.378L156.563 258.78L156.443 260.091L156.563 258.78L156.563 258.78C158.399 258.312 160.234 257.845 161.606 257.289C159.478 257.123 157.384 256.938 155.315 256.756L155.312 256.756L155.309 256.755C149.666 256.258 144.205 255.777 138.74 255.717C135.212 255.678 131.68 256.138 127.795 256.643H127.795C125.955 256.882 124.035 257.132 122 257.344C122.382 258.016 122.691 258.7 122.968 259.316C123.492 260.479 123.907 261.399 124.499 261.533C128.272 262.386 132.176 263.139 136.023 263.1C142.595 263.032 149.165 262.734 155.736 262.436H155.736H155.736H155.737H155.737H155.737L155.744 262.435C158.528 262.309 161.312 262.183 164.096 262.074C164.36 262.064 164.624 262.054 164.887 262.045C166.6 261.983 168.281 261.922 169.724 261.666C169.887 261.69 170.052 261.714 170.217 261.739C176.764 262.731 183.14 263.022 189.431 263.309C195.691 263.595 201.867 263.876 208.042 264.841C217.899 266.381 227.984 266.453 238.068 266.525C242.356 266.556 246.643 266.586 250.912 266.73C251.652 266.755 252.396 266.682 253.274 266.596C253.728 266.552 254.218 266.504 254.763 266.464L221.984 300.136L223.241 301.696C230.872 296.559 238.049 290.78 245.282 284.957L245.282 284.957C250.564 280.703 255.876 276.426 261.416 272.358C261.416 274.364 261.383 276.31 261.35 278.214V278.215V278.215V278.215V278.215V278.215V278.215V278.215V278.216V278.216V278.216V278.216V278.216V278.216V278.216V278.217V278.217V278.217V278.217V278.217V278.217V278.217V278.218V278.218V278.218V278.218V278.218C261.281 282.29 261.215 286.169 261.483 290.024C262.035 297.934 262.758 305.831 263.482 313.728L263.483 313.73C263.857 317.814 264.231 321.897 264.582 325.982C265.089 331.892 265.563 337.806 266.037 343.72L266.04 343.76C266.25 346.387 266.461 349.015 266.674 351.641L268.404 358.801C267.827 356.417 267.244 354.064 266.582 352.1C266.565 353.575 266.724 355.108 266.879 356.601L266.879 356.601C267.191 359.62 267.487 362.471 266.271 364.335C263.817 368.097 264.166 371.768 264.507 375.352C264.603 376.362 264.699 377.365 264.73 378.362C264.814 380.973 265.792 385.7 271.777 385.089C271.918 383.562 272.086 382.045 272.253 380.536L272.253 380.536L272.253 380.535L272.253 380.535L272.253 380.535C272.642 377.029 273.025 373.566 273.055 370.099C273.072 368.113 272.709 366.128 272.345 364.139C272.067 362.618 271.788 361.095 271.679 359.566C271.546 357.717 271.505 355.862 271.464 354.034V354.034C271.418 351.991 271.373 349.983 271.203 348.056C271.231 347.864 271.26 347.671 271.289 347.476C272.915 334.739 274.379 322.751 275.322 310.723C275.975 302.385 276.367 294.026 276.759 285.668C276.924 282.152 277.089 278.636 277.273 275.122C277.301 274.581 277.294 274.039 277.287 273.426V273.425V273.425C277.283 273.116 277.279 272.79 277.279 272.437C278.954 273.801 280.589 275.126 282.193 276.427C285.712 279.279 289.086 282.014 292.434 284.782C296.794 288.387 301.132 292.019 305.469 295.652ZM306.361 320.639C315.974 334.481 325.33 348.081 334.494 361.808C335.784 363.741 336.33 366.259 336.815 368.591C336.965 369.312 335.903 370.484 335.117 371.084C334.875 371.27 333.484 370.415 333.006 369.756C331.873 368.191 330.724 366.636 329.575 365.081C326.216 360.536 322.855 355.988 319.893 351.195C315.163 343.54 310.647 335.752 306.131 327.964L306.13 327.963L306.13 327.962L306.129 327.961L306.128 327.959L306.127 327.958L306.127 327.957L306.126 327.955L306.125 327.954L306.124 327.953L306.124 327.952L306.123 327.95L306.122 327.949L306.121 327.948L306.121 327.946L306.12 327.945L306.119 327.944L306.119 327.943L306.118 327.941L306.117 327.94L306.116 327.939L306.116 327.937L306.115 327.936L306.114 327.935L306.113 327.934L306.113 327.932L306.109 327.925C303.968 324.234 301.828 320.544 299.665 316.867C299.099 315.904 298.499 314.962 297.899 314.019C297.057 312.698 296.216 311.378 295.47 310.004C295.16 309.433 295.598 308.455 296.851 307.23L296.853 307.232C299.916 311.634 302.979 316.035 306.361 320.639ZM219.351 348.792C219.575 348.38 219.799 347.967 220.024 347.553C221.197 345.91 222.16 344.34 223.099 342.811C223.454 342.231 223.806 341.657 224.165 341.087C225.621 338.775 227.094 336.474 228.567 334.172L228.568 334.171C231.73 329.23 234.893 324.29 237.878 319.244C239.026 317.303 239.775 315.125 240.525 312.948C240.866 311.955 241.207 310.962 241.587 309.992L240.15 309.3C239.787 309.642 239.399 309.967 239.01 310.292L239.01 310.292C238.171 310.995 237.331 311.698 236.743 312.571C233.683 317.115 230.675 321.694 227.667 326.273L227.664 326.278L227.658 326.287C225.562 329.479 223.465 332.671 221.351 335.851C215.119 345.223 208.852 354.573 202.556 363.902C200.795 366.512 200.501 368.874 203.199 371.427C210.498 365.111 214.857 357.076 219.351 348.792ZM321.758 231.086C326.301 227.935 330.819 225.07 335.49 222.484C340.683 219.608 345.909 216.79 351.135 213.973L351.135 213.973L351.136 213.973L351.136 213.972L351.136 213.972L351.137 213.972L351.137 213.972L351.138 213.972L351.138 213.971L351.138 213.971L351.139 213.971L351.139 213.971L351.139 213.97L351.14 213.97L351.14 213.97L351.14 213.97L351.141 213.969L351.141 213.969C355.322 211.716 359.503 209.462 363.667 207.178C366.303 205.732 368.922 204.253 371.54 202.774L371.541 202.774L371.542 202.773L371.543 202.773L371.544 202.772L371.545 202.772L371.546 202.771L371.547 202.77L371.548 202.77L371.549 202.769L371.55 202.769L371.551 202.768L371.552 202.768L371.553 202.767L371.555 202.767L371.556 202.766L371.557 202.766L371.558 202.765L371.559 202.764L371.56 202.764L371.561 202.763L371.562 202.763L371.563 202.762L371.564 202.762L371.565 202.761C375.775 200.383 379.985 198.006 384.266 195.765C385.135 195.311 386.303 195.429 387.518 195.552C388.094 195.61 388.68 195.67 389.25 195.67C390.81 199.215 388.432 200.407 386.349 201.451C386.052 201.601 385.76 201.747 385.486 201.897C378.811 205.554 372.046 209.061 365.209 212.408C352.831 218.469 340.403 224.431 327.921 230.275C326.091 231.132 323.852 231.112 321.758 231.086ZM157.303 204.36C158.417 204.976 159.556 205.605 160.714 206.276C164.35 207.98 167.95 209.628 171.519 211.262L171.521 211.263C177.2 213.862 182.799 216.424 188.333 219.119C192.707 221.249 197 223.544 201.294 225.84L201.295 225.84C204.254 227.422 207.213 229.004 210.199 230.532C211.579 231.238 213.058 231.751 214.536 232.264C215.215 232.499 215.894 232.735 216.563 232.989L217.252 231.357C215.218 230.095 213.197 228.811 211.177 227.526L211.176 227.526L211.176 227.525L211.176 227.525L211.175 227.525L211.175 227.525L211.175 227.524L211.174 227.524L211.174 227.524L211.173 227.524L211.173 227.524L211.173 227.523L211.172 227.523L211.172 227.523L211.172 227.523L211.171 227.522L211.171 227.522L211.171 227.522L211.17 227.522L211.17 227.521L211.169 227.521L211.169 227.521L211.169 227.521C206.676 224.664 202.182 221.807 197.543 219.211C189.449 214.681 181.254 210.332 173.059 205.983L173.058 205.983L173.053 205.98L173.051 205.979L173.049 205.978L173.047 205.977L173.044 205.976L173.042 205.974L173.04 205.973L173.038 205.972L173.036 205.971L173.033 205.97C169.896 204.305 166.758 202.639 163.626 200.964C162.791 200.517 161.962 200.057 161.132 199.596L161.132 199.596L161.131 199.596L161.131 199.596L161.131 199.596L161.131 199.596L161.131 199.595L161.131 199.595L161.131 199.595L161.131 199.595L161.131 199.595L161.13 199.595L161.13 199.595L161.13 199.595L161.13 199.595L161.13 199.595L161.13 199.595L161.13 199.595L161.13 199.595L161.13 199.595L161.129 199.595L161.129 199.595L161.129 199.595L161.129 199.595L161.129 199.595L161.129 199.595L161.129 199.595L161.129 199.594L161.128 199.594L161.128 199.594L161.128 199.594L161.128 199.594L161.128 199.594L161.128 199.594L161.128 199.594L161.128 199.594L161.128 199.594L161.127 199.594L161.127 199.594L161.127 199.594L161.127 199.594L161.127 199.594L161.127 199.594L161.127 199.594L161.127 199.594C158.687 198.239 156.245 196.883 153.666 195.882C152.723 195.516 151.513 195.841 150.303 196.165C149.752 196.313 149.201 196.461 148.675 196.543C148.882 196.961 149.055 197.428 149.228 197.895C149.608 198.917 149.987 199.939 150.721 200.444C152.788 201.865 154.994 203.084 157.303 204.36ZM303.462 202.869C301.803 205.404 300.269 207.587 298.735 209.77L297.181 209.342C297.238 208.986 297.263 208.611 297.287 208.235C297.341 207.429 297.394 206.622 297.761 206.001C306.777 190.701 315.858 175.44 324.975 160.2C327.096 156.656 329.274 153.129 331.708 149.8C332.395 148.86 334.089 148.253 335.302 148.284C335.863 148.298 337.036 150.407 336.792 151.226L336.688 151.576C335.824 154.477 334.922 157.512 333.251 159.958C327.431 168.478 321.525 176.939 315.574 185.462L315.561 185.481C311.544 191.235 307.506 197.019 303.462 202.869ZM241.104 207.455C240.922 205.636 239.707 203.919 236.273 199.068C234.222 195.519 232.152 192.086 230.104 188.69C228.312 185.718 226.536 182.773 224.805 179.803C223.382 177.362 222.036 174.873 220.69 172.385L220.69 172.385L220.69 172.385L220.69 172.385L220.69 172.385L220.69 172.384L220.69 172.384L220.689 172.384L220.689 172.384L220.689 172.384L220.689 172.384L220.689 172.383L220.689 172.383L220.689 172.383L220.689 172.383L220.689 172.383L220.689 172.382L220.689 172.382L220.688 172.382L220.688 172.382L220.688 172.382C218.719 168.741 216.75 165.101 214.541 161.613C212.318 158.101 209.774 154.794 207.23 151.487L207.229 151.485L207.228 151.484C206.104 150.023 204.979 148.562 203.883 147.083L201.523 148.034C201.597 148.776 201.597 149.563 201.596 150.351C201.596 152.061 201.595 153.771 202.358 155.011C205.794 160.593 209.459 166.034 213.125 171.475C214.805 173.97 216.486 176.465 218.145 178.974C220.876 183.105 223.598 187.242 226.32 191.38L226.322 191.382C230.411 197.598 234.501 203.813 238.622 210.008C238.866 210.374 239.377 210.562 239.911 210.759L239.911 210.759L239.913 210.76C240.169 210.854 240.43 210.95 240.669 211.068L240.669 211.068C240.994 209.479 241.204 208.452 241.104 207.455ZM346.924 298.375C360.462 304.915 373.641 311.359 386.716 318.006C388.223 318.773 389.152 320.677 389.896 322.594C384.111 323.606 379.706 321.094 375.418 318.65L375.416 318.649C374.58 318.172 373.748 317.697 372.911 317.252C357.528 309.071 342.309 300.578 327.093 292.086L326.707 291.87C325.326 291.099 324.126 290.004 322.926 288.908C322.37 288.401 321.814 287.894 321.241 287.419L322.118 285.982L322.125 285.986C330.261 290.103 338.398 294.221 346.924 298.375ZM205.804 294.759C206.601 294.213 207.397 293.667 208.203 293.138L208.203 293.138C207.554 292.556 206.905 291.974 205.607 291.502C193.188 297.114 181.374 302.528 169.665 308.159C163.956 310.904 158.33 313.871 152.9 317.128C151.658 317.873 150.758 319.189 149.858 320.505C149.446 321.107 149.035 321.709 148.591 322.256C149.454 322.242 150.367 322.323 151.279 322.403C153.251 322.576 155.223 322.749 156.702 321.976C169.953 315.054 183.038 307.813 196.122 300.573L196.123 300.572L196.124 300.572L196.124 300.571L196.125 300.571L196.126 300.57L196.127 300.57L196.128 300.57L196.129 300.569L196.129 300.569L196.13 300.568L196.131 300.568L196.132 300.567L196.133 300.567L196.133 300.566L196.134 300.566L196.135 300.565L196.136 300.565L196.137 300.564L197.927 299.574C198.796 299.093 199.664 298.613 200.533 298.132C202.354 297.125 204.079 295.942 205.804 294.759ZM145.93 291.587L145.928 291.587L145.918 291.589L144.945 289.433C145.441 289.004 145.916 288.514 146.392 288.025C147.442 286.943 148.492 285.862 149.764 285.425C152.444 284.505 155.252 283.957 158.06 283.41L158.06 283.41L158.06 283.41L158.061 283.41L158.061 283.41L158.061 283.41L158.061 283.41L158.062 283.41L158.062 283.41L158.062 283.41L158.062 283.41L158.063 283.41L158.063 283.41L158.063 283.409L158.063 283.409L158.064 283.409L158.064 283.409L158.064 283.409L158.064 283.409C159.182 283.191 160.3 282.974 161.409 282.732C163.371 282.305 165.331 281.868 167.291 281.432L167.292 281.431L167.293 281.431L167.294 281.431L167.295 281.431L167.296 281.43L167.297 281.43L167.298 281.43L167.299 281.43L167.299 281.429L167.3 281.429L167.301 281.429L167.302 281.429L167.303 281.429L167.304 281.428L167.305 281.428L167.306 281.428L167.307 281.428L167.308 281.428L167.308 281.427L167.309 281.427L167.309 281.427L167.31 281.427L167.31 281.427L167.311 281.427L167.311 281.427L167.312 281.427L167.312 281.427L167.313 281.427L167.313 281.427L167.314 281.426L167.314 281.426L167.315 281.426L167.315 281.426L167.316 281.426C171.961 280.39 176.606 279.355 181.277 278.452C189.026 276.955 196.8 275.587 204.574 274.22H204.574C206.292 273.918 208.01 273.615 209.727 273.312C210.141 273.239 210.626 273.562 211.427 274.939L211.427 274.94L211.427 274.94L211.426 274.94L211.426 274.94L211.426 274.94L211.426 274.94L211.426 274.94L211.426 274.94L211.426 274.94L211.425 274.94L211.425 274.94L211.425 274.94L211.425 274.94L211.425 274.94L211.425 274.94L211.425 274.94L211.425 274.94L211.424 274.94C209.731 275.45 208.037 275.96 206.057 276.753C185.824 281.887 165.877 286.737 145.93 291.587ZM384.969 232.37L384.973 232.369C386.422 231.932 387.885 231.491 389.366 231.053C389.406 230.969 389.447 230.884 389.488 230.797C389.536 230.698 389.585 230.598 389.634 230.497C390.239 229.252 390.902 227.886 390.525 227.473C389.528 226.38 387.615 225.015 386.499 225.32C382.802 226.33 379.149 227.497 375.496 228.665L375.496 228.665L375.495 228.665L375.494 228.665L375.494 228.665L375.493 228.665L375.492 228.666L375.492 228.666L375.491 228.666L375.491 228.666L375.49 228.666L375.489 228.667L375.489 228.667L375.488 228.667L375.487 228.667L375.487 228.667L375.486 228.667C371.804 229.844 368.121 231.021 364.394 232.036C359.292 233.425 354.153 234.674 349.013 235.923C344.358 237.055 339.703 238.186 335.076 239.421C333.481 239.847 332.005 240.722 330.529 241.596C329.85 241.998 329.171 242.4 328.481 242.759L328.917 244.221C329.636 244.143 330.358 244.079 331.08 244.015C332.691 243.873 334.302 243.731 335.883 243.431C337.724 243.082 339.549 242.648 341.375 242.213L341.376 242.213C343.055 241.814 344.733 241.415 346.424 241.081C349.281 240.518 352.147 239.997 355.013 239.476L355.015 239.476L355.016 239.475L355.018 239.475L355.02 239.475L355.021 239.475L355.023 239.474L355.025 239.474L355.026 239.474L355.028 239.473L355.029 239.473L355.031 239.473L355.033 239.472L355.034 239.472L355.036 239.472L355.038 239.471L355.039 239.471C359.983 238.572 364.926 237.673 369.821 236.561C374.868 235.415 379.835 233.917 384.968 232.37L384.969 232.37ZM170.646 238.476L170.645 238.476L170.644 238.476C164.117 237.291 157.748 236.134 151.435 234.724C149.908 234.383 148.553 233.272 147.198 232.161C146.575 231.651 145.952 231.14 145.312 230.704L146.178 228.529C147.7 228.748 149.23 228.933 150.76 229.118C154.173 229.531 157.586 229.943 160.913 230.723C165.701 231.845 170.434 233.196 175.167 234.547C177.872 235.319 180.576 236.091 183.292 236.821C186.698 237.736 190.111 238.626 193.524 239.516C198.091 240.708 202.659 241.9 207.21 243.15C207.729 243.293 208.138 243.837 208.547 244.381C208.736 244.634 208.926 244.886 209.127 245.099C208.806 245.197 208.475 245.339 208.144 245.482C207.428 245.791 206.713 246.099 206.104 245.956C202.893 245.199 199.699 244.37 196.506 243.541L196.505 243.541L196.505 243.541L196.504 243.541L196.504 243.54L196.503 243.54L196.503 243.54L196.502 243.54L196.502 243.54L196.501 243.54L196.501 243.54L196.5 243.54L196.5 243.539L196.499 243.539L196.499 243.539L196.498 243.539C193.381 242.73 190.264 241.921 187.131 241.179C185.509 240.795 183.841 240.602 182.055 240.395H182.055C181.043 240.278 179.992 240.156 178.891 239.993C176.111 239.469 173.367 238.971 170.649 238.477L170.648 238.477L170.648 238.477L170.646 238.476ZM355.49 280.045C354.253 279.833 353.001 279.617 351.733 279.394C349.203 278.764 346.744 278.112 344.324 277.47C340.632 276.49 337.029 275.534 333.395 274.716C332.376 274.487 331.229 274.834 330.081 275.18C329.554 275.34 329.026 275.499 328.511 275.602C336.486 279.173 344.152 281.761 351.937 283.916C356.932 285.298 361.955 286.581 366.978 287.864L366.979 287.864L366.98 287.864L366.98 287.864L366.981 287.865L366.981 287.865L366.982 287.865L366.982 287.865L366.983 287.865L366.983 287.865L366.983 287.865L366.984 287.866L366.984 287.866L366.985 287.866L366.985 287.866L366.986 287.866C373.283 289.474 379.58 291.082 385.821 292.887C389.321 293.899 389.982 292.29 391.1 289.57L391.126 289.507C390.559 289.252 390.027 288.991 389.514 288.739L389.514 288.739C388.457 288.22 387.484 287.742 386.459 287.445C385.808 287.256 385.157 287.067 384.506 286.877L384.498 286.875L384.497 286.875L384.495 286.874C379.296 285.362 374.093 283.849 368.828 282.612C364.493 281.593 360.096 280.837 355.5 280.047L355.497 280.046L355.49 280.045ZM284.539 179.71C286.148 172.865 287.759 166.441 289.395 160.022C289.56 159.371 289.719 158.717 289.878 158.062C290.4 155.905 290.924 153.746 291.71 151.689C291.944 151.077 292.745 150.683 293.546 150.288C293.913 150.108 294.279 149.927 294.591 149.726C294.784 150.034 295.043 150.355 295.303 150.675L295.303 150.675C295.863 151.368 296.424 152.06 296.316 152.625C295.184 158.564 294.029 164.525 292.363 170.329C290.573 176.563 288.404 182.692 286.238 188.813L286.238 188.813L286.225 188.851L285.954 189.616L285.681 190.389C283.836 195.61 281.795 200.762 279.755 205.91L279.669 206.127C279.561 206.399 279.216 206.576 278.549 206.92L278.549 206.92C278.118 207.142 277.553 207.433 276.831 207.863C279.634 197.795 282.093 188.964 284.539 179.71ZM248.621 332.131C248.256 333.151 247.886 334.186 247.506 335.236C246.077 339.6 244.682 343.793 243.305 347.931L243.3 347.946C242.609 350.021 241.923 352.082 241.24 354.145C240.968 354.965 240.663 355.782 240.357 356.603L240.357 356.604L240.357 356.604L240.357 356.605L240.356 356.605L240.356 356.606L240.356 356.606L240.356 356.607L240.356 356.608L240.355 356.608L240.355 356.609L240.355 356.609L240.355 356.61C238.815 360.738 237.241 364.961 239.603 370.199C240.084 369.662 240.589 369.185 241.065 368.735L241.065 368.735L241.066 368.734L241.066 368.734L241.066 368.734L241.066 368.734L241.066 368.734L241.066 368.734L241.067 368.733L241.067 368.733L241.067 368.733L241.067 368.733L241.067 368.733L241.068 368.732L241.068 368.732C242.027 367.826 242.873 367.026 243.199 366.051C244.455 362.289 245.552 358.475 246.65 354.66L246.65 354.659L246.651 354.656C247.312 352.361 247.972 350.066 248.667 347.782C250.038 343.278 251.434 338.781 252.831 334.284L252.832 334.28C254.321 329.486 255.81 324.692 257.267 319.888C257.754 318.283 258.115 316.639 258.476 314.996C258.642 314.24 258.808 313.485 258.986 312.733L257.28 312.005C256.79 313.001 256.285 313.99 255.779 314.98C254.643 317.205 253.506 319.43 252.545 321.728C251.14 325.089 249.912 328.523 248.621 332.131ZM250.327 176.03C253.175 186.089 256.026 195.741 258.969 205.706L255.001 205.975C253.213 197.555 250.113 189.575 247.024 181.623L247.024 181.623L247.024 181.623L247.024 181.622L247.024 181.622L247.024 181.622L247.024 181.622L247.024 181.622L247.024 181.622L247.024 181.621L247.023 181.621L247.023 181.621L247.023 181.621C243.049 171.39 239.092 161.205 237.973 150.191L239.866 149.14C240.421 149.938 241.041 150.714 241.66 151.489C243.027 153.2 244.393 154.91 245.076 156.861C246.75 161.636 247.972 166.57 249.239 171.681L249.239 171.681L249.239 171.682L249.239 171.683L249.244 171.701L249.244 171.703L249.244 171.704L249.245 171.705L249.245 171.707L249.25 171.726L249.25 171.727C249.602 173.147 249.958 174.582 250.327 176.03ZM295.313 369.234C294.903 368.903 294.469 368.574 294.033 368.243C292.227 366.871 290.369 365.46 289.879 363.673C288.687 359.324 287.774 354.899 286.862 350.472C286.114 346.845 285.366 343.217 284.463 339.629C283.629 336.311 282.564 333.051 281.5 329.791C280.627 327.118 279.755 324.445 279.008 321.739C278.61 320.296 278.574 318.752 278.532 316.923C278.51 315.996 278.487 314.996 278.414 313.898C278.917 314.262 279.396 314.548 279.817 314.798C280.576 315.251 281.144 315.59 281.312 316.068C282.175 318.538 283.045 321.006 283.915 323.474L283.915 323.475C287.531 333.731 291.147 343.991 294.296 354.391C295.402 358.046 295.363 362.049 295.324 366.097C295.313 367.142 295.303 368.189 295.313 369.234ZM224.749 217.016C225.748 217.025 226.428 217.031 227.165 216.701C226.924 215.798 226.741 215.121 226.304 214.72L223.81 212.427L223.807 212.425C215.232 204.546 206.658 196.667 198.016 188.863C193.182 184.498 188.272 180.205 183.201 176.124C182.543 175.594 181.454 175.6 180.364 175.607C179.862 175.61 179.359 175.613 178.899 175.564C179.016 175.953 179.095 176.38 179.174 176.807C179.347 177.734 179.52 178.662 180.071 179.202C183.533 182.592 187.155 185.83 190.858 188.958C201.977 198.354 213.161 207.673 224.668 217.015L224.749 217.016ZM214.342 310.495C215.518 309.778 216.5 308.794 217.494 307.797C219.769 305.519 222.109 303.174 226.99 303.794C226.139 304.523 225.4 305.143 224.739 305.698C223.511 306.729 222.552 307.534 221.64 308.388C218.216 311.598 214.8 314.817 211.385 318.036L211.38 318.041C204.811 324.231 198.242 330.421 191.616 336.548C189.042 338.928 186.197 341.083 183.214 342.912C182.451 343.38 181.334 343.268 180.216 343.156L180.215 343.156C179.706 343.105 179.197 343.054 178.722 343.058C178.881 342.67 179.005 342.242 179.13 341.814C179.4 340.89 179.669 339.967 180.28 339.441C185.173 335.224 190.124 331.075 195.074 326.926L195.076 326.924C198.142 324.354 201.208 321.785 204.261 319.199C205.667 318.008 207.052 316.791 208.455 315.558L208.456 315.558L208.456 315.557L208.457 315.557C210.351 313.893 212.279 312.198 214.342 310.495ZM344.075 188.433C346.943 185.864 349.819 183.287 352.727 180.73C353.143 180.319 353.606 179.935 354.06 179.558L354.06 179.557C355.871 178.053 357.543 176.664 355.606 174.11C355.241 173.628 351.198 175.094 349.627 176.513C340.81 184.476 332.16 192.626 323.511 200.774C322.723 201.517 321.935 202.259 321.147 203.001C318.75 205.259 316.416 207.584 314.082 209.909C313.018 210.969 311.954 212.029 310.884 213.082L312.181 214.726C323.468 206.893 333.718 197.711 344.075 188.433ZM208.558 293.08C207.9 292.736 207.394 292.368 206.858 291.977C206.577 291.772 206.288 291.561 205.964 291.345C207.357 290.818 208.648 289.899 209.961 288.966L209.961 288.966C211.937 287.56 213.96 286.121 216.449 285.933L217.242 287.654C214.466 289.443 211.69 291.232 208.558 293.08Z" fill="#EBEDF0"/>
</svg>
