<svg width="495" height="495" viewBox="0 0 495 495" fill="none" xmlns="http://www.w3.org/2000/svg">
<path fill-rule="evenodd" clip-rule="evenodd" d="M3.09944e-05 496H266C343 496 419.5 496 496 496L496 495V0H496L496 495H0L3.09944e-05 496ZM147.245 64.3281C153.096 61.6832 158.946 59.0384 164.798 56.3945C172.351 52.9819 179.855 49.5996 187.32 46.2344C206.909 37.4046 226.236 28.6929 245.509 19.8638C249.549 18.0132 252.84 18.193 256.815 20.0423C298.816 39.5851 340.852 59.0537 382.888 78.5223C400.046 86.4688 417.203 94.4154 434.359 102.367C434.614 102.485 434.87 102.603 435.127 102.721C438.04 104.064 440.965 105.412 443.433 107.559C446.899 110.575 448.737 114.33 448.737 118.946C448.737 124.069 448.735 129.192 448.734 134.315C448.732 140.356 448.729 146.397 448.731 152.437L448.731 152.605C448.733 154.588 448.735 156.667 446.737 157.757C446.312 157.989 445.886 158.222 445.461 158.454C436.257 163.486 427.022 168.534 416.594 170.587C409.432 171.997 402.893 169.646 396.424 166.59C361.652 150.165 326.659 134.22 291.314 119.061C291.01 118.931 290.707 118.787 290.403 118.642C289.069 118.008 287.698 117.357 286.031 117.746C284.825 118.884 284.918 120.325 285.008 121.737C285.033 122.122 285.057 122.506 285.055 122.88C285.037 126.052 285.066 129.227 285.095 132.401C285.151 138.562 285.207 144.721 284.921 150.866C284.67 156.277 286.876 158.97 291.566 161.05C309.765 169.12 327.906 177.319 346.048 185.518C351.712 188.077 357.376 190.637 363.042 193.193C366.325 194.674 369.613 196.146 372.9 197.618C381.459 201.451 390.018 205.283 398.501 209.275C407.699 213.603 416.738 213.709 425.906 209.429C426.554 209.126 427.202 208.823 427.85 208.521C433.082 206.076 438.316 203.63 443.605 201.315C447.774 199.49 449.889 200.756 449.53 205.232C448.434 218.93 448.586 232.639 448.738 246.348C448.825 254.113 448.911 261.878 448.77 269.64C448.715 272.674 447.721 274.67 444.918 275.933C437.166 279.426 429.431 282.955 421.695 286.484C417.621 288.343 413.547 290.201 409.471 292.055C406.076 293.598 402.999 292.393 399.902 290.967L397.541 289.88C370.669 277.505 343.796 265.131 316.895 252.818C308.415 248.937 299.918 245.093 291.421 241.248C282.027 236.997 272.633 232.747 263.261 228.447C254.345 224.355 245.457 222.425 235.868 226.385C229.795 228.893 224.052 227.374 218.204 224.387C199.32 214.743 179.887 206.274 160.455 197.806C157.153 196.367 153.851 194.928 150.552 193.483C150.186 193.323 149.784 193.185 149.378 193.045C147.828 192.513 146.202 191.955 146.143 190.02C146.082 188.003 147.802 187.342 149.379 186.736C149.714 186.608 150.042 186.482 150.346 186.345C153.272 185.033 156.198 183.719 159.123 182.406C175.166 175.202 191.21 167.997 207.353 161.023C211.805 159.1 213.686 156.681 213.476 151.702C213.21 145.409 213.26 139.104 213.309 132.797C213.333 129.769 213.357 126.741 213.346 123.715C213.344 123.379 213.355 123.042 213.365 122.702C213.409 121.212 213.455 119.675 212.553 118.089C209.699 117.905 207.216 119.149 204.765 120.377C204.004 120.758 203.247 121.137 202.483 121.472C197.961 123.452 193.437 125.428 188.913 127.404C160.489 139.82 132.061 152.237 104.11 165.687C94.0716 170.518 84.7742 172.07 74.9366 165.709C72.3294 164.024 69.4834 162.706 66.638 161.389C65.3926 160.813 64.1473 160.237 62.9222 159.629C54.44 155.425 51.345 148.19 51.3693 139.179C51.3734 137.628 51.3988 136.076 51.4241 134.524C51.4859 130.739 51.5476 126.953 51.3027 123.187C50.5858 112.167 55.7891 105.333 65.5843 101.078C75.7363 96.6682 85.8189 92.0985 95.9014 87.5289C99.3072 85.9853 102.713 84.4417 106.121 82.9043C119.833 76.7198 133.539 70.5239 147.245 64.3281ZM282.735 470.394C280.087 471.646 277.44 472.899 274.794 474.155C272.83 475.116 270.921 476.005 269.062 476.871C265.327 478.61 261.795 480.255 258.434 482.193C253.209 485.207 248.676 484.602 243.424 482.014C225.926 473.392 208.317 464.993 190.709 456.595C186.531 454.602 182.352 452.609 178.176 450.613C168.973 446.216 159.775 441.807 150.578 437.398C123.002 424.18 95.4258 410.961 67.7067 398.05C56.1669 392.675 50.3132 384.966 51.2626 371.999C51.6703 366.432 51.5672 360.827 51.4642 355.223C51.423 352.984 51.3818 350.744 51.3733 348.507C51.3639 346.049 51.6832 343.542 54.0399 342.442C55.9552 341.548 57.8603 340.624 59.766 339.7C67.4434 335.977 75.1323 332.248 83.5496 330.452C90.7036 328.925 97.2831 331.263 103.776 334.275C134.088 348.338 164.449 362.293 194.811 376.247C198.93 378.14 203.049 380.033 207.167 381.926C207.525 382.091 207.878 382.273 208.233 382.456C209.496 383.107 210.781 383.77 212.362 383.684C213.507 382.813 213.437 381.596 213.369 380.426C213.353 380.143 213.336 379.863 213.338 379.591C213.356 375.675 213.348 371.759 213.341 367.843C213.328 361.425 213.316 355.007 213.418 348.592C213.471 345.3 212.352 343.506 209.307 342.125C187.181 332.092 165.103 321.953 143.068 311.721C127.671 304.57 112.339 297.276 97.0332 289.931C90.119 286.613 83.3096 286.658 76.4088 289.777C74.6355 290.579 72.8651 291.388 71.0947 292.196C66.5038 294.294 61.9128 296.391 57.2694 298.365C52.9186 300.214 51.4231 299.208 51.4104 294.48C51.3819 283.856 51.3813 273.231 51.3806 262.607C51.3799 251.398 51.3792 240.189 51.3459 228.981C51.3361 225.701 52.787 223.602 55.6286 222.32C59.2848 220.67 62.9453 219.029 66.6059 217.388C73.4268 214.331 80.2478 211.274 87.0409 208.156C89.5109 207.022 91.5192 207.965 93.5342 208.912C93.7361 209.007 93.9382 209.102 94.1407 209.194C107.986 215.539 121.825 221.899 135.664 228.259C149.352 234.55 163.039 240.84 176.734 247.117C185.895 251.315 195.065 255.493 204.235 259.671C215.512 264.81 226.79 269.948 238.05 275.124C245.215 278.418 252.552 278.998 259.758 275.995C266.793 273.064 272.802 274.102 279.609 277.378C295.142 284.852 310.854 291.952 326.567 299.052C332.849 301.891 339.13 304.729 345.4 307.591C345.601 307.683 345.805 307.773 346.009 307.863C347.928 308.709 349.842 309.553 349.981 312.239C350.119 314.904 348.31 315.552 346.587 316.17C346.164 316.322 345.746 316.471 345.364 316.649C326.938 325.185 308.507 333.714 289.977 342.021C286.38 343.634 284.988 345.787 285.061 349.645C285.186 356.339 285.172 363.035 285.158 369.732C285.151 372.869 285.144 376.007 285.152 379.144C285.153 379.35 285.15 379.558 285.147 379.766C285.128 381.206 285.108 382.684 286.163 384.133C288.621 384.271 290.73 383.224 292.809 382.193C293.367 381.916 293.923 381.64 294.484 381.388C298.36 379.646 302.236 377.905 306.112 376.164C337.918 361.878 369.725 347.592 401.442 333.111C409.048 329.638 416.124 329.625 423.425 333.489C425.805 334.748 428.24 335.896 430.676 337.044C434.408 338.803 438.142 340.563 441.683 342.728C445.969 345.349 448.894 348.775 449.255 353.796C449.912 362.93 450.126 372.108 449.173 381.222C448.505 387.608 444.969 392.186 439.021 395.033C429.574 399.556 420.161 404.147 410.747 408.739C403.853 412.102 396.959 415.464 390.053 418.8C360.066 433.28 330.06 447.721 300.051 462.156C294.291 464.926 288.513 467.66 282.735 470.394Z" fill="white"/>
</svg>
